{"glyphs":{"0":{"ha":833,"x_min":79,"x_max":753,"o":"m 753 458 q 667 107 753 228 q 414 -14 580 -14 q 164 107 248 -14 q 79 458 79 227 q 162 813 79 696 q 420 929 244 929 q 671 811 589 929 q 753 458 753 693 m 562 458 q 548 647 562 577 q 504 748 534 716 q 418 780 474 780 q 329 748 360 780 q 284 647 298 716 q 270 458 270 577 q 284 270 270 340 q 330 168 299 200 q 416 136 360 136 q 528 210 494 136 q 562 458 562 284 m 343 376 l 343 545 l 489 545 l 489 376 l 343 376 z "},"1":{"ha":833,"x_min":94,"x_max":774,"o":"m 101 0 l 101 142 l 365 142 l 365 746 q 259 652 338 690 q 94 614 180 614 l 94 760 q 262 801 188 760 q 375 915 337 842 l 555 915 l 555 142 l 774 142 l 774 0 l 101 0 z "},"2":{"ha":833,"x_min":83,"x_max":752,"o":"m 83 0 l 83 132 q 180 282 117 207 q 363 454 243 357 q 484 560 456 531 q 528 617 512 589 q 544 673 544 644 q 512 749 544 722 q 418 777 480 777 q 325 744 357 777 q 283 646 293 711 l 92 656 q 191 859 108 789 q 417 929 274 929 q 651 862 565 929 q 737 681 737 794 q 691 537 737 607 q 551 394 644 467 q 374 248 420 292 q 309 157 329 203 l 752 157 l 752 0 l 83 0 z "},"3":{"ha":833,"x_min":63,"x_max":763,"o":"m 763 255 q 671 56 763 127 q 417 -16 579 -16 q 170 53 261 -16 q 63 250 79 121 l 257 267 q 416 139 274 139 q 528 173 488 139 q 568 267 568 208 q 518 357 568 326 q 378 388 469 388 l 311 388 l 311 542 l 374 542 q 501 573 456 542 q 545 661 545 605 q 508 745 545 712 q 410 777 471 777 q 313 750 351 777 q 270 663 275 722 l 79 676 q 182 863 94 798 q 413 929 270 929 q 587 899 513 929 q 700 813 661 868 q 739 685 739 758 q 686 546 739 602 q 534 471 633 490 l 534 469 q 702 399 641 456 q 763 255 763 342 z "},"4":{"ha":833,"x_min":48,"x_max":792,"o":"m 665 195 l 665 0 l 483 0 l 483 195 l 48 195 l 48 338 l 452 915 l 665 915 l 665 336 l 792 336 l 792 195 l 665 195 m 483 615 q 485 694 483 652 q 489 749 488 737 q 425 640 471 711 l 208 336 l 483 336 l 483 615 z "},"5":{"ha":833,"x_min":71,"x_max":762,"o":"m 762 308 q 719 140 762 213 q 596 27 677 67 q 408 -14 516 -14 q 177 51 264 -14 q 71 239 91 116 l 261 254 q 314 165 276 193 q 410 138 352 138 q 524 181 483 138 q 566 304 566 224 q 526 417 566 374 q 414 459 486 459 q 284 397 334 459 l 98 397 l 132 915 l 706 915 l 706 773 l 304 773 l 289 552 q 462 613 358 613 q 680 529 598 613 q 762 308 762 446 z "},"6":{"ha":833,"x_min":85,"x_max":756,"o":"m 756 302 q 670 71 756 155 q 435 -14 584 -14 q 177 111 269 -14 q 85 456 85 235 q 177 812 85 696 q 439 929 269 929 q 631 876 561 929 q 730 709 701 822 l 551 684 q 435 779 525 779 q 315 705 358 779 q 271 490 271 631 q 356 568 302 541 q 479 595 410 595 q 680 516 604 595 q 756 302 756 437 m 565 297 q 527 413 565 371 q 424 454 490 454 q 324 417 363 454 q 285 317 285 379 q 325 188 285 241 q 429 135 365 135 q 528 178 492 135 q 565 297 565 222 z "},"7":{"ha":833,"x_min":89,"x_max":741,"o":"m 741 764 q 497 351 568 528 q 427 0 427 174 l 228 0 q 309 362 228 176 q 564 758 390 547 l 89 758 l 89 915 l 741 915 l 741 764 z "},"8":{"ha":833,"x_min":74,"x_max":760,"o":"m 760 259 q 669 59 760 132 q 417 -14 579 -14 q 165 58 256 -14 q 74 258 74 130 q 128 405 74 345 q 269 479 182 465 l 269 482 q 144 555 192 499 q 96 686 96 612 q 181 863 96 798 q 414 929 265 929 q 652 865 568 929 q 736 685 736 802 q 688 556 736 613 q 562 484 640 499 l 562 481 q 707 407 654 466 q 760 259 760 348 m 540 675 q 414 795 540 795 q 291 675 291 795 q 323 581 291 613 q 416 548 355 548 q 540 675 540 548 m 562 275 q 525 379 562 343 q 413 414 487 414 q 307 377 345 414 q 270 272 270 339 q 418 121 270 121 q 526 157 490 121 q 562 275 562 194 z "},"9":{"ha":833,"x_min":77,"x_max":750,"o":"m 750 473 q 658 112 750 237 q 393 -14 566 -14 q 196 40 267 -14 q 94 211 124 94 l 273 236 q 395 136 300 136 q 517 207 473 136 q 563 420 562 278 q 478 340 537 369 q 352 311 420 311 q 153 395 228 311 q 77 619 77 478 q 165 846 77 764 q 411 929 254 929 q 663 817 576 929 q 750 473 750 704 m 549 596 q 509 729 549 679 q 406 780 469 780 q 308 736 345 780 q 271 618 271 692 q 308 499 271 545 q 407 453 345 453 q 509 493 469 453 q 549 596 549 532 z "}," ":{"ha":833,"x_min":0,"x_max":0,"o":""},"!":{"ha":833,"x_min":317,"x_max":517,"o":"m 495 289 l 339 289 l 317 915 l 517 915 l 495 289 m 317 0 l 317 183 l 513 183 l 513 0 l 317 0 z "},"\"":{"ha":833,"x_min":170,"x_max":665,"o":"m 639 572 l 504 572 l 479 1007 l 665 1007 l 639 572 m 330 572 l 195 572 l 170 1007 l 355 1007 l 330 572 z "},"#":{"ha":833,"x_min":40,"x_max":792,"o":"m 645 566 l 598 347 l 759 347 l 759 245 l 576 245 l 523 0 l 418 0 l 471 245 l 262 245 l 209 0 l 105 0 l 158 245 l 40 245 l 40 347 l 180 347 l 227 566 l 73 566 l 73 667 l 249 667 l 302 915 l 406 915 l 353 667 l 562 667 l 616 915 l 720 915 l 667 667 l 792 667 l 792 566 l 645 566 m 331 566 l 283 347 l 493 347 l 541 566 l 331 566 z "},"$":{"ha":833,"x_min":47,"x_max":781,"o":"m 781 267 q 699 76 781 144 q 455 3 616 9 l 455 -116 l 381 -116 l 381 1 q 154 70 235 6 q 47 264 73 133 l 220 296 q 272 183 233 219 q 381 141 310 148 l 381 406 q 371 409 379 408 q 360 411 363 411 q 195 470 251 436 q 110 557 140 505 q 79 686 79 610 q 156 860 79 798 q 381 927 233 921 l 381 1018 l 455 1018 l 455 927 q 659 868 587 922 q 761 690 730 814 l 582 663 q 455 794 562 780 l 455 555 l 463 554 q 582 522 482 554 q 732 426 682 489 q 781 267 781 362 m 381 797 q 257 688 257 787 q 267 638 257 658 q 298 606 277 619 q 381 572 318 592 l 381 797 m 605 264 q 593 319 605 298 q 557 354 581 340 q 455 390 534 368 l 455 141 q 605 264 605 151 z "},"%":{"ha":833,"x_min":0,"x_max":834,"o":"m 160 0 l 41 0 l 673 918 l 793 918 l 160 0 m 197 923 q 389 695 389 923 q 340 523 389 582 q 195 464 290 464 q 50 522 99 464 q 0 695 0 581 q 47 866 0 808 q 197 923 95 923 m 270 695 q 252 800 270 768 q 196 831 234 831 q 139 801 158 831 q 119 695 119 770 q 139 590 119 622 q 196 559 159 559 q 270 695 270 559 m 642 451 q 834 223 834 451 q 785 51 834 110 q 640 -8 735 -8 q 494 50 544 -8 q 445 223 445 109 q 492 394 445 336 q 642 451 540 451 m 715 223 q 697 328 715 296 q 641 359 679 359 q 584 329 603 359 q 564 223 564 298 q 584 118 564 150 q 641 87 604 87 q 715 223 715 87 z "},"&":{"ha":833,"x_min":16,"x_max":828,"o":"m 16 250 q 71 410 16 336 q 221 528 125 483 q 173 709 173 625 q 236 865 173 810 q 418 920 300 920 q 584 868 522 920 q 646 728 646 816 q 592 600 646 659 q 399 476 538 541 q 544 271 463 363 q 617 491 595 372 l 755 473 q 650 178 727 312 q 765 128 708 128 q 828 140 804 128 l 828 7 q 764 -7 802 -7 q 560 71 655 -7 q 317 -13 449 -13 q 95 55 173 -13 q 16 250 16 123 m 455 162 q 277 406 347 281 q 206 340 231 379 q 181 253 181 300 q 218 149 181 186 q 323 111 256 111 q 455 162 394 111 m 501 726 q 480 787 501 764 q 416 810 459 810 q 340 782 366 810 q 314 708 314 754 q 349 583 314 648 q 444 634 417 614 q 486 676 471 654 q 501 726 501 699 z "},"'":{"ha":833,"x_min":324,"x_max":509,"o":"m 484 572 l 349 572 l 324 1007 l 509 1007 l 484 572 z "},"(":{"ha":833,"x_min":233,"x_max":625,"o":"m 435 -288 q 281 18 328 -135 q 233 360 233 170 q 281 702 233 549 q 435 1006 328 854 l 625 1006 q 470 699 518 852 q 421 359 421 545 q 469 22 421 174 q 625 -288 517 -130 l 435 -288 z "},")":{"ha":833,"x_min":208,"x_max":600,"o":"m 208 -288 q 365 22 317 -130 q 412 359 412 174 q 363 700 412 546 q 208 1006 315 853 l 399 1006 q 553 700 506 852 q 600 360 600 547 q 553 19 600 172 q 399 -288 506 -134 l 208 -288 z "},"*":{"ha":833,"x_min":149,"x_max":684,"o":"m 479 820 l 638 890 l 684 757 l 515 715 l 641 571 l 516 489 l 417 660 l 316 489 l 190 572 l 319 715 l 149 757 l 195 890 l 357 820 l 345 1006 l 491 1006 l 479 820 z "},"+":{"ha":833,"x_min":68,"x_max":765,"o":"m 492 386 l 492 109 l 339 109 l 339 386 l 68 386 l 68 538 l 339 538 l 339 814 l 492 814 l 492 538 l 765 538 l 765 386 l 492 386 z "},",":{"ha":833,"x_min":175,"x_max":503,"o":"m 175 -246 l 290 203 l 503 203 l 292 -246 l 175 -246 z "},"-":{"ha":833,"x_min":220,"x_max":613,"o":"m 220 277 l 220 443 l 613 443 l 613 277 l 220 277 z "},".":{"ha":833,"x_min":319,"x_max":515,"o":"m 319 0 l 319 207 l 515 207 l 515 0 l 319 0 z "},"/":{"ha":833,"x_min":60,"x_max":772,"o":"m 60 -14 l 617 1006 l 772 1006 l 218 -14 l 60 -14 z "},":":{"ha":833,"x_min":319,"x_max":515,"o":"m 319 0 l 319 207 l 515 207 l 515 0 l 319 0 m 319 529 l 319 736 l 515 736 l 515 529 l 319 529 z "},";":{"ha":833,"x_min":221,"x_max":549,"o":"m 325 529 l 325 736 l 521 736 l 521 529 l 325 529 m 221 -246 l 336 203 l 549 203 l 338 -246 l 221 -246 z "},"<":{"ha":833,"x_min":68,"x_max":765,"o":"m 68 350 l 68 568 l 765 833 l 765 679 l 200 458 l 765 239 l 765 85 l 68 350 z "},"=":{"ha":833,"x_min":68,"x_max":765,"o":"m 68 571 l 68 722 l 765 722 l 765 571 l 68 571 m 68 197 l 68 347 l 765 347 l 765 197 l 68 197 z "},">":{"ha":833,"x_min":68,"x_max":765,"o":"m 68 85 l 68 239 l 633 458 l 68 679 l 68 833 l 765 568 l 765 350 l 68 85 z "},"?":{"ha":833,"x_min":50,"x_max":755,"o":"m 755 669 q 740 588 755 625 q 695 519 724 551 q 564 412 667 487 q 470 275 473 347 l 289 275 q 329 400 293 345 q 431 501 365 456 q 535 587 507 553 q 563 661 563 621 q 522 744 563 713 q 413 776 480 776 q 298 736 345 776 q 243 630 252 696 l 50 638 q 163 852 68 776 q 410 929 258 929 q 661 859 568 929 q 755 669 755 788 m 283 0 l 283 183 l 479 183 l 479 0 l 283 0 z "},"@":{"ha":833,"x_min":30,"x_max":806,"o":"m 806 512 q 750 190 806 310 q 600 71 694 71 q 503 177 503 71 l 503 183 l 504 210 l 500 210 q 433 108 475 146 q 340 71 390 71 q 228 138 269 71 q 188 332 188 206 q 221 538 188 441 q 310 691 254 635 q 437 747 367 747 q 510 717 481 747 q 548 629 538 688 l 551 629 l 574 732 l 665 732 l 598 388 q 571 199 571 245 q 578 165 571 176 q 604 153 585 153 q 686 251 654 153 q 718 511 718 348 q 646 808 718 694 q 454 921 574 921 q 278 847 353 921 q 162 642 203 774 q 122 349 122 511 q 200 17 122 140 q 410 -105 277 -105 q 532 -81 473 -105 q 660 2 591 -58 l 708 -64 q 557 -161 630 -131 q 403 -192 484 -192 q 206 -126 291 -192 q 75 63 121 -60 q 30 349 30 187 q 82 693 30 543 q 231 925 134 843 q 456 1006 328 1006 q 642 945 563 1006 q 764 771 721 884 q 806 512 806 659 m 512 532 q 438 664 512 664 q 364 617 397 664 q 312 493 331 571 q 293 333 293 415 q 357 156 293 156 q 439 214 404 156 q 493 379 474 273 q 512 532 512 486 z "},"A":{"ha":833,"x_min":0,"x_max":833,"o":"m 833 0 l 634 0 l 572 224 l 262 224 l 200 0 l 0 0 l 300 915 l 534 915 l 833 0 m 417 791 q 397 706 412 763 q 304 374 382 650 l 530 374 q 436 709 450 654 q 417 791 422 764 z "},"B":{"ha":833,"x_min":93,"x_max":804,"o":"m 804 261 q 720 69 804 138 q 488 0 636 0 l 93 0 l 93 915 l 449 915 q 673 856 597 915 q 749 685 749 796 q 705 554 749 607 q 567 481 660 500 q 744 412 683 469 q 804 261 804 355 m 548 658 q 435 766 548 766 l 293 766 l 293 550 l 436 550 q 548 658 548 550 m 603 278 q 567 370 603 338 q 463 402 531 402 l 293 402 l 293 149 l 467 149 q 603 278 603 149 z "},"C":{"ha":833,"x_min":54,"x_max":795,"o":"m 258 462 q 305 227 258 309 q 447 144 353 144 q 610 309 557 144 l 795 274 q 445 -14 705 -14 q 154 107 254 -14 q 54 462 54 229 q 439 929 54 929 q 651 863 566 929 q 776 665 736 796 l 591 621 q 532 732 572 692 q 442 772 493 772 q 258 462 258 772 z "},"D":{"ha":833,"x_min":92,"x_max":779,"o":"m 779 465 q 675 120 779 241 q 377 0 570 0 l 92 0 l 92 915 l 336 915 q 669 803 559 915 q 779 465 779 692 m 578 465 q 520 689 578 618 q 333 760 462 760 l 292 760 l 292 155 l 361 155 q 578 465 578 155 z "},"E":{"ha":833,"x_min":93,"x_max":777,"o":"m 93 0 l 93 915 l 749 915 l 749 760 l 293 760 l 293 541 l 708 541 l 708 386 l 293 386 l 293 155 l 777 155 l 777 0 l 93 0 z "},"F":{"ha":833,"x_min":113,"x_max":750,"o":"m 313 760 l 313 500 l 734 500 l 734 345 l 313 345 l 313 0 l 113 0 l 113 915 l 750 915 l 750 760 l 313 760 z "},"G":{"ha":833,"x_min":54,"x_max":765,"o":"m 765 125 q 431 -14 600 -14 q 154 111 254 -14 q 54 462 54 235 q 433 929 54 929 q 632 866 555 929 q 746 675 709 803 l 560 638 q 435 772 524 772 q 300 699 343 772 q 257 462 257 625 q 302 229 257 311 q 441 146 348 146 q 515 160 477 146 q 582 197 553 174 l 582 356 l 396 356 l 396 504 l 765 504 l 765 125 z "},"H":{"ha":833,"x_min":94,"x_max":740,"o":"m 540 0 l 540 389 l 294 389 l 294 0 l 94 0 l 94 915 l 294 915 l 294 555 l 540 555 l 540 915 l 740 915 l 740 0 l 540 0 z "},"I":{"ha":833,"x_min":106,"x_max":728,"o":"m 106 915 l 728 915 l 728 760 l 517 760 l 517 155 l 728 155 l 728 0 l 106 0 l 106 155 l 317 155 l 317 760 l 106 760 l 106 915 z "},"J":{"ha":833,"x_min":69,"x_max":691,"o":"m 382 -14 q 170 60 250 -14 q 69 273 90 134 l 267 302 q 311 182 280 222 q 384 143 341 143 q 463 183 433 143 q 492 298 492 223 l 492 758 l 288 758 l 288 915 l 691 915 l 691 302 q 609 71 691 155 q 382 -14 527 -14 z "},"K":{"ha":833,"x_min":92,"x_max":833,"o":"m 597 0 l 378 378 l 292 281 l 292 0 l 92 0 l 92 915 l 292 915 l 292 509 l 588 915 l 821 915 l 509 522 l 833 0 l 597 0 z "},"L":{"ha":833,"x_min":143,"x_max":761,"o":"m 143 0 l 143 915 l 343 915 l 343 155 l 761 155 l 761 0 l 143 0 z "},"M":{"ha":833,"x_min":67,"x_max":766,"o":"m 616 0 l 616 589 q 627 793 616 660 q 576 562 587 596 l 492 244 l 344 244 l 258 562 q 207 793 239 635 l 212 725 q 216 589 216 654 l 216 0 l 67 0 l 67 915 l 302 915 l 394 576 q 420 420 404 545 q 447 576 433 525 l 539 915 l 766 915 l 766 0 l 616 0 z "},"N":{"ha":833,"x_min":92,"x_max":742,"o":"m 507 0 l 247 685 q 266 445 266 514 l 266 0 l 92 0 l 92 915 l 320 915 l 587 212 q 568 459 568 371 l 568 915 l 742 915 l 742 0 l 507 0 z "},"O":{"ha":833,"x_min":49,"x_max":785,"o":"m 785 460 q 690 106 785 227 q 417 -14 595 -14 q 144 106 239 -14 q 49 460 49 227 q 144 812 49 694 q 417 929 239 929 q 690 812 595 929 q 785 460 785 694 m 582 460 q 417 772 582 772 q 252 460 252 772 q 293 224 252 304 q 417 144 335 144 q 541 224 499 144 q 582 460 582 304 z "},"P":{"ha":833,"x_min":92,"x_max":774,"o":"m 774 626 q 733 466 774 535 q 613 360 692 397 q 426 323 535 323 l 292 323 l 292 0 l 92 0 l 92 915 l 418 915 q 683 841 592 915 q 774 626 774 768 m 573 623 q 529 728 573 696 q 395 760 484 760 l 292 760 l 292 477 l 401 477 q 532 514 490 477 q 573 623 573 551 z "},"Q":{"ha":833,"x_min":49,"x_max":792,"o":"m 785 460 q 719 150 785 265 q 528 0 654 35 q 595 -96 552 -66 q 709 -126 637 -126 q 792 -117 739 -126 l 792 -254 q 628 -273 707 -273 q 444 -211 517 -273 q 327 -5 372 -148 q 120 140 191 24 q 49 460 49 257 q 144 812 49 694 q 417 929 239 929 q 690 812 595 929 q 785 460 785 694 m 582 460 q 417 772 582 772 q 252 460 252 772 q 293 224 252 304 q 417 144 335 144 q 541 224 499 144 q 582 460 582 304 z "},"R":{"ha":833,"x_min":93,"x_max":832,"o":"m 607 0 l 410 349 l 293 349 l 293 0 l 93 0 l 93 915 l 428 915 q 696 845 607 915 q 785 644 785 775 q 734 486 785 551 q 595 394 684 420 l 832 0 l 607 0 m 583 635 q 541 729 583 699 q 407 760 499 760 l 293 760 l 293 505 l 412 505 q 583 635 583 505 z "},"S":{"ha":833,"x_min":26,"x_max":790,"o":"m 790 265 q 691 61 790 135 q 414 -14 591 -14 q 155 54 255 -14 q 26 249 54 121 l 219 274 q 284 173 235 210 q 420 136 334 136 q 552 165 509 136 q 595 254 595 193 q 557 329 595 298 q 447 378 519 360 q 241 439 301 413 q 145 498 181 465 q 90 574 109 530 q 71 672 71 618 q 166 860 71 791 q 417 929 261 929 q 654 869 569 929 q 765 683 740 809 l 571 663 q 413 787 541 787 q 303 761 341 787 q 265 684 265 734 q 283 628 265 650 q 333 591 302 606 q 462 551 365 576 q 658 481 589 519 q 758 389 726 443 q 790 265 790 334 z "},"T":{"ha":833,"x_min":41,"x_max":792,"o":"m 517 760 l 517 0 l 317 0 l 317 760 l 41 760 l 41 915 l 792 915 l 792 760 l 517 760 z "},"U":{"ha":833,"x_min":87,"x_max":746,"o":"m 406 -14 q 163 77 239 -14 q 87 358 87 168 l 87 915 l 288 915 l 288 360 q 315 192 288 241 q 412 143 342 143 q 514 195 482 143 q 546 367 546 248 l 546 915 l 746 915 l 746 368 q 662 80 746 174 q 406 -14 578 -14 z "},"V":{"ha":833,"x_min":2,"x_max":832,"o":"m 519 0 l 317 0 l 2 915 l 211 915 l 369 389 q 419 209 387 330 l 433 267 l 468 389 l 625 915 l 832 915 l 519 0 z "},"W":{"ha":833,"x_min":0,"x_max":833,"o":"m 690 0 l 522 0 l 479 181 q 418 431 445 309 l 394 332 l 364 212 l 311 0 l 143 0 l 0 915 l 176 915 l 236 444 q 247 263 244 378 l 257 315 l 284 429 l 351 659 l 484 659 l 551 429 q 566 369 559 398 q 588 263 572 339 l 589 281 q 600 444 593 391 l 657 915 l 833 915 l 690 0 z "},"X":{"ha":833,"x_min":0,"x_max":833,"o":"m 623 0 l 418 334 l 212 0 l 0 0 l 311 482 l 28 915 l 239 915 l 418 623 l 595 915 l 806 915 l 515 482 l 833 0 l 623 0 z "},"Y":{"ha":833,"x_min":2,"x_max":831,"o":"m 516 377 l 516 0 l 317 0 l 317 377 l 2 915 l 212 915 l 415 531 l 621 915 l 831 915 l 516 377 z "},"Z":{"ha":833,"x_min":59,"x_max":772,"o":"m 772 0 l 59 0 l 59 142 l 514 758 l 111 758 l 111 915 l 744 915 l 744 776 l 289 157 l 772 157 l 772 0 z "},"[":{"ha":833,"x_min":253,"x_max":661,"o":"m 253 -288 l 253 1006 l 661 1006 l 661 878 l 433 878 l 433 -159 l 661 -159 l 661 -288 l 253 -288 z "},"\\":{"ha":833,"x_min":62,"x_max":773,"o":"m 616 -14 l 62 1006 l 216 1006 l 773 -14 l 616 -14 z "},"]":{"ha":833,"x_min":172,"x_max":581,"o":"m 172 -288 l 172 -159 l 400 -159 l 400 878 l 172 878 l 172 1006 l 581 1006 l 581 -288 l 172 -288 z "},"^":{"ha":833,"x_min":31,"x_max":781,"o":"m 625 349 l 404 859 l 184 349 l 31 349 l 296 956 l 514 956 l 781 349 l 625 349 z "},"_":{"ha":833,"x_min":-3,"x_max":836,"o":"m -3 -149 l -3 -84 l 836 -84 l 836 -149 l -3 -149 z "},"`":{"ha":833,"x_min":235,"x_max":581,"o":"m 466 803 l 235 960 l 235 989 l 410 989 l 581 824 l 581 803 l 466 803 z "},"a":{"ha":833,"x_min":72,"x_max":799,"o":"m 298 -14 q 132 44 191 -14 q 72 208 72 102 q 143 381 72 321 q 355 442 214 440 l 506 445 l 506 482 q 482 588 506 552 q 406 624 458 624 q 333 599 356 624 q 304 520 309 574 l 105 530 q 414 747 142 747 q 624 680 551 747 q 696 483 696 613 l 696 217 q 710 132 696 155 q 757 109 724 109 q 799 113 779 109 l 799 9 q 768 2 782 5 q 741 -3 755 -1 q 712 -7 728 -5 q 677 -8 697 -8 q 571 27 605 -8 q 530 131 536 62 l 526 131 q 428 20 483 54 q 298 -14 374 -14 m 506 340 l 415 338 q 327 326 354 337 q 285 290 299 315 q 271 222 271 265 q 352 119 271 119 q 462 171 418 119 q 506 302 506 223 l 506 340 z "},"b":{"ha":833,"x_min":95,"x_max":768,"o":"m 95 0 q 100 160 100 92 l 100 1006 l 291 1006 l 291 739 l 290 618 l 291 618 q 375 714 319 680 q 506 748 431 748 q 700 648 632 748 q 768 366 768 549 q 696 90 768 194 q 500 -14 624 -14 q 376 20 429 -14 q 292 119 323 54 l 290 119 q 287 57 290 97 q 279 0 283 18 l 95 0 m 288 371 q 306 233 288 290 q 357 147 324 177 q 433 117 390 117 q 533 179 498 117 q 569 366 569 241 q 534 554 569 490 q 431 618 499 618 q 327 553 365 618 q 288 371 288 488 z "},"c":{"ha":833,"x_min":75,"x_max":752,"o":"m 423 -14 q 165 86 256 -14 q 75 363 75 185 q 166 646 75 545 q 426 747 258 747 q 640 682 555 747 q 747 503 725 617 l 555 493 q 514 583 547 549 q 422 616 481 616 q 275 370 275 616 q 425 117 275 117 q 515 151 479 117 q 561 253 552 185 l 752 244 q 698 110 742 169 q 583 19 654 51 q 423 -14 512 -14 z "},"d":{"ha":833,"x_min":66,"x_max":739,"o":"m 554 0 q 548 51 551 10 q 544 119 544 92 l 541 119 q 452 17 505 47 q 327 -14 399 -14 q 136 88 205 -14 q 66 366 66 190 q 136 646 66 545 q 334 746 206 746 q 460 713 407 746 q 543 616 514 680 l 544 616 l 543 737 l 543 1006 l 733 1006 l 733 160 q 739 0 733 92 l 554 0 m 545 370 q 507 552 545 488 q 402 616 469 616 q 299 553 334 616 q 264 366 264 490 q 300 179 264 241 q 401 117 336 117 q 476 147 443 117 q 527 233 509 177 q 545 370 545 290 z "},"e":{"ha":833,"x_min":68,"x_max":766,"o":"m 425 -14 q 161 87 254 -14 q 68 370 68 188 q 112 576 68 492 q 236 704 155 661 q 427 747 317 747 q 677 640 588 747 q 766 336 766 533 l 766 330 l 268 330 q 312 172 268 231 q 434 114 357 114 q 523 135 484 114 q 575 201 562 157 l 755 186 q 631 38 718 90 q 425 -14 544 -14 m 425 627 q 313 580 355 627 q 269 450 272 533 l 581 450 q 535 579 576 531 q 425 627 493 627 z "},"f":{"ha":833,"x_min":79,"x_max":761,"o":"m 443 605 l 443 0 l 253 0 l 253 605 l 79 605 l 79 734 l 253 734 l 253 790 q 327 967 253 908 q 539 1027 401 1027 q 761 1008 647 1027 l 761 883 q 572 896 659 896 q 474 868 506 896 q 443 772 443 841 l 443 734 l 743 734 l 743 605 l 443 605 z "},"g":{"ha":833,"x_min":84,"x_max":755,"o":"m 418 -294 q 212 -242 292 -294 q 115 -97 133 -190 l 305 -75 q 347 -144 315 -119 q 423 -170 379 -170 q 527 -121 492 -170 q 562 25 562 -72 l 562 65 l 564 143 l 562 143 q 340 8 499 8 q 151 103 218 8 q 84 373 84 197 q 154 648 84 551 q 354 745 224 745 q 479 712 425 745 q 562 616 532 680 l 566 616 q 569 680 566 640 q 575 734 572 721 l 755 734 q 751 564 751 661 l 751 22 q 665 -213 751 -132 q 418 -294 578 -294 m 564 377 q 526 551 564 488 q 422 614 488 614 q 318 553 354 614 q 283 373 283 492 q 319 198 283 255 q 420 140 356 140 q 527 204 490 140 q 564 377 564 268 z "},"h":{"ha":833,"x_min":97,"x_max":749,"o":"m 285 587 q 382 709 323 671 q 521 747 440 747 q 692 678 635 747 q 749 465 749 609 l 749 0 l 559 0 l 559 421 q 531 564 559 524 q 441 604 504 604 q 330 545 372 604 q 288 393 288 486 l 288 0 l 97 0 l 97 1006 l 288 1006 l 288 732 q 282 587 288 658 l 285 587 z "},"i":{"ha":833,"x_min":80,"x_max":778,"o":"m 538 129 l 778 129 l 778 0 l 80 0 l 80 129 l 348 129 l 348 605 l 151 605 l 151 734 l 538 734 l 538 129 m 348 866 l 348 1006 l 538 1006 l 538 866 l 348 866 z "},"j":{"ha":833,"x_min":79,"x_max":586,"o":"m 586 -9 q 548 -159 586 -96 q 438 -255 509 -222 q 275 -288 368 -288 q 165 -279 221 -288 q 79 -259 110 -271 l 79 -117 q 258 -140 172 -140 q 363 -103 332 -140 q 395 7 395 -67 l 395 605 l 155 605 l 155 734 l 586 734 l 586 -9 m 395 866 l 395 1006 l 586 1006 l 586 866 l 395 866 z "},"k":{"ha":833,"x_min":117,"x_max":794,"o":"m 586 0 l 390 332 l 308 275 l 308 0 l 117 0 l 117 1006 l 308 1006 l 308 430 l 570 734 l 774 734 l 517 448 l 794 0 l 586 0 z "},"l":{"ha":833,"x_min":80,"x_max":778,"o":"m 538 129 l 778 129 l 778 0 l 80 0 l 80 129 l 348 129 l 348 878 l 151 878 l 151 1006 l 538 1006 l 538 129 z "},"m":{"ha":833,"x_min":47,"x_max":783,"o":"m 340 0 l 340 446 q 327 587 340 547 q 281 626 315 626 q 226 562 246 626 q 206 395 206 498 l 206 0 l 51 0 l 51 577 q 47 734 51 705 l 189 734 l 193 648 l 193 615 l 194 615 q 252 716 217 684 q 340 747 288 747 q 430 715 400 747 q 472 614 459 682 l 473 614 q 538 717 500 686 q 633 747 576 747 q 748 689 713 747 q 783 489 783 631 l 783 0 l 628 0 l 628 446 q 615 587 628 547 q 569 626 603 626 q 514 571 534 626 q 494 408 494 517 l 494 0 l 340 0 z "},"n":{"ha":833,"x_min":92,"x_max":749,"o":"m 559 0 l 559 420 q 533 560 559 515 q 443 605 507 605 q 330 545 372 605 q 288 393 288 485 l 288 0 l 97 0 l 97 570 q 95 666 97 629 q 92 734 94 704 l 273 734 q 279 665 275 721 q 282 588 282 609 l 285 588 q 382 710 323 672 q 521 748 440 748 q 749 466 749 748 l 749 0 l 559 0 z "},"o":{"ha":833,"x_min":62,"x_max":771,"o":"m 771 368 q 679 86 771 185 q 414 -14 587 -14 q 155 86 247 -14 q 62 368 62 185 q 154 648 62 549 q 418 747 245 747 q 771 368 771 747 m 572 368 q 537 557 572 498 q 420 616 503 616 q 299 557 336 616 q 262 368 262 497 q 300 177 262 237 q 412 117 338 117 q 534 176 496 117 q 572 368 572 235 z "},"p":{"ha":833,"x_min":95,"x_max":768,"o":"m 279 734 q 287 677 283 720 q 290 614 290 634 l 292 614 q 379 713 325 679 q 507 748 434 748 q 698 646 629 748 q 768 368 768 543 q 697 87 768 189 q 499 -14 627 -14 q 373 19 427 -14 q 291 116 319 52 l 290 116 l 291 -5 l 291 -288 l 100 -288 l 100 574 q 95 734 100 642 l 279 734 m 288 363 q 306 228 288 283 q 356 145 323 174 q 431 116 388 116 q 534 180 500 116 q 569 368 569 245 q 533 555 569 493 q 433 618 498 618 q 357 588 391 618 q 306 501 324 557 q 288 363 288 445 z "},"q":{"ha":833,"x_min":66,"x_max":739,"o":"m 739 734 q 733 574 733 642 l 733 -288 l 543 -288 l 543 -5 l 544 116 l 543 116 q 459 20 515 54 q 328 -14 403 -14 q 134 86 201 -14 q 66 368 66 186 q 138 645 66 541 q 334 748 211 748 q 541 614 475 748 l 544 614 q 548 685 544 644 q 554 734 552 725 l 739 734 m 545 363 q 527 501 545 445 q 476 588 509 557 q 401 618 444 618 q 300 555 336 618 q 264 368 264 493 q 299 180 264 244 q 402 116 334 116 q 507 181 469 116 q 545 363 545 246 z "},"r":{"ha":833,"x_min":134,"x_max":733,"o":"m 733 575 q 589 588 657 588 q 421 508 484 588 q 359 297 359 428 l 359 0 l 170 0 l 170 475 q 160 597 170 527 q 134 734 151 667 l 318 734 q 349 579 342 646 l 352 579 q 444 709 386 671 q 593 747 501 747 q 733 736 664 747 l 733 575 z "},"s":{"ha":833,"x_min":82,"x_max":749,"o":"m 749 214 q 662 47 749 108 q 420 -14 574 -14 q 189 34 269 -14 q 82 183 109 82 l 250 208 q 299 134 264 156 q 420 113 334 113 q 537 133 500 113 q 574 197 574 153 q 544 253 574 232 q 444 288 515 273 q 227 347 283 319 q 141 418 170 374 q 111 526 111 462 q 192 689 111 631 q 422 748 273 748 q 632 697 553 748 q 732 550 712 646 l 563 532 q 523 599 555 577 q 422 621 491 621 q 320 604 354 621 q 286 546 286 587 q 312 495 286 514 q 400 465 338 477 q 553 428 486 447 q 660 384 620 410 q 725 318 701 358 q 749 214 749 277 z "},"t":{"ha":833,"x_min":109,"x_max":702,"o":"m 222 605 l 109 605 l 109 734 l 232 734 l 292 925 l 411 925 l 411 734 l 672 734 l 672 605 l 411 605 l 411 245 q 422 165 411 186 q 458 133 433 144 q 529 121 484 121 q 702 139 613 121 l 702 13 q 566 -6 606 -3 q 482 -9 526 -9 q 338 15 396 -9 q 251 88 280 38 q 221 228 221 138 l 222 605 z "},"u":{"ha":833,"x_min":92,"x_max":735,"o":"m 282 734 l 282 322 q 312 179 282 229 q 399 129 342 129 q 499 189 460 129 q 539 340 539 249 l 539 734 l 730 734 l 730 164 q 735 0 730 71 l 553 0 q 545 146 545 98 l 542 146 q 319 -14 469 -14 q 150 57 208 -14 q 92 268 92 128 l 92 734 l 282 734 z "},"v":{"ha":833,"x_min":21,"x_max":809,"o":"m 525 0 l 297 0 l 21 734 l 222 734 l 364 312 q 412 142 374 278 q 437 229 416 159 q 610 734 458 299 l 809 734 l 525 0 z "},"w":{"ha":833,"x_min":7,"x_max":826,"o":"m 697 0 l 532 0 l 435 319 q 416 389 418 374 q 409 357 416 382 q 296 0 402 332 l 132 0 l 7 734 l 162 734 l 218 322 q 231 169 231 219 l 245 219 l 351 554 l 482 554 l 577 245 q 597 169 587 212 q 604 266 597 211 q 673 734 610 321 l 826 734 l 697 0 z "},"x":{"ha":833,"x_min":33,"x_max":800,"o":"m 593 0 l 415 266 l 236 0 l 33 0 l 309 379 l 46 734 l 252 734 l 415 494 l 578 734 l 785 734 l 522 381 l 800 0 l 593 0 z "},"y":{"ha":833,"x_min":26,"x_max":807,"o":"m 220 -288 q 97 -279 149 -288 l 97 -144 l 132 -147 l 166 -149 q 234 -136 207 -149 q 282 -94 260 -123 q 330 7 303 -64 l 26 734 l 227 734 l 356 376 q 425 150 383 302 l 431 175 l 486 374 l 608 734 l 807 734 l 503 -39 q 385 -233 449 -178 q 220 -288 320 -288 z "},"z":{"ha":833,"x_min":94,"x_max":730,"o":"m 94 0 l 94 135 l 480 596 l 121 596 l 121 734 l 697 734 l 697 597 l 313 139 l 730 139 l 730 0 l 94 0 z "},"{":{"ha":833,"x_min":132,"x_max":709,"o":"m 487 -288 q 341 -235 396 -288 q 287 -85 287 -182 l 287 137 q 250 253 287 214 q 132 292 212 291 l 132 425 q 250 466 214 428 q 287 581 287 505 l 287 804 q 340 955 287 903 q 487 1006 393 1006 l 709 1006 l 709 878 l 581 878 q 492 842 519 878 q 465 736 465 807 l 465 532 q 426 420 465 467 q 324 361 387 374 l 324 358 q 427 297 389 343 q 465 187 465 250 l 465 -17 q 492 -124 465 -89 q 581 -159 519 -159 l 709 -159 l 709 -288 l 487 -288 z "},"|":{"ha":833,"x_min":328,"x_max":505,"o":"m 328 -309 l 328 1006 l 505 1006 l 505 -309 l 328 -309 z "},"}":{"ha":833,"x_min":125,"x_max":702,"o":"m 125 -288 l 125 -159 l 252 -159 q 341 -124 314 -159 q 369 -17 369 -89 l 369 187 q 407 297 369 250 q 509 358 445 343 l 509 361 q 408 421 446 374 q 369 532 369 468 l 369 736 q 341 842 369 807 q 252 878 314 878 l 125 878 l 125 1006 l 347 1006 q 493 955 440 1006 q 547 804 547 903 l 547 581 q 583 466 547 505 q 702 425 620 428 l 702 292 q 584 253 621 291 q 547 137 547 214 l 547 -85 q 492 -235 547 -181 q 347 -288 438 -288 l 125 -288 z "},"~":{"ha":833,"x_min":64,"x_max":768,"o":"m 587 350 q 487 364 536 350 q 387 396 438 378 q 237 428 296 428 q 149 413 189 428 q 64 368 109 399 l 64 513 q 248 570 141 570 q 412 538 319 570 q 536 498 502 507 q 600 490 570 490 q 768 553 691 490 l 768 404 q 685 362 725 374 q 587 350 646 350 z "},"Ä":{"ha":833,"x_min":0,"x_max":833,"o":"m 833 0 l 634 0 l 572 224 l 262 224 l 200 0 l 0 0 l 300 915 l 534 915 l 833 0 m 417 791 q 397 706 412 763 q 304 374 382 650 l 530 374 q 436 709 450 654 q 417 791 422 764 m 484 980 l 484 1128 l 637 1128 l 637 980 l 484 980 m 196 980 l 196 1128 l 348 1128 l 348 980 l 196 980 z "},"Å":{"ha":833,"x_min":0,"x_max":833,"o":"m 833 0 l 634 0 l 572 224 l 262 224 l 200 0 l 0 0 l 300 915 l 534 915 l 833 0 m 417 791 q 397 706 412 763 q 304 374 382 650 l 530 374 q 436 709 450 654 q 417 791 422 764 m 583 1003 q 538 906 583 944 q 418 867 494 867 q 298 906 342 867 q 254 1003 254 944 q 299 1101 254 1063 q 418 1138 345 1138 q 538 1100 494 1138 q 583 1003 583 1063 m 488 1003 q 469 1038 488 1025 q 418 1051 450 1051 q 368 1038 387 1051 q 348 1003 348 1025 q 368 968 348 981 q 418 955 387 955 q 469 968 450 955 q 488 1003 488 981 z "},"Ç":{"ha":833,"x_min":54,"x_max":795,"o":"m 258 462 q 305 227 258 309 q 447 144 353 144 q 610 309 557 144 l 795 274 q 445 -14 705 -14 q 154 107 254 -14 q 54 462 54 229 q 439 929 54 929 q 651 863 566 929 q 776 665 736 796 l 591 621 q 532 732 572 692 q 442 772 493 772 q 258 462 258 772 m 574 -173 q 522 -269 574 -237 q 369 -302 469 -302 q 300 -298 338 -302 l 300 -218 q 357 -222 324 -222 q 450 -176 450 -222 q 431 -140 450 -152 q 368 -129 412 -129 q 332 -130 342 -129 l 379 0 l 476 0 l 449 -69 q 544 -100 513 -73 q 574 -173 574 -128 z "},"É":{"ha":833,"x_min":93,"x_max":777,"o":"m 93 0 l 93 915 l 749 915 l 749 760 l 293 760 l 293 541 l 708 541 l 708 386 l 293 386 l 293 155 l 777 155 l 777 0 l 93 0 m 311 968 l 311 989 l 481 1154 l 656 1154 l 656 1125 l 426 968 l 311 968 z "},"Ñ":{"ha":833,"x_min":92,"x_max":742,"o":"m 507 0 l 247 685 q 266 445 266 514 l 266 0 l 92 0 l 92 915 l 320 915 l 587 212 q 568 459 568 371 l 568 915 l 742 915 l 742 0 l 507 0 m 530 964 q 470 976 500 964 q 411 1003 439 988 q 357 1029 382 1017 q 311 1041 332 1041 q 266 1025 281 1041 q 245 964 251 1009 l 152 964 q 198 1113 160 1070 q 304 1156 235 1156 q 366 1144 335 1156 q 425 1118 396 1133 q 478 1092 453 1103 q 522 1080 503 1080 q 569 1098 554 1080 q 589 1156 584 1116 l 681 1156 q 658 1042 675 1081 q 608 984 640 1004 q 530 964 576 964 z "},"Ö":{"ha":833,"x_min":49,"x_max":785,"o":"m 785 460 q 690 106 785 227 q 417 -14 595 -14 q 144 106 239 -14 q 49 460 49 227 q 144 812 49 694 q 417 929 239 929 q 690 812 595 929 q 785 460 785 694 m 582 460 q 417 772 582 772 q 252 460 252 772 q 293 224 252 304 q 417 144 335 144 q 541 224 499 144 q 582 460 582 304 m 486 980 l 486 1128 l 640 1128 l 640 980 l 486 980 m 198 980 l 198 1128 l 350 1128 l 350 980 l 198 980 z "},"Ü":{"ha":833,"x_min":87,"x_max":746,"o":"m 406 -14 q 163 77 239 -14 q 87 358 87 168 l 87 915 l 288 915 l 288 360 q 315 192 288 241 q 412 143 342 143 q 514 195 482 143 q 546 367 546 248 l 546 915 l 746 915 l 746 368 q 662 80 746 174 q 406 -14 578 -14 m 484 980 l 484 1128 l 637 1128 l 637 980 l 484 980 m 196 980 l 196 1128 l 348 1128 l 348 980 l 196 980 z "},"á":{"ha":833,"x_min":72,"x_max":799,"o":"m 298 -14 q 132 44 191 -14 q 72 208 72 102 q 143 381 72 321 q 355 442 214 440 l 506 445 l 506 482 q 482 588 506 552 q 406 624 458 624 q 333 599 356 624 q 304 520 309 574 l 105 530 q 414 747 142 747 q 624 680 551 747 q 696 483 696 613 l 696 217 q 710 132 696 155 q 757 109 724 109 q 799 113 779 109 l 799 9 q 768 2 782 5 q 741 -3 755 -1 q 712 -7 728 -5 q 677 -8 697 -8 q 571 27 605 -8 q 530 131 536 62 l 526 131 q 428 20 483 54 q 298 -14 374 -14 m 506 340 l 415 338 q 327 326 354 337 q 285 290 299 315 q 271 222 271 265 q 352 119 271 119 q 462 171 418 119 q 506 302 506 223 l 506 340 m 301 803 l 301 824 l 472 989 l 647 989 l 647 960 l 416 803 l 301 803 z "},"à":{"ha":833,"x_min":72,"x_max":799,"o":"m 298 -14 q 132 44 191 -14 q 72 208 72 102 q 143 381 72 321 q 355 442 214 440 l 506 445 l 506 482 q 482 588 506 552 q 406 624 458 624 q 333 599 356 624 q 304 520 309 574 l 105 530 q 414 747 142 747 q 624 680 551 747 q 696 483 696 613 l 696 217 q 710 132 696 155 q 757 109 724 109 q 799 113 779 109 l 799 9 q 768 2 782 5 q 741 -3 755 -1 q 712 -7 728 -5 q 677 -8 697 -8 q 571 27 605 -8 q 530 131 536 62 l 526 131 q 428 20 483 54 q 298 -14 374 -14 m 506 340 l 415 338 q 327 326 354 337 q 285 290 299 315 q 271 222 271 265 q 352 119 271 119 q 462 171 418 119 q 506 302 506 223 l 506 340 m 389 803 l 158 960 l 158 989 l 333 989 l 504 824 l 504 803 l 389 803 z "},"â":{"ha":833,"x_min":72,"x_max":799,"o":"m 298 -14 q 132 44 191 -14 q 72 208 72 102 q 143 381 72 321 q 355 442 214 440 l 506 445 l 506 482 q 482 588 506 552 q 406 624 458 624 q 333 599 356 624 q 304 520 309 574 l 105 530 q 414 747 142 747 q 624 680 551 747 q 696 483 696 613 l 696 217 q 710 132 696 155 q 757 109 724 109 q 799 113 779 109 l 799 9 q 768 2 782 5 q 741 -3 755 -1 q 712 -7 728 -5 q 677 -8 697 -8 q 571 27 605 -8 q 530 131 536 62 l 526 131 q 428 20 483 54 q 298 -14 374 -14 m 506 340 l 415 338 q 327 326 354 337 q 285 290 299 315 q 271 222 271 265 q 352 119 271 119 q 462 171 418 119 q 506 302 506 223 l 506 340 m 654 821 l 654 802 l 547 802 l 409 893 l 406 893 l 263 802 l 155 802 l 155 821 l 330 991 l 485 991 l 654 821 z "},"ä":{"ha":833,"x_min":72,"x_max":799,"o":"m 298 -14 q 132 44 191 -14 q 72 208 72 102 q 143 381 72 321 q 355 442 214 440 l 506 445 l 506 482 q 482 588 506 552 q 406 624 458 624 q 333 599 356 624 q 304 520 309 574 l 105 530 q 414 747 142 747 q 624 680 551 747 q 696 483 696 613 l 696 217 q 710 132 696 155 q 757 109 724 109 q 799 113 779 109 l 799 9 q 768 2 782 5 q 741 -3 755 -1 q 712 -7 728 -5 q 677 -8 697 -8 q 571 27 605 -8 q 530 131 536 62 l 526 131 q 428 20 483 54 q 298 -14 374 -14 m 506 340 l 415 338 q 327 326 354 337 q 285 290 299 315 q 271 222 271 265 q 352 119 271 119 q 462 171 418 119 q 506 302 506 223 l 506 340 m 473 827 l 473 975 l 627 975 l 627 827 l 473 827 m 185 827 l 185 975 l 337 975 l 337 827 l 185 827 z "},"ã":{"ha":833,"x_min":72,"x_max":799,"o":"m 298 -14 q 132 44 191 -14 q 72 208 72 102 q 143 381 72 321 q 355 442 214 440 l 506 445 l 506 482 q 482 588 506 552 q 406 624 458 624 q 333 599 356 624 q 304 520 309 574 l 105 530 q 414 747 142 747 q 624 680 551 747 q 696 483 696 613 l 696 217 q 710 132 696 155 q 757 109 724 109 q 799 113 779 109 l 799 9 q 768 2 782 5 q 741 -3 755 -1 q 712 -7 728 -5 q 677 -8 697 -8 q 571 27 605 -8 q 530 131 536 62 l 526 131 q 428 20 483 54 q 298 -14 374 -14 m 506 340 l 415 338 q 327 326 354 337 q 285 290 299 315 q 271 222 271 265 q 352 119 271 119 q 462 171 418 119 q 506 302 506 223 l 506 340 m 524 802 q 464 814 494 802 q 406 841 434 826 q 352 867 377 855 q 306 879 326 879 q 260 863 275 879 q 239 802 245 847 l 146 802 q 192 951 155 908 q 299 994 230 994 q 360 982 330 994 q 419 956 391 970 q 472 929 448 941 q 517 918 497 918 q 564 936 549 918 q 584 994 578 954 l 675 994 q 652 880 670 919 q 603 822 635 842 q 524 802 570 802 z "},"å":{"ha":833,"x_min":72,"x_max":799,"o":"m 298 -14 q 132 44 191 -14 q 72 208 72 102 q 143 381 72 321 q 355 442 214 440 l 506 445 l 506 482 q 482 588 506 552 q 406 624 458 624 q 333 599 356 624 q 304 520 309 574 l 105 530 q 414 747 142 747 q 624 680 551 747 q 696 483 696 613 l 696 217 q 710 132 696 155 q 757 109 724 109 q 799 113 779 109 l 799 9 q 768 2 782 5 q 741 -3 755 -1 q 712 -7 728 -5 q 677 -8 697 -8 q 571 27 605 -8 q 530 131 536 62 l 526 131 q 428 20 483 54 q 298 -14 374 -14 m 506 340 l 415 338 q 327 326 354 337 q 285 290 299 315 q 271 222 271 265 q 352 119 271 119 q 462 171 418 119 q 506 302 506 223 l 506 340 m 575 914 q 531 817 575 855 q 411 779 486 779 q 291 817 335 779 q 247 914 247 855 q 292 1012 247 975 q 411 1049 337 1049 q 531 1011 486 1049 q 575 914 575 974 m 481 914 q 462 949 481 936 q 411 962 443 962 q 360 949 380 962 q 340 914 340 937 q 360 879 340 892 q 411 866 380 866 q 461 879 442 866 q 481 914 481 892 z "},"ç":{"ha":833,"x_min":75,"x_max":752,"o":"m 423 -14 q 165 86 256 -14 q 75 363 75 185 q 166 646 75 545 q 426 747 258 747 q 640 682 555 747 q 747 503 725 617 l 555 493 q 514 583 547 549 q 422 616 481 616 q 275 370 275 616 q 425 117 275 117 q 515 151 479 117 q 561 253 552 185 l 752 244 q 698 110 742 169 q 583 19 654 51 q 423 -14 512 -14 m 563 -173 q 510 -269 563 -237 q 357 -302 457 -302 q 289 -298 327 -302 l 289 -218 q 346 -222 313 -222 q 439 -176 439 -222 q 420 -140 439 -152 q 356 -129 401 -129 q 321 -130 330 -129 l 368 0 l 465 0 l 437 -69 q 532 -100 501 -73 q 563 -173 563 -128 z "},"é":{"ha":833,"x_min":68,"x_max":766,"o":"m 425 -14 q 161 87 254 -14 q 68 370 68 188 q 112 576 68 492 q 236 704 155 661 q 427 747 317 747 q 677 640 588 747 q 766 336 766 533 l 766 330 l 268 330 q 312 172 268 231 q 434 114 357 114 q 523 135 484 114 q 575 201 562 157 l 755 186 q 631 38 718 90 q 425 -14 544 -14 m 425 627 q 313 580 355 627 q 269 450 272 533 l 581 450 q 535 579 576 531 q 425 627 493 627 m 324 803 l 324 824 l 495 989 l 670 989 l 670 960 l 439 803 l 324 803 z "},"è":{"ha":833,"x_min":68,"x_max":766,"o":"m 425 -14 q 161 87 254 -14 q 68 370 68 188 q 112 576 68 492 q 236 704 155 661 q 427 747 317 747 q 677 640 588 747 q 766 336 766 533 l 766 330 l 268 330 q 312 172 268 231 q 434 114 357 114 q 523 135 484 114 q 575 201 562 157 l 755 186 q 631 38 718 90 q 425 -14 544 -14 m 425 627 q 313 580 355 627 q 269 450 272 533 l 581 450 q 535 579 576 531 q 425 627 493 627 m 412 803 l 182 960 l 182 989 l 357 989 l 528 824 l 528 803 l 412 803 z "},"ê":{"ha":833,"x_min":68,"x_max":766,"o":"m 425 -14 q 161 87 254 -14 q 68 370 68 188 q 112 576 68 492 q 236 704 155 661 q 427 747 317 747 q 677 640 588 747 q 766 336 766 533 l 766 330 l 268 330 q 312 172 268 231 q 434 114 357 114 q 523 135 484 114 q 575 201 562 157 l 755 186 q 631 38 718 90 q 425 -14 544 -14 m 425 627 q 313 580 355 627 q 269 450 272 533 l 581 450 q 535 579 576 531 q 425 627 493 627 m 671 821 l 671 802 l 564 802 l 426 893 l 423 893 l 280 802 l 172 802 l 172 821 l 347 991 l 502 991 l 671 821 z "},"ë":{"ha":833,"x_min":68,"x_max":766,"o":"m 425 -14 q 161 87 254 -14 q 68 370 68 188 q 112 576 68 492 q 236 704 155 661 q 427 747 317 747 q 677 640 588 747 q 766 336 766 533 l 766 330 l 268 330 q 312 172 268 231 q 434 114 357 114 q 523 135 484 114 q 575 201 562 157 l 755 186 q 631 38 718 90 q 425 -14 544 -14 m 425 627 q 313 580 355 627 q 269 450 272 533 l 581 450 q 535 579 576 531 q 425 627 493 627 m 489 827 l 489 975 l 643 975 l 643 827 l 489 827 m 201 827 l 201 975 l 353 975 l 353 827 l 201 827 z "},"í":{"ha":833,"x_min":80,"x_max":778,"o":"m 538 129 l 778 129 l 778 0 l 80 0 l 80 129 l 348 129 l 348 605 l 151 605 l 151 734 l 538 734 l 538 129 m 319 803 l 319 824 l 490 989 l 665 989 l 665 960 l 435 803 l 319 803 z "},"ì":{"ha":833,"x_min":80,"x_max":778,"o":"m 538 129 l 778 129 l 778 0 l 80 0 l 80 129 l 348 129 l 348 605 l 151 605 l 151 734 l 538 734 l 538 129 m 420 803 l 190 960 l 190 989 l 365 989 l 536 824 l 536 803 l 420 803 z "},"î":{"ha":833,"x_min":80,"x_max":778,"o":"m 538 129 l 778 129 l 778 0 l 80 0 l 80 129 l 348 129 l 348 605 l 151 605 l 151 734 l 538 734 l 538 129 m 673 821 l 673 802 l 566 802 l 428 893 l 425 893 l 282 802 l 174 802 l 174 821 l 349 991 l 504 991 l 673 821 z "},"ï":{"ha":833,"x_min":80,"x_max":778,"o":"m 538 129 l 778 129 l 778 0 l 80 0 l 80 129 l 348 129 l 348 605 l 151 605 l 151 734 l 538 734 l 538 129 m 511 827 l 511 975 l 665 975 l 665 827 l 511 827 m 224 827 l 224 975 l 376 975 l 376 827 l 224 827 z "},"ñ":{"ha":833,"x_min":92,"x_max":749,"o":"m 559 0 l 559 420 q 533 560 559 515 q 443 605 507 605 q 330 545 372 605 q 288 393 288 485 l 288 0 l 97 0 l 97 570 q 95 666 97 629 q 92 734 94 704 l 273 734 q 279 665 275 721 q 282 588 282 609 l 285 588 q 382 710 323 672 q 521 748 440 748 q 749 466 749 748 l 749 0 l 559 0 m 536 802 q 476 814 507 802 q 418 841 446 826 q 364 867 389 855 q 318 879 338 879 q 273 863 288 879 q 252 802 258 847 l 159 802 q 204 951 167 908 q 311 994 242 994 q 372 982 342 994 q 431 956 403 970 q 485 929 460 941 q 529 918 509 918 q 576 936 561 918 q 596 994 591 954 l 688 994 q 665 880 682 919 q 615 822 647 842 q 536 802 583 802 z "},"ó":{"ha":833,"x_min":62,"x_max":771,"o":"m 771 368 q 679 86 771 185 q 414 -14 587 -14 q 155 86 247 -14 q 62 368 62 185 q 154 648 62 549 q 418 747 245 747 q 771 368 771 747 m 572 368 q 537 557 572 498 q 420 616 503 616 q 299 557 336 616 q 262 368 262 497 q 300 177 262 237 q 412 117 338 117 q 534 176 496 117 q 572 368 572 235 m 317 803 l 317 824 l 488 989 l 663 989 l 663 960 l 433 803 l 317 803 z "},"ò":{"ha":833,"x_min":62,"x_max":771,"o":"m 771 368 q 679 86 771 185 q 414 -14 587 -14 q 155 86 247 -14 q 62 368 62 185 q 154 648 62 549 q 418 747 245 747 q 771 368 771 747 m 572 368 q 537 557 572 498 q 420 616 503 616 q 299 557 336 616 q 262 368 262 497 q 300 177 262 237 q 412 117 338 117 q 534 176 496 117 q 572 368 572 235 m 418 803 l 188 960 l 188 989 l 363 989 l 534 824 l 534 803 l 418 803 z "},"ô":{"ha":833,"x_min":62,"x_max":771,"o":"m 771 368 q 679 86 771 185 q 414 -14 587 -14 q 155 86 247 -14 q 62 368 62 185 q 154 648 62 549 q 418 747 245 747 q 771 368 771 747 m 572 368 q 537 557 572 498 q 420 616 503 616 q 299 557 336 616 q 262 368 262 497 q 300 177 262 237 q 412 117 338 117 q 534 176 496 117 q 572 368 572 235 m 667 821 l 667 802 l 559 802 l 421 893 l 418 893 l 275 802 l 167 802 l 167 821 l 342 991 l 497 991 l 667 821 z "},"ö":{"ha":833,"x_min":62,"x_max":771,"o":"m 771 368 q 679 86 771 185 q 414 -14 587 -14 q 155 86 247 -14 q 62 368 62 185 q 154 648 62 549 q 418 747 245 747 q 771 368 771 747 m 572 368 q 537 557 572 498 q 420 616 503 616 q 299 557 336 616 q 262 368 262 497 q 300 177 262 237 q 412 117 338 117 q 534 176 496 117 q 572 368 572 235 m 484 827 l 484 975 l 637 975 l 637 827 l 484 827 m 196 827 l 196 975 l 348 975 l 348 827 l 196 827 z "},"õ":{"ha":833,"x_min":62,"x_max":771,"o":"m 771 368 q 679 86 771 185 q 414 -14 587 -14 q 155 86 247 -14 q 62 368 62 185 q 154 648 62 549 q 418 747 245 747 q 771 368 771 747 m 572 368 q 537 557 572 498 q 420 616 503 616 q 299 557 336 616 q 262 368 262 497 q 300 177 262 237 q 412 117 338 117 q 534 176 496 117 q 572 368 572 235 m 530 802 q 470 814 500 802 q 411 841 439 826 q 357 867 382 855 q 311 879 332 879 q 266 863 281 879 q 245 802 251 847 l 152 802 q 198 951 160 908 q 304 994 235 994 q 366 982 335 994 q 425 956 396 970 q 478 929 453 941 q 522 918 503 918 q 569 936 554 918 q 589 994 584 954 l 681 994 q 658 880 675 919 q 608 822 640 842 q 530 802 576 802 z "},"ú":{"ha":833,"x_min":92,"x_max":735,"o":"m 282 734 l 282 322 q 312 179 282 229 q 399 129 342 129 q 499 189 460 129 q 539 340 539 249 l 539 734 l 730 734 l 730 164 q 735 0 730 71 l 553 0 q 545 146 545 98 l 542 146 q 319 -14 469 -14 q 150 57 208 -14 q 92 268 92 128 l 92 734 l 282 734 m 310 803 l 310 824 l 481 989 l 656 989 l 656 960 l 425 803 l 310 803 z "},"ù":{"ha":833,"x_min":92,"x_max":735,"o":"m 282 734 l 282 322 q 312 179 282 229 q 399 129 342 129 q 499 189 460 129 q 539 340 539 249 l 539 734 l 730 734 l 730 164 q 735 0 730 71 l 553 0 q 545 146 545 98 l 542 146 q 319 -14 469 -14 q 150 57 208 -14 q 92 268 92 128 l 92 734 l 282 734 m 402 803 l 172 960 l 172 989 l 347 989 l 517 824 l 517 803 l 402 803 z "},"û":{"ha":833,"x_min":92,"x_max":735,"o":"m 282 734 l 282 322 q 312 179 282 229 q 399 129 342 129 q 499 189 460 129 q 539 340 539 249 l 539 734 l 730 734 l 730 164 q 735 0 730 71 l 553 0 q 545 146 545 98 l 542 146 q 319 -14 469 -14 q 150 57 208 -14 q 92 268 92 128 l 92 734 l 282 734 m 667 821 l 667 802 l 559 802 l 421 893 l 418 893 l 275 802 l 167 802 l 167 821 l 342 991 l 497 991 l 667 821 z "},"ü":{"ha":833,"x_min":92,"x_max":735,"o":"m 282 734 l 282 322 q 312 179 282 229 q 399 129 342 129 q 499 189 460 129 q 539 340 539 249 l 539 734 l 730 734 l 730 164 q 735 0 730 71 l 553 0 q 545 146 545 98 l 542 146 q 319 -14 469 -14 q 150 57 208 -14 q 92 268 92 128 l 92 734 l 282 734 m 484 827 l 484 975 l 637 975 l 637 827 l 484 827 m 196 827 l 196 975 l 348 975 l 348 827 l 196 827 z "},"†":{"ha":833,"x_min":117,"x_max":716,"o":"m 484 651 l 469 -144 l 363 -144 l 349 651 l 117 633 l 117 771 l 349 751 l 330 1006 l 503 1006 l 484 751 l 716 771 l 716 633 l 484 651 z "},"°":{"ha":833,"x_min":199,"x_max":634,"o":"m 634 753 q 571 602 634 665 q 416 539 507 539 q 263 601 327 539 q 199 753 199 663 q 228 861 199 811 q 307 938 257 910 q 416 966 357 966 q 571 904 508 966 q 634 753 634 841 m 527 753 q 495 833 527 800 q 416 865 464 865 q 336 832 368 865 q 304 753 304 800 q 337 672 304 706 q 416 639 370 639 q 494 672 462 639 q 527 753 527 705 z "},"¢":{"ha":833,"x_min":66,"x_max":772,"o":"m 431 211 q 531 248 490 211 q 581 353 571 285 l 772 345 q 682 172 758 241 q 485 89 606 103 l 485 -41 l 375 -41 l 375 87 q 148 194 229 102 q 66 446 66 286 q 146 699 66 603 q 375 811 226 794 l 375 936 l 485 936 l 485 811 q 673 735 600 798 q 766 569 747 671 l 575 559 q 527 655 565 621 q 429 688 489 688 q 302 626 345 688 q 258 452 258 564 q 303 273 258 334 q 431 211 349 211 z "},"£":{"ha":833,"x_min":50,"x_max":800,"o":"m 800 246 q 708 65 779 130 q 534 0 637 0 l 57 0 l 57 139 q 152 227 126 178 q 177 347 177 276 l 177 403 l 50 403 l 50 518 l 170 518 l 170 652 q 243 859 170 789 q 459 929 315 929 q 640 882 574 929 q 735 732 705 836 l 577 700 q 535 776 563 752 q 463 800 507 800 q 374 761 401 800 q 347 637 347 722 l 347 518 l 541 518 l 541 403 l 347 403 l 347 349 q 319 229 347 279 q 223 142 291 180 l 488 142 q 594 175 558 142 q 642 273 631 209 l 800 246 z "},"§":{"ha":833,"x_min":73,"x_max":753,"o":"m 427 1007 q 638 959 558 1007 q 736 821 718 911 l 574 804 q 526 869 565 846 q 427 892 488 892 q 315 872 351 892 q 279 808 279 852 q 298 761 279 780 q 350 727 316 741 q 472 692 383 712 q 641 639 586 667 q 724 570 695 611 q 753 469 753 528 q 715 358 753 406 q 619 291 678 309 q 742 117 742 237 q 657 -56 742 4 q 414 -116 572 -116 q 181 -69 262 -116 q 73 79 99 -22 l 233 104 q 289 25 247 50 q 414 -1 330 -1 q 539 21 496 -1 q 582 98 582 43 q 566 151 582 130 q 514 186 549 171 q 354 231 479 201 q 156 317 214 264 q 98 446 98 370 q 136 553 98 509 q 243 620 173 596 q 149 692 182 646 q 115 795 115 738 q 195 951 115 896 q 427 1007 275 1007 m 591 446 q 551 520 591 494 q 393 568 511 546 q 262 465 262 553 q 281 418 262 437 q 333 385 299 399 q 459 350 367 371 q 591 446 591 357 z "},"•":{"ha":833,"x_min":218,"x_max":615,"o":"m 615 462 q 556 321 615 380 q 415 262 497 262 q 276 320 334 262 q 218 462 218 379 q 276 603 218 545 q 415 661 334 661 q 556 603 498 661 q 615 462 615 545 z "},"¶":{"ha":833,"x_min":78,"x_max":756,"o":"m 667 818 l 667 -220 l 562 -220 l 562 818 l 429 818 l 429 -220 l 324 -220 l 324 430 q 144 493 210 430 q 78 671 78 555 q 145 850 78 785 q 330 915 212 915 l 756 915 l 756 818 l 667 818 z "},"ß":{"ha":833,"x_min":87,"x_max":799,"o":"m 799 212 q 731 44 799 102 q 536 -14 663 -14 q 359 16 437 -14 l 359 155 q 438 127 393 140 q 516 115 484 115 q 596 139 571 115 q 621 201 621 162 q 595 266 621 236 q 507 338 570 296 q 392 515 392 412 q 411 584 392 552 q 468 650 429 616 q 526 714 509 686 q 543 772 543 741 q 512 842 543 816 q 420 869 480 869 q 314 826 351 869 q 277 687 277 783 l 277 0 l 87 0 l 87 683 q 173 924 87 842 q 422 1006 260 1006 q 643 945 562 1006 q 724 779 724 884 q 712 714 724 743 q 684 662 701 685 q 647 621 667 639 q 610 587 627 602 q 582 558 593 572 q 571 530 571 544 q 585 498 571 513 q 685 419 599 483 q 799 212 799 334 z "},"®":{"ha":833,"x_min":21,"x_max":812,"o":"m 812 516 q 764 251 812 362 q 626 83 715 140 q 416 26 536 26 q 207 84 296 26 q 70 252 118 142 q 21 516 21 363 q 69 780 21 669 q 207 948 117 890 q 416 1006 297 1006 q 626 949 536 1006 q 764 781 715 891 q 812 516 812 671 m 535 233 l 406 456 l 328 456 l 328 233 l 225 233 l 225 796 l 433 796 q 581 753 530 796 q 632 635 632 711 q 598 522 632 566 q 506 465 564 478 l 654 233 l 535 233 m 530 634 q 410 720 530 720 l 328 720 l 328 530 l 418 530 q 501 557 473 530 q 530 634 530 583 m 726 516 q 645 820 726 711 q 416 928 564 928 q 190 820 271 928 q 109 516 109 711 q 190 211 109 319 q 416 104 271 104 q 645 211 564 104 q 726 516 726 319 z "},"©":{"ha":833,"x_min":21,"x_max":812,"o":"m 426 226 q 249 303 312 226 q 186 517 186 380 q 247 730 186 654 q 421 805 307 805 q 627 663 568 805 l 533 634 q 422 720 500 720 q 324 668 358 720 q 290 517 290 616 q 327 366 290 421 q 426 310 363 310 q 542 414 503 310 l 629 386 q 552 268 604 309 q 426 226 499 226 m 812 516 q 764 251 812 362 q 626 83 715 140 q 416 26 536 26 q 207 84 296 26 q 70 252 118 142 q 21 516 21 363 q 69 780 21 669 q 207 948 117 890 q 416 1006 297 1006 q 626 949 536 1006 q 764 781 715 891 q 812 516 812 671 m 726 516 q 645 820 726 711 q 416 928 564 928 q 190 820 271 928 q 109 516 109 711 q 190 211 109 319 q 416 104 271 104 q 645 211 564 104 q 726 516 726 319 z "},"™":{"ha":833,"x_min":0,"x_max":818,"o":"m 214 916 l 214 571 l 107 571 l 107 916 l 0 916 l 0 1006 l 323 1006 l 323 916 l 214 916 m 586 708 q 595 745 587 719 q 694 1006 604 772 l 818 1006 l 818 571 l 726 571 l 726 810 l 728 870 l 711 810 l 618 571 l 553 571 l 460 810 l 443 869 l 445 810 l 445 571 l 353 571 l 353 1006 l 477 1006 l 574 753 q 586 708 583 729 z "},"´":{"ha":833,"x_min":249,"x_max":595,"o":"m 249 803 l 249 824 l 420 989 l 595 989 l 595 960 l 364 803 l 249 803 z "},"¨":{"ha":833,"x_min":196,"x_max":637,"o":"m 484 827 l 484 975 l 637 975 l 637 827 l 484 827 m 196 827 l 196 975 l 348 975 l 348 827 l 196 827 z "},"≠":{"ha":833,"x_min":62,"x_max":772,"o":"m 348 197 l 260 25 l 116 25 l 203 197 l 62 197 l 62 347 l 277 347 l 389 571 l 62 571 l 62 722 l 463 722 l 553 897 l 696 897 l 608 722 l 772 722 l 772 571 l 534 571 l 421 347 l 772 347 l 772 197 l 348 197 z "},"Æ":{"ha":833,"x_min":0,"x_max":824,"o":"m 418 262 l 246 262 l 177 0 l 0 0 l 252 915 l 798 915 l 798 778 l 588 778 l 588 537 l 789 537 l 789 401 l 588 401 l 588 137 l 824 137 l 824 0 l 418 0 l 418 262 m 418 781 l 378 781 l 347 646 l 281 397 l 418 397 l 418 781 z "},"Ø":{"ha":833,"x_min":31,"x_max":800,"o":"m 785 460 q 690 106 785 227 q 417 -14 595 -14 q 180 67 271 -14 l 109 -29 l 31 22 l 120 141 q 49 460 49 260 q 144 812 49 694 q 417 929 239 929 q 651 851 561 929 l 723 947 l 800 897 l 712 779 q 785 460 785 661 m 582 460 q 572 591 582 534 l 296 221 q 417 144 338 144 q 541 224 499 144 q 582 460 582 304 m 252 460 q 261 330 252 380 l 537 699 q 417 772 496 772 q 252 460 252 772 z "},"∞":{"ha":833,"x_min":13,"x_max":821,"o":"m 821 395 q 766 207 821 281 q 624 133 712 133 q 511 171 558 133 q 416 302 465 209 q 350 204 378 235 q 287 156 321 173 q 211 140 252 140 q 67 211 121 140 q 13 405 13 281 q 67 594 13 521 q 211 667 121 667 q 320 628 273 667 q 416 492 368 588 q 484 595 456 563 q 544 644 512 627 q 616 661 576 661 q 767 590 713 661 q 821 395 821 518 m 608 544 q 469 397 538 544 q 533 289 501 328 q 607 250 565 250 q 669 291 646 250 q 692 397 692 332 q 669 505 692 466 q 608 544 646 544 m 363 404 q 295 521 323 490 q 232 551 266 551 q 166 509 191 551 q 142 404 142 467 q 166 297 142 336 q 233 258 191 258 q 298 294 267 258 q 363 404 329 331 z "},"±":{"ha":833,"x_min":68,"x_max":765,"o":"m 492 479 l 492 248 l 340 248 l 340 479 l 68 479 l 68 631 l 340 631 l 340 861 l 492 861 l 492 631 l 765 631 l 765 479 l 492 479 m 68 0 l 68 151 l 765 151 l 765 0 l 68 0 z "},"≤":{"ha":833,"x_min":62,"x_max":758,"o":"m 62 428 l 62 646 l 758 880 l 758 726 l 193 536 l 758 347 l 758 193 l 62 428 m 62 0 l 62 151 l 756 151 l 756 0 l 62 0 z "},"≥":{"ha":833,"x_min":75,"x_max":771,"o":"m 75 193 l 75 347 l 640 536 l 75 726 l 75 880 l 771 646 l 771 428 l 75 193 m 77 0 l 77 151 l 771 151 l 771 0 l 77 0 z "},"¥":{"ha":833,"x_min":22,"x_max":810,"o":"m 550 469 l 737 469 l 737 370 l 508 370 l 508 260 l 737 260 l 737 160 l 508 160 l 508 0 l 323 0 l 323 160 l 96 160 l 96 260 l 323 260 l 323 370 l 96 370 l 96 469 l 283 469 l 22 915 l 218 915 l 415 551 l 614 915 l 810 915 l 550 469 z "},"µ":{"ha":833,"x_min":87,"x_max":747,"o":"m 566 0 q 563 23 565 8 q 560 56 562 38 q 558 92 559 74 q 557 125 557 111 l 555 125 q 388 -14 502 -14 q 323 3 353 -14 q 278 47 294 19 l 275 47 q 278 -31 278 18 l 278 -282 l 87 -282 l 87 734 l 278 734 l 278 323 q 403 131 278 131 q 510 188 469 131 q 551 342 551 244 l 551 734 l 742 734 l 742 164 q 747 0 742 76 l 566 0 z "},"∂":{"ha":833,"x_min":52,"x_max":771,"o":"m 771 635 q 751 443 771 549 q 693 250 732 337 q 600 103 654 162 q 475 13 545 44 q 321 -18 406 -18 q 122 51 193 -18 q 52 245 52 119 q 80 409 52 325 q 154 553 107 492 q 264 647 201 614 q 405 680 328 680 q 529 649 475 680 q 608 568 583 618 l 612 568 q 617 638 617 621 q 567 811 617 751 q 416 871 516 871 q 319 854 370 871 q 233 811 269 837 l 264 952 q 448 1002 340 1002 q 687 907 604 1002 q 771 635 771 813 m 583 450 q 529 533 570 500 q 435 566 488 566 q 325 525 375 566 q 244 405 275 484 q 213 248 213 326 q 245 150 213 185 q 336 114 277 114 q 491 208 423 114 q 583 450 559 302 z "},"∑":{"ha":833,"x_min":15,"x_max":825,"o":"m 15 -309 l 15 -200 l 426 306 l 28 812 l 28 915 l 786 915 l 786 761 l 280 761 l 638 309 l 267 -154 l 825 -154 l 825 -309 l 15 -309 z "},"∏":{"ha":833,"x_min":71,"x_max":762,"o":"m 570 -309 l 570 749 l 271 749 l 271 -309 l 71 -309 l 71 915 l 762 915 l 762 -309 l 570 -309 z "},"∫":{"ha":833,"x_min":135,"x_max":699,"o":"m 240 -309 q 180 -304 211 -309 q 135 -294 149 -299 l 135 -147 q 216 -164 180 -164 q 321 -31 321 -164 l 321 764 q 393 954 321 886 q 593 1022 465 1022 q 699 1009 653 1022 l 699 861 q 618 878 665 878 q 538 843 566 878 q 511 745 511 809 l 511 -50 q 440 -241 511 -174 q 240 -309 368 -309 z "},"ª":{"ha":833,"x_min":137,"x_max":692,"o":"m 302 436 q 181 477 226 436 q 137 593 137 519 q 193 714 137 672 q 358 758 248 757 l 473 760 l 473 792 q 392 885 473 885 q 330 867 351 885 q 304 812 309 849 l 156 819 q 231 936 170 895 q 391 977 293 977 q 555 931 496 977 q 614 794 614 884 l 614 609 q 622 553 614 572 q 654 534 629 534 l 692 537 l 692 452 q 600 438 647 438 q 513 467 545 438 q 477 543 481 495 l 475 543 q 302 436 419 436 m 357 538 q 439 575 405 538 q 473 664 473 612 l 473 685 l 401 683 q 308 662 332 681 q 284 604 284 644 q 357 538 284 538 z "},"º":{"ha":833,"x_min":154,"x_max":680,"o":"m 680 707 q 609 509 680 581 q 414 436 538 436 q 223 509 292 436 q 154 707 154 582 q 223 906 154 834 q 417 977 293 977 q 612 907 543 977 q 680 707 680 838 m 524 707 q 500 827 524 789 q 418 866 477 866 q 335 827 361 866 q 309 707 309 788 q 413 545 309 545 q 498 585 472 545 q 524 707 524 624 z "},"Ω":{"ha":833,"x_min":34,"x_max":799,"o":"m 416 775 q 287 705 335 775 q 239 511 239 635 q 268 351 239 420 q 370 206 298 281 l 370 0 l 34 0 l 34 155 l 113 155 q 231 147 156 155 q 46 541 46 294 q 94 744 46 656 q 228 881 142 833 q 416 929 313 929 q 605 881 519 929 q 739 744 690 833 q 787 541 787 655 q 602 147 787 294 q 723 155 680 155 l 799 155 l 799 0 l 463 0 l 463 206 q 565 350 535 281 q 594 511 594 419 q 546 705 594 635 q 416 775 498 775 z "},"æ":{"ha":833,"x_min":14,"x_max":819,"o":"m 474 328 l 474 327 q 504 167 474 226 q 586 109 534 109 q 648 134 627 109 q 681 204 670 160 l 802 174 q 722 33 777 79 q 589 -14 667 -14 q 466 24 511 -14 q 397 144 420 61 q 310 25 363 64 q 189 -14 256 -14 q 59 45 105 -14 q 14 205 14 104 q 69 384 14 321 q 237 448 125 446 l 337 450 l 337 488 q 317 587 337 551 q 258 624 296 624 q 208 599 225 624 q 185 524 191 574 l 44 536 q 258 747 71 747 q 425 653 377 747 q 592 747 483 747 q 762 651 705 747 q 819 357 819 555 l 819 328 l 474 328 m 155 203 q 169 135 155 159 q 209 110 183 110 q 299 168 262 110 q 337 302 337 227 l 337 338 l 268 336 q 180 303 205 334 q 155 203 155 271 m 583 627 q 531 605 555 627 q 492 543 507 583 q 475 448 477 503 l 680 448 q 651 582 674 538 q 583 627 627 627 z "},"ø":{"ha":833,"x_min":62,"x_max":771,"o":"m 771 368 q 679 86 771 185 q 414 -14 587 -14 q 191 52 278 -14 l 134 -14 l 68 39 l 133 112 q 62 368 62 209 q 154 648 62 549 q 418 747 245 747 q 641 688 557 747 l 694 749 l 761 696 l 702 629 q 771 368 771 534 m 572 368 q 564 473 572 424 l 300 176 q 412 117 338 117 q 534 176 496 117 q 572 368 572 235 m 262 368 q 269 267 262 311 l 532 564 q 420 616 496 616 q 299 557 336 616 q 262 368 262 497 z "},"¿":{"ha":833,"x_min":84,"x_max":789,"o":"m 84 65 q 99 146 84 109 q 143 215 115 182 q 276 321 172 247 q 369 458 366 387 l 550 458 q 511 334 546 389 q 408 233 475 279 q 304 147 332 180 q 276 73 276 113 q 317 -11 276 21 q 426 -42 359 -42 q 541 -2 494 -42 q 595 104 587 38 l 789 96 q 675 -119 770 -43 q 429 -195 580 -195 q 178 -125 271 -195 q 84 65 84 -54 m 555 734 l 555 551 l 359 551 l 359 734 l 555 734 z "},"¡":{"ha":833,"x_min":317,"x_max":517,"o":"m 339 443 l 495 443 l 517 -183 l 317 -183 l 339 443 m 517 732 l 517 549 l 321 549 l 321 732 l 517 732 z "},"¬":{"ha":833,"x_min":57,"x_max":753,"o":"m 602 96 l 602 386 l 57 386 l 57 538 l 753 538 l 753 96 l 602 96 z "},"√":{"ha":833,"x_min":41,"x_max":806,"o":"m 463 -17 l 349 -17 l 165 494 l 41 494 l 41 607 l 252 607 l 400 176 l 680 1099 l 806 1099 l 463 -17 z "},"ƒ":{"ha":833,"x_min":120,"x_max":755,"o":"m 723 785 q 672 796 705 791 q 618 800 640 800 q 540 782 564 800 q 507 714 516 764 l 493 642 l 698 642 l 673 513 l 468 513 l 311 -288 l 120 -288 l 277 513 l 136 513 l 161 642 l 302 642 l 321 733 q 406 882 339 835 q 591 929 472 929 q 689 921 640 929 q 755 905 738 912 l 723 785 z "},"≈":{"ha":833,"x_min":64,"x_max":768,"o":"m 587 513 q 487 527 536 513 q 387 558 438 541 q 237 590 298 590 q 152 577 192 590 q 64 530 112 564 l 64 675 q 248 732 139 732 q 326 723 284 732 q 465 682 368 715 q 600 653 547 653 q 768 715 691 653 l 768 567 q 685 525 726 536 q 587 513 644 513 m 587 186 q 487 201 536 186 q 387 233 438 216 q 237 264 300 264 q 149 249 189 264 q 64 204 109 235 l 64 349 q 248 406 141 406 q 359 390 304 406 q 465 357 413 374 q 557 331 534 335 q 600 326 581 326 q 768 389 691 326 l 768 240 q 685 198 725 210 q 587 186 646 186 z "},"∆":{"ha":833,"x_min":12,"x_max":822,"o":"m 12 153 l 302 915 l 536 915 l 822 153 l 822 0 l 12 0 l 12 153 m 623 165 l 471 585 q 424 760 441 678 l 418 786 q 398 706 417 779 q 364 583 380 633 l 215 165 l 623 165 z "},"«":{"ha":833,"x_min":90,"x_max":744,"o":"m 581 96 l 408 340 l 408 389 l 581 637 l 743 637 l 743 612 l 570 364 l 744 119 l 744 96 l 581 96 m 264 96 l 90 340 l 90 389 l 264 637 l 425 637 l 425 612 l 252 364 l 426 119 l 426 96 l 264 96 z "},"»":{"ha":833,"x_min":90,"x_max":744,"o":"m 90 96 l 90 119 l 263 364 l 91 612 l 91 637 l 252 637 l 426 389 l 426 340 l 252 96 l 90 96 m 408 96 l 408 119 l 581 364 l 409 612 l 409 637 l 569 637 l 744 389 l 744 340 l 569 96 l 408 96 z "},"…":{"ha":833,"x_min":40,"x_max":800,"o":"m 625 0 l 625 207 l 800 207 l 800 0 l 625 0 m 333 0 l 333 207 l 507 207 l 507 0 l 333 0 m 40 0 l 40 207 l 215 207 l 215 0 l 40 0 z "},"À":{"ha":833,"x_min":0,"x_max":833,"o":"m 833 0 l 634 0 l 572 224 l 262 224 l 200 0 l 0 0 l 300 915 l 534 915 l 833 0 m 417 791 q 397 706 412 763 q 304 374 382 650 l 530 374 q 436 709 450 654 q 417 791 422 764 m 403 968 l 172 1124 l 172 1154 l 347 1154 l 518 989 l 518 968 l 403 968 z "},"Ã":{"ha":833,"x_min":0,"x_max":833,"o":"m 833 0 l 634 0 l 572 224 l 262 224 l 200 0 l 0 0 l 300 915 l 534 915 l 833 0 m 417 791 q 397 706 412 763 q 304 374 382 650 l 530 374 q 436 709 450 654 q 417 791 422 764 m 530 964 q 470 976 500 964 q 411 1003 439 988 q 357 1029 382 1017 q 311 1041 332 1041 q 266 1025 281 1041 q 245 964 251 1009 l 152 964 q 198 1113 160 1070 q 304 1156 235 1156 q 366 1144 335 1156 q 425 1118 396 1133 q 478 1092 453 1103 q 522 1080 503 1080 q 569 1098 554 1080 q 589 1156 584 1116 l 681 1156 q 658 1042 675 1081 q 608 984 640 1004 q 530 964 576 964 z "},"Õ":{"ha":833,"x_min":49,"x_max":785,"o":"m 785 460 q 690 106 785 227 q 417 -14 595 -14 q 144 106 239 -14 q 49 460 49 227 q 144 812 49 694 q 417 929 239 929 q 690 812 595 929 q 785 460 785 694 m 582 460 q 417 772 582 772 q 252 460 252 772 q 293 224 252 304 q 417 144 335 144 q 541 224 499 144 q 582 460 582 304 m 530 964 q 470 976 500 964 q 411 1003 439 988 q 357 1029 382 1017 q 311 1041 332 1041 q 266 1025 281 1041 q 245 964 251 1009 l 152 964 q 198 1113 160 1070 q 304 1156 235 1156 q 366 1144 335 1156 q 425 1118 396 1133 q 478 1092 453 1103 q 522 1080 503 1080 q 569 1098 554 1080 q 589 1156 584 1116 l 681 1156 q 658 1042 675 1081 q 608 984 640 1004 q 530 964 576 964 z "},"Œ":{"ha":833,"x_min":20,"x_max":821,"o":"m 406 0 l 353 -3 q 100 111 180 -3 q 20 462 20 226 q 101 809 20 699 q 355 919 181 919 q 415 915 380 919 l 793 915 l 793 778 l 581 778 l 581 537 l 776 537 l 776 401 l 581 401 l 581 137 l 821 137 l 821 0 l 406 0 m 354 129 q 411 133 392 129 l 411 782 q 355 786 385 786 q 234 708 271 786 q 198 462 198 630 q 236 211 198 292 q 354 129 275 129 z "},"œ":{"ha":833,"x_min":19,"x_max":817,"o":"m 496 328 q 523 172 496 229 q 597 115 549 115 q 649 138 631 115 q 676 204 667 160 l 797 174 q 722 33 774 79 q 598 -14 671 -14 q 420 111 475 -14 q 239 -14 363 -14 q 76 84 133 -14 q 19 368 19 182 q 77 652 19 557 q 244 747 134 747 q 425 627 371 747 q 600 747 482 747 q 817 357 817 747 l 817 328 l 496 328 m 355 368 q 330 558 355 496 q 253 620 306 620 q 182 557 203 620 q 161 368 161 494 q 182 177 161 240 q 249 114 203 114 q 330 179 304 114 q 355 368 355 244 m 593 620 q 498 448 502 620 l 677 448 q 653 581 671 543 q 593 620 635 620 z "},"–":{"ha":833,"x_min":110,"x_max":723,"o":"m 110 283 l 110 421 l 723 421 l 723 283 l 110 283 z "},"—":{"ha":833,"x_min":-7,"x_max":840,"o":"m -7 283 l -7 421 l 840 421 l 840 283 l -7 283 z "},"“":{"ha":833,"x_min":93,"x_max":739,"o":"m 428 1006 l 313 585 l 93 585 l 304 1006 l 428 1006 m 739 1006 l 625 585 l 404 585 l 615 1006 l 739 1006 z "},"”":{"ha":833,"x_min":94,"x_max":740,"o":"m 405 585 l 519 1006 l 740 1006 l 529 585 l 405 585 m 94 585 l 208 1006 l 429 1006 l 218 585 l 94 585 z "},"‘":{"ha":833,"x_min":249,"x_max":584,"o":"m 584 1006 l 469 585 l 249 585 l 460 1006 l 584 1006 z "},"’":{"ha":833,"x_min":250,"x_max":585,"o":"m 250 585 l 365 1006 l 585 1006 l 374 585 l 250 585 z "},"÷":{"ha":833,"x_min":68,"x_max":765,"o":"m 335 652 l 335 810 l 496 810 l 496 652 l 335 652 m 68 386 l 68 538 l 765 538 l 765 386 l 68 386 m 335 115 l 335 273 l 496 273 l 496 115 l 335 115 z "},"◊":{"ha":833,"x_min":75,"x_max":759,"o":"m 451 0 l 380 0 l 75 489 l 380 981 l 451 981 l 759 490 l 451 0 m 416 817 l 220 490 l 416 155 l 612 490 l 416 817 z "},"ÿ":{"ha":833,"x_min":26,"x_max":807,"o":"m 220 -288 q 97 -279 149 -288 l 97 -144 l 132 -147 l 166 -149 q 234 -136 207 -149 q 282 -94 260 -123 q 330 7 303 -64 l 26 734 l 227 734 l 356 376 q 425 150 383 302 l 431 175 l 486 374 l 608 734 l 807 734 l 503 -39 q 385 -233 449 -178 q 220 -288 320 -288 m 487 827 l 487 975 l 641 975 l 641 827 l 487 827 m 199 827 l 199 975 l 351 975 l 351 827 l 199 827 z "},"Ÿ":{"ha":833,"x_min":2,"x_max":831,"o":"m 516 377 l 516 0 l 317 0 l 317 377 l 2 915 l 212 915 l 415 531 l 621 915 l 831 915 l 516 377 m 484 980 l 484 1128 l 637 1128 l 637 980 l 484 980 m 196 980 l 196 1128 l 348 1128 l 348 980 l 196 980 z "},"⁄":{"ha":833,"x_min":113,"x_max":723,"o":"m 223 0 l 113 0 l 614 915 l 723 915 l 223 0 z "},"€":{"ha":833,"x_min":48,"x_max":799,"o":"m 606 314 l 353 314 q 414 188 371 232 q 522 143 456 143 q 620 164 575 143 q 710 221 664 184 l 799 96 q 669 14 739 41 q 507 -14 598 -14 q 267 71 361 -14 q 149 312 174 155 l 48 312 l 48 410 l 137 410 q 135 460 135 457 l 137 514 l 48 514 l 48 610 l 148 610 q 265 846 172 763 q 508 929 357 929 q 787 833 674 929 l 699 696 q 612 751 657 729 q 515 772 568 772 q 412 730 452 772 q 355 609 371 688 l 606 609 l 606 513 l 340 513 q 338 460 338 499 q 340 410 338 432 l 606 410 l 606 314 z "},"‹":{"ha":833,"x_min":241,"x_max":578,"o":"m 416 96 l 241 340 l 241 389 l 416 637 l 576 637 l 576 612 l 404 364 l 578 119 l 578 96 l 416 96 z "},"›":{"ha":833,"x_min":255,"x_max":591,"o":"m 255 96 l 255 119 l 429 364 l 256 612 l 256 637 l 416 637 l 591 389 l 591 340 l 416 96 l 255 96 z "},"ﬁ":{"ha":833,"x_min":18,"x_max":739,"o":"m 307 605 l 307 0 l 117 0 l 117 605 l 18 605 l 18 734 l 117 734 l 117 810 q 175 971 117 916 q 336 1027 233 1027 q 476 1008 406 1027 l 476 883 q 378 896 420 896 q 324 872 340 896 q 307 793 307 849 l 307 734 l 458 734 l 458 605 l 307 605 m 739 0 l 548 0 l 548 734 l 739 734 l 739 0 m 548 866 l 548 1006 l 739 1006 l 739 866 l 548 866 z "},"ﬂ":{"ha":833,"x_min":18,"x_max":739,"o":"m 307 605 l 307 0 l 117 0 l 117 605 l 18 605 l 18 734 l 117 734 l 117 810 q 175 971 117 916 q 336 1027 233 1027 q 476 1008 406 1027 l 476 883 q 378 896 420 896 q 324 872 340 896 q 307 793 307 849 l 307 734 l 458 734 l 458 605 l 307 605 m 548 0 l 548 1006 l 739 1006 l 739 0 l 548 0 z "},"‡":{"ha":833,"x_min":117,"x_max":717,"o":"m 348 665 l 117 646 l 117 785 l 348 765 l 337 1006 l 483 1006 l 472 765 l 717 785 l 717 646 l 472 665 l 454 431 l 472 199 l 716 217 l 716 79 l 472 98 l 483 -143 l 337 -143 l 348 98 l 117 79 l 117 217 l 348 199 l 366 431 l 348 665 z "},"∙":{"ha":833,"x_min":319,"x_max":514,"o":"m 319 283 l 319 490 l 514 490 l 514 283 l 319 283 z "},"‚":{"ha":833,"x_min":216,"x_max":551,"o":"m 216 -246 l 331 176 l 551 176 l 340 -246 l 216 -246 z "},"„":{"ha":833,"x_min":94,"x_max":740,"o":"m 405 -247 l 519 175 l 740 175 l 529 -247 l 405 -247 m 94 -247 l 208 175 l 429 175 l 218 -247 l 94 -247 z "},"‰":{"ha":833,"x_min":0,"x_max":833,"o":"m 111 291 l 3 291 l 410 697 l 520 697 l 111 291 m 160 957 q 277 906 239 957 q 315 756 315 856 q 274 604 315 655 q 157 552 234 552 q 39 604 79 552 q 0 756 0 656 q 39 907 0 857 q 160 957 77 957 m 213 756 q 201 845 213 821 q 159 870 190 870 q 115 841 128 870 q 102 756 102 812 q 115 672 102 701 q 159 642 128 642 q 199 672 186 642 q 213 756 213 702 m 336 405 q 453 354 415 405 q 490 204 490 304 q 450 52 490 103 q 333 0 410 0 q 215 52 254 0 q 176 204 176 104 q 214 355 176 304 q 336 405 253 405 m 389 204 q 377 293 389 269 q 335 318 366 318 q 291 289 304 318 q 277 204 277 260 q 291 120 277 149 q 334 90 304 90 q 375 120 361 90 q 389 204 389 150 m 678 405 q 795 354 758 405 q 833 204 833 304 q 792 52 833 103 q 675 0 752 0 q 557 52 597 0 q 518 204 518 104 q 557 355 518 304 q 678 405 595 405 m 731 204 q 720 293 731 269 q 677 318 708 318 q 633 289 646 318 q 620 204 620 260 q 633 120 620 149 q 677 90 646 90 q 718 120 704 90 q 731 204 731 150 z "},"Â":{"ha":833,"x_min":0,"x_max":833,"o":"m 833 0 l 634 0 l 572 224 l 262 224 l 200 0 l 0 0 l 300 915 l 534 915 l 833 0 m 417 791 q 397 706 412 763 q 304 374 382 650 l 530 374 q 436 709 450 654 q 417 791 422 764 m 667 987 l 667 968 l 559 968 l 421 1059 l 418 1059 l 275 968 l 167 968 l 167 987 l 342 1156 l 497 1156 l 667 987 z "},"Ê":{"ha":833,"x_min":93,"x_max":777,"o":"m 93 0 l 93 915 l 749 915 l 749 760 l 293 760 l 293 541 l 708 541 l 708 386 l 293 386 l 293 155 l 777 155 l 777 0 l 93 0 m 667 987 l 667 968 l 559 968 l 421 1059 l 418 1059 l 275 968 l 167 968 l 167 987 l 342 1156 l 497 1156 l 667 987 z "},"Á":{"ha":833,"x_min":0,"x_max":833,"o":"m 833 0 l 634 0 l 572 224 l 262 224 l 200 0 l 0 0 l 300 915 l 534 915 l 833 0 m 417 791 q 397 706 412 763 q 304 374 382 650 l 530 374 q 436 709 450 654 q 417 791 422 764 m 312 968 l 312 989 l 483 1154 l 658 1154 l 658 1125 l 427 968 l 312 968 z "},"Ë":{"ha":833,"x_min":93,"x_max":777,"o":"m 93 0 l 93 915 l 749 915 l 749 760 l 293 760 l 293 541 l 708 541 l 708 386 l 293 386 l 293 155 l 777 155 l 777 0 l 93 0 m 497 980 l 497 1128 l 651 1128 l 651 980 l 497 980 m 210 980 l 210 1128 l 361 1128 l 361 980 l 210 980 z "},"È":{"ha":833,"x_min":93,"x_max":777,"o":"m 93 0 l 93 915 l 749 915 l 749 760 l 293 760 l 293 541 l 708 541 l 708 386 l 293 386 l 293 155 l 777 155 l 777 0 l 93 0 m 418 968 l 187 1125 l 187 1154 l 362 1154 l 533 989 l 533 968 l 418 968 z "},"Í":{"ha":833,"x_min":106,"x_max":728,"o":"m 106 915 l 728 915 l 728 760 l 517 760 l 517 155 l 728 155 l 728 0 l 106 0 l 106 155 l 317 155 l 317 760 l 106 760 l 106 915 m 319 968 l 319 989 l 490 1154 l 665 1154 l 665 1125 l 434 968 l 319 968 z "},"Î":{"ha":833,"x_min":106,"x_max":728,"o":"m 106 915 l 728 915 l 728 760 l 517 760 l 517 155 l 728 155 l 728 0 l 106 0 l 106 155 l 317 155 l 317 760 l 106 760 l 106 915 m 667 987 l 667 968 l 559 968 l 421 1059 l 418 1059 l 275 968 l 167 968 l 167 987 l 342 1156 l 497 1156 l 667 987 z "},"Ï":{"ha":833,"x_min":106,"x_max":728,"o":"m 106 915 l 728 915 l 728 760 l 517 760 l 517 155 l 728 155 l 728 0 l 106 0 l 106 155 l 317 155 l 317 760 l 106 760 l 106 915 m 484 980 l 484 1128 l 637 1128 l 637 980 l 484 980 m 196 980 l 196 1128 l 348 1128 l 348 980 l 196 980 z "},"Ì":{"ha":833,"x_min":106,"x_max":728,"o":"m 106 915 l 728 915 l 728 760 l 517 760 l 517 155 l 728 155 l 728 0 l 106 0 l 106 155 l 317 155 l 317 760 l 106 760 l 106 915 m 411 968 l 180 1125 l 180 1154 l 355 1154 l 526 989 l 526 968 l 411 968 z "},"Ó":{"ha":833,"x_min":49,"x_max":785,"o":"m 785 460 q 690 106 785 227 q 417 -14 595 -14 q 144 106 239 -14 q 49 460 49 227 q 144 812 49 694 q 417 929 239 929 q 690 812 595 929 q 785 460 785 694 m 582 460 q 417 772 582 772 q 252 460 252 772 q 293 224 252 304 q 417 144 335 144 q 541 224 499 144 q 582 460 582 304 m 315 968 l 315 989 l 486 1154 l 661 1154 l 661 1125 l 431 968 l 315 968 z "},"Ô":{"ha":833,"x_min":49,"x_max":785,"o":"m 785 460 q 690 106 785 227 q 417 -14 595 -14 q 144 106 239 -14 q 49 460 49 227 q 144 812 49 694 q 417 929 239 929 q 690 812 595 929 q 785 460 785 694 m 582 460 q 417 772 582 772 q 252 460 252 772 q 293 224 252 304 q 417 144 335 144 q 541 224 499 144 q 582 460 582 304 m 667 987 l 667 968 l 559 968 l 421 1059 l 418 1059 l 275 968 l 167 968 l 167 987 l 342 1156 l 497 1156 l 667 987 z "},"Ò":{"ha":833,"x_min":49,"x_max":785,"o":"m 785 460 q 690 106 785 227 q 417 -14 595 -14 q 144 106 239 -14 q 49 460 49 227 q 144 812 49 694 q 417 929 239 929 q 690 812 595 929 q 785 460 785 694 m 582 460 q 417 772 582 772 q 252 460 252 772 q 293 224 252 304 q 417 144 335 144 q 541 224 499 144 q 582 460 582 304 m 408 968 l 177 1125 l 177 1154 l 352 1154 l 523 989 l 523 968 l 408 968 z "},"Ú":{"ha":833,"x_min":87,"x_max":746,"o":"m 406 -14 q 163 77 239 -14 q 87 358 87 168 l 87 915 l 288 915 l 288 360 q 315 192 288 241 q 412 143 342 143 q 514 195 482 143 q 546 367 546 248 l 546 915 l 746 915 l 746 368 q 662 80 746 174 q 406 -14 578 -14 m 307 968 l 307 989 l 478 1154 l 653 1154 l 653 1125 l 422 968 l 307 968 z "},"Û":{"ha":833,"x_min":87,"x_max":746,"o":"m 406 -14 q 163 77 239 -14 q 87 358 87 168 l 87 915 l 288 915 l 288 360 q 315 192 288 241 q 412 143 342 143 q 514 195 482 143 q 546 367 546 248 l 546 915 l 746 915 l 746 368 q 662 80 746 174 q 406 -14 578 -14 m 667 987 l 667 968 l 559 968 l 421 1059 l 418 1059 l 275 968 l 167 968 l 167 987 l 342 1156 l 497 1156 l 667 987 z "},"Ù":{"ha":833,"x_min":87,"x_max":746,"o":"m 406 -14 q 163 77 239 -14 q 87 358 87 168 l 87 915 l 288 915 l 288 360 q 315 192 288 241 q 412 143 342 143 q 514 195 482 143 q 546 367 546 248 l 546 915 l 746 915 l 746 368 q 662 80 746 174 q 406 -14 578 -14 m 400 968 l 170 1125 l 170 1154 l 345 1154 l 515 989 l 515 968 l 400 968 z "},"ı":{"ha":833,"x_min":80,"x_max":778,"o":"m 538 129 l 778 129 l 778 0 l 80 0 l 80 129 l 348 129 l 348 605 l 151 605 l 151 734 l 538 734 l 538 129 z "},"ˆ":{"ha":833,"x_min":167,"x_max":667,"o":"m 667 821 l 667 802 l 559 802 l 421 893 l 418 893 l 275 802 l 167 802 l 167 821 l 342 991 l 497 991 l 667 821 z "},"˜":{"ha":833,"x_min":152,"x_max":681,"o":"m 530 802 q 470 814 500 802 q 411 841 439 826 q 357 867 382 855 q 311 879 332 879 q 266 863 281 879 q 245 802 251 847 l 152 802 q 198 951 160 908 q 304 994 235 994 q 366 982 335 994 q 425 956 396 970 q 478 929 453 941 q 522 918 503 918 q 569 936 554 918 q 589 994 584 954 l 681 994 q 658 880 675 919 q 608 822 640 842 q 530 802 576 802 z "},"ˉ":{"ha":833,"x_min":209,"x_max":624,"o":"m 209 930 l 624 930 l 624 816 l 209 816 l 209 930 z "},"˘":{"ha":833,"x_min":176,"x_max":656,"o":"m 415 802 q 245 851 306 802 q 176 991 184 901 l 287 991 q 416 909 297 909 q 506 928 476 909 q 545 991 536 948 l 656 991 q 415 802 633 802 z "},"˙":{"ha":833,"x_min":321,"x_max":512,"o":"m 321 859 l 321 1000 l 512 1000 l 512 859 l 321 859 z "},"˚":{"ha":833,"x_min":252,"x_max":581,"o":"m 581 914 q 536 817 581 855 q 416 779 492 779 q 296 817 340 779 q 252 914 252 855 q 297 1012 252 975 q 416 1049 342 1049 q 536 1011 492 1049 q 581 914 581 974 m 486 914 q 467 949 486 936 q 416 962 448 962 q 366 949 385 962 q 346 914 346 937 q 366 879 346 892 q 416 866 385 866 q 467 879 448 866 q 486 914 486 892 z "},"¸":{"ha":833,"x_min":60,"x_max":334,"o":"m 334 -173 q 281 -269 334 -237 q 129 -302 229 -302 q 60 -298 98 -302 l 60 -218 q 117 -222 84 -222 q 210 -176 210 -222 q 191 -140 210 -152 q 127 -129 172 -129 q 92 -130 102 -129 l 139 0 l 236 0 l 209 -69 q 303 -100 273 -73 q 334 -173 334 -128 z "},"˝":{"ha":833,"x_min":0,"x_max":587,"o":"m 96 802 l 0 802 l 0 825 l 153 991 l 312 991 l 312 962 l 96 802 m 372 802 l 275 802 l 275 825 l 428 991 l 587 991 l 587 962 l 372 802 z "},"˛":{"ha":833,"x_min":285,"x_max":548,"o":"m 446 -288 q 328 -252 370 -288 q 285 -153 285 -215 q 314 -56 285 -102 q 392 14 344 -11 l 496 14 q 431 -53 453 -14 q 408 -128 408 -92 q 425 -174 408 -157 q 472 -191 441 -191 q 548 -173 509 -191 l 548 -266 q 446 -288 505 -288 z "},"ˇ":{"ha":833,"x_min":167,"x_max":667,"o":"m 497 802 l 342 802 l 167 971 l 167 991 l 275 991 l 418 900 l 421 900 l 559 991 l 667 991 l 667 971 l 497 802 z "},"Ł":{"ha":833,"x_min":0,"x_max":768,"o":"m 150 446 l 150 915 l 350 915 l 350 549 l 517 636 l 579 513 l 350 393 l 350 155 l 768 155 l 768 0 l 150 0 l 150 289 l 66 245 l 0 368 l 150 446 z "},"ł":{"ha":833,"x_min":80,"x_max":778,"o":"m 538 644 l 682 726 l 738 621 l 538 507 l 538 129 l 778 129 l 778 0 l 80 0 l 80 129 l 348 129 l 348 398 l 215 322 l 157 427 l 348 535 l 348 878 l 151 878 l 151 1006 l 538 1006 l 538 644 z "},"Š":{"ha":833,"x_min":26,"x_max":790,"o":"m 790 265 q 691 61 790 135 q 414 -14 591 -14 q 155 54 255 -14 q 26 249 54 121 l 219 274 q 284 173 235 210 q 420 136 334 136 q 552 165 509 136 q 595 254 595 193 q 557 329 595 298 q 447 378 519 360 q 241 439 301 413 q 145 498 181 465 q 90 574 109 530 q 71 672 71 618 q 166 860 71 791 q 417 929 261 929 q 654 869 569 929 q 765 683 740 809 l 571 663 q 413 787 541 787 q 303 761 341 787 q 265 684 265 734 q 283 628 265 650 q 333 591 302 606 q 462 551 365 576 q 658 481 589 519 q 758 389 726 443 q 790 265 790 334 m 497 968 l 342 968 l 167 1137 l 167 1156 l 275 1156 l 418 1065 l 421 1065 l 559 1156 l 667 1156 l 667 1137 l 497 968 z "},"š":{"ha":833,"x_min":82,"x_max":749,"o":"m 749 214 q 662 47 749 108 q 420 -14 574 -14 q 189 34 269 -14 q 82 183 109 82 l 250 208 q 299 134 264 156 q 420 113 334 113 q 537 133 500 113 q 574 197 574 153 q 544 253 574 232 q 444 288 515 273 q 227 347 283 319 q 141 418 170 374 q 111 526 111 462 q 192 689 111 631 q 422 748 273 748 q 632 697 553 748 q 732 550 712 646 l 563 532 q 523 599 555 577 q 422 621 491 621 q 320 604 354 621 q 286 546 286 587 q 312 495 286 514 q 400 465 338 477 q 553 428 486 447 q 660 384 620 410 q 725 318 701 358 q 749 214 749 277 m 500 802 l 345 802 l 170 971 l 170 991 l 279 991 l 422 900 l 425 900 l 562 991 l 670 991 l 670 971 l 500 802 z "},"Ž":{"ha":833,"x_min":59,"x_max":772,"o":"m 772 0 l 59 0 l 59 142 l 514 758 l 111 758 l 111 915 l 744 915 l 744 776 l 289 157 l 772 157 l 772 0 m 504 968 l 349 968 l 174 1137 l 174 1156 l 282 1156 l 425 1065 l 428 1065 l 566 1156 l 673 1156 l 673 1137 l 504 968 z "},"ž":{"ha":833,"x_min":94,"x_max":730,"o":"m 94 0 l 94 135 l 480 596 l 121 596 l 121 734 l 697 734 l 697 597 l 313 139 l 730 139 l 730 0 l 94 0 m 498 802 l 342 802 l 168 971 l 168 991 l 276 991 l 419 900 l 422 900 l 559 991 l 667 991 l 667 971 l 498 802 z "},"¦":{"ha":833,"x_min":328,"x_max":505,"o":"m 328 458 l 328 986 l 505 986 l 505 458 l 328 458 m 328 -309 l 328 220 l 505 220 l 505 -309 l 328 -309 z "},"Ð":{"ha":833,"x_min":9,"x_max":788,"o":"m 788 465 q 684 120 788 241 q 386 0 579 0 l 100 0 l 100 382 l 9 382 l 9 531 l 100 531 l 100 915 l 345 915 q 678 803 568 915 q 788 465 788 692 m 587 465 q 529 689 587 618 q 342 760 471 760 l 300 760 l 300 531 l 441 531 l 441 382 l 300 382 l 300 155 l 370 155 q 587 465 587 155 z "},"ð":{"ha":833,"x_min":57,"x_max":770,"o":"m 556 859 q 770 367 770 642 l 770 364 q 677 85 770 183 q 412 -14 585 -14 q 151 76 244 -14 q 57 325 57 165 q 150 575 57 486 q 414 664 243 664 q 505 650 467 664 q 410 798 467 731 l 250 728 l 198 833 l 324 887 q 149 1006 264 935 l 348 1006 q 456 943 413 974 l 625 1017 l 682 912 l 556 859 m 570 323 q 534 483 570 432 q 417 533 498 533 q 295 482 332 533 q 257 323 257 431 q 408 115 257 115 q 532 165 494 115 q 570 323 570 216 z "},"Ý":{"ha":833,"x_min":2,"x_max":831,"o":"m 516 377 l 516 0 l 317 0 l 317 377 l 2 915 l 212 915 l 415 531 l 621 915 l 831 915 l 516 377 m 317 968 l 317 989 l 488 1154 l 663 1154 l 663 1125 l 433 968 l 317 968 z "},"ý":{"ha":833,"x_min":26,"x_max":807,"o":"m 220 -288 q 97 -279 149 -288 l 97 -144 l 132 -147 l 166 -149 q 234 -136 207 -149 q 282 -94 260 -123 q 330 7 303 -64 l 26 734 l 227 734 l 356 376 q 425 150 383 302 l 431 175 l 486 374 l 608 734 l 807 734 l 503 -39 q 385 -233 449 -178 q 220 -288 320 -288 m 321 803 l 321 824 l 492 989 l 667 989 l 667 960 l 437 803 l 321 803 z "},"Þ":{"ha":833,"x_min":93,"x_max":787,"o":"m 787 470 q 745 317 787 385 q 624 211 703 249 q 439 174 545 174 l 293 174 l 293 0 l 93 0 l 93 915 l 293 915 l 293 755 l 431 755 q 694 681 600 755 q 787 470 787 606 m 586 467 q 539 575 586 536 q 408 614 492 614 l 293 614 l 293 315 l 414 315 q 539 356 492 315 q 586 467 586 397 z "},"þ":{"ha":833,"x_min":97,"x_max":764,"o":"m 97 1006 l 288 1006 l 288 727 l 285 613 l 288 613 q 505 748 363 748 q 695 648 627 748 q 764 370 764 549 q 693 88 764 189 q 493 -14 621 -14 q 372 21 426 -14 q 288 117 318 55 l 283 117 q 288 -7 288 96 l 288 -288 l 97 -288 l 97 1006 m 572 370 q 431 616 572 616 q 324 550 363 616 q 285 364 285 484 q 324 181 285 245 q 430 117 363 117 q 538 181 504 117 q 572 370 572 245 z "},"−":{"ha":833,"x_min":68,"x_max":765,"o":"m 68 386 l 68 538 l 765 538 l 765 386 l 68 386 z "},"×":{"ha":833,"x_min":69,"x_max":764,"o":"m 69 221 l 311 464 l 72 703 l 179 808 l 418 571 l 656 810 l 764 703 l 525 463 l 764 225 l 656 117 l 418 357 l 176 114 l 69 221 z "},"¹":{"ha":833,"x_min":186,"x_max":641,"o":"m 186 382 l 186 478 l 347 478 l 347 838 q 282 783 331 806 q 190 760 233 760 l 190 864 q 286 890 239 864 q 353 956 332 916 l 492 956 l 492 478 l 641 478 l 641 382 l 186 382 z "},"²":{"ha":833,"x_min":188,"x_max":656,"o":"m 188 382 l 188 478 q 368 657 231 571 q 460 728 433 698 q 488 791 488 759 q 423 863 488 863 q 348 785 356 863 l 193 789 q 265 917 203 869 q 423 964 326 964 q 587 920 529 964 q 646 797 646 876 q 524 619 646 697 q 406 539 433 562 q 368 492 379 517 l 656 492 l 656 382 l 188 382 z "},"³":{"ha":833,"x_min":179,"x_max":652,"o":"m 652 542 q 593 418 652 463 q 423 374 533 374 q 179 539 201 374 l 330 549 q 420 475 338 475 q 502 551 502 475 q 391 625 502 625 l 347 625 l 347 725 l 387 725 q 463 744 438 725 q 488 796 488 763 q 470 845 488 827 q 417 863 452 863 q 363 845 384 863 q 339 791 342 827 l 191 801 q 263 921 201 878 q 421 964 324 964 q 579 922 522 964 q 637 814 637 881 q 608 727 637 763 q 516 678 579 691 l 516 677 q 616 634 581 669 q 652 542 652 599 z "},"½":{"ha":833,"x_min":1,"x_max":820,"o":"m 138 786 q 82 742 125 760 q 1 724 40 724 l 1 836 q 84 859 41 836 q 144 915 127 881 l 267 915 l 267 399 l 138 399 l 138 786 m 197 0 l 87 0 l 588 915 l 697 915 l 197 0 m 446 1 l 446 98 q 505 186 467 146 q 598 258 543 225 q 673 317 652 291 q 694 374 694 342 q 641 436 694 436 q 606 428 619 436 q 585 406 593 420 q 573 356 578 391 l 451 363 q 642 524 473 524 q 775 486 731 524 q 820 378 820 447 q 804 307 820 337 q 765 253 789 276 q 712 211 741 229 q 656 176 683 193 q 607 142 629 159 q 576 104 585 125 l 814 104 l 814 1 l 446 1 z "},"¼":{"ha":833,"x_min":1,"x_max":806,"o":"m 137 786 q 82 742 124 760 q 1 724 39 724 l 1 836 q 83 859 40 836 q 144 915 127 881 l 267 915 l 267 399 l 137 399 l 137 786 m 208 0 l 98 0 l 598 915 l 707 915 l 208 0 m 751 110 l 751 1 l 621 1 l 621 110 l 390 110 l 390 211 l 608 517 l 751 517 l 751 212 l 806 212 l 806 110 l 751 110 m 625 411 q 581 332 597 360 q 501 212 564 303 l 621 212 l 621 347 q 625 411 621 382 z "},"¾":{"ha":833,"x_min":7,"x_max":833,"o":"m 401 538 q 349 426 401 467 q 207 386 298 386 q 72 422 121 386 q 7 543 24 458 l 146 561 q 166 500 152 522 q 210 479 180 479 q 265 549 265 479 q 243 600 265 584 q 172 616 221 616 l 144 616 l 144 705 l 170 705 q 234 722 216 705 q 252 776 252 738 q 242 821 252 806 q 208 835 232 835 q 167 816 178 835 q 152 760 155 797 l 20 768 q 77 884 31 846 q 212 923 123 923 q 341 886 296 923 q 387 785 387 849 q 364 713 387 741 q 294 667 341 685 l 294 663 q 375 617 350 651 q 401 538 401 584 m 259 0 l 149 0 l 650 915 l 759 915 l 259 0 m 777 110 l 777 1 l 648 1 l 648 110 l 416 110 l 416 211 l 634 517 l 777 517 l 777 212 l 833 212 l 833 110 l 777 110 m 652 411 q 607 332 624 360 q 528 212 591 303 l 648 212 l 648 347 q 652 411 648 382 z "},"₣":{"ha":833,"x_min":25,"x_max":768,"o":"m 313 774 l 313 546 l 745 546 l 745 405 l 313 405 l 313 276 l 526 276 l 526 175 l 313 175 l 313 0 l 120 0 l 120 175 l 25 175 l 25 276 l 120 276 l 120 915 l 768 915 l 768 774 l 313 774 z "},"Ğ":{"ha":833,"x_min":54,"x_max":765,"o":"m 765 125 q 431 -14 600 -14 q 154 111 254 -14 q 54 462 54 235 q 433 929 54 929 q 632 866 555 929 q 746 675 709 803 l 560 638 q 435 772 524 772 q 300 699 343 772 q 257 462 257 625 q 302 229 257 311 q 441 146 348 146 q 515 160 477 146 q 582 197 553 174 l 582 356 l 396 356 l 396 504 l 765 504 l 765 125 m 417 968 q 247 1017 308 968 q 178 1156 186 1066 l 289 1156 q 418 1074 299 1074 q 508 1094 478 1074 q 547 1156 538 1114 l 659 1156 q 417 968 635 968 z "},"ğ":{"ha":833,"x_min":84,"x_max":755,"o":"m 418 -294 q 212 -242 292 -294 q 115 -97 133 -190 l 305 -75 q 347 -144 315 -119 q 423 -170 379 -170 q 527 -121 492 -170 q 562 25 562 -72 l 562 65 l 564 143 l 562 143 q 340 8 499 8 q 151 103 218 8 q 84 373 84 197 q 154 648 84 551 q 354 745 224 745 q 479 712 425 745 q 562 616 532 680 l 566 616 q 569 680 566 640 q 575 734 572 721 l 755 734 q 751 564 751 661 l 751 22 q 665 -213 751 -132 q 418 -294 578 -294 m 564 377 q 526 551 564 488 q 422 614 488 614 q 318 553 354 614 q 283 373 283 492 q 319 198 283 255 q 420 140 356 140 q 527 204 490 140 q 564 377 564 268 m 409 802 q 239 851 300 802 q 170 991 178 901 l 281 991 q 410 909 291 909 q 500 928 470 909 q 539 991 530 948 l 650 991 q 409 802 627 802 z "},"İ":{"ha":833,"x_min":106,"x_max":728,"o":"m 106 915 l 728 915 l 728 760 l 517 760 l 517 155 l 728 155 l 728 0 l 106 0 l 106 155 l 317 155 l 317 760 l 106 760 l 106 915 m 321 964 l 321 1104 l 512 1104 l 512 964 l 321 964 z "},"Ş":{"ha":833,"x_min":26,"x_max":790,"o":"m 790 265 q 691 61 790 135 q 414 -14 591 -14 q 155 54 255 -14 q 26 249 54 121 l 219 274 q 284 173 235 210 q 420 136 334 136 q 552 165 509 136 q 595 254 595 193 q 557 329 595 298 q 447 378 519 360 q 241 439 301 413 q 145 498 181 465 q 90 574 109 530 q 71 672 71 618 q 166 860 71 791 q 417 929 261 929 q 654 869 569 929 q 765 683 740 809 l 571 663 q 413 787 541 787 q 303 761 341 787 q 265 684 265 734 q 283 628 265 650 q 333 591 302 606 q 462 551 365 576 q 658 481 589 519 q 758 389 726 443 q 790 265 790 334 m 559 -173 q 507 -269 559 -237 q 354 -302 454 -302 q 286 -298 323 -302 l 286 -218 q 342 -222 309 -222 q 435 -176 435 -222 q 416 -140 435 -152 q 353 -129 397 -129 q 317 -130 327 -129 l 364 0 l 461 0 l 434 -69 q 529 -100 498 -73 q 559 -173 559 -128 z "},"ş":{"ha":833,"x_min":82,"x_max":749,"o":"m 749 214 q 662 47 749 108 q 420 -14 574 -14 q 189 34 269 -14 q 82 183 109 82 l 250 208 q 299 134 264 156 q 420 113 334 113 q 537 133 500 113 q 574 197 574 153 q 544 253 574 232 q 444 288 515 273 q 227 347 283 319 q 141 418 170 374 q 111 526 111 462 q 192 689 111 631 q 422 748 273 748 q 632 697 553 748 q 732 550 712 646 l 563 532 q 523 599 555 577 q 422 621 491 621 q 320 604 354 621 q 286 546 286 587 q 312 495 286 514 q 400 465 338 477 q 553 428 486 447 q 660 384 620 410 q 725 318 701 358 q 749 214 749 277 m 566 -173 q 513 -269 566 -237 q 361 -302 460 -302 q 292 -298 330 -302 l 292 -218 q 349 -222 316 -222 q 442 -176 442 -222 q 423 -140 442 -152 q 359 -129 404 -129 q 324 -130 334 -129 l 371 0 l 468 0 l 441 -69 q 535 -100 505 -73 q 566 -173 566 -128 z "},"Ć":{"ha":833,"x_min":54,"x_max":795,"o":"m 258 462 q 305 227 258 309 q 447 144 353 144 q 610 309 557 144 l 795 274 q 445 -14 705 -14 q 154 107 254 -14 q 54 462 54 229 q 439 929 54 929 q 651 863 566 929 q 776 665 736 796 l 591 621 q 532 732 572 692 q 442 772 493 772 q 258 462 258 772 m 338 968 l 338 989 l 509 1154 l 684 1154 l 684 1125 l 454 968 l 338 968 z "},"ć":{"ha":833,"x_min":75,"x_max":752,"o":"m 423 -14 q 165 86 256 -14 q 75 363 75 185 q 166 646 75 545 q 426 747 258 747 q 640 682 555 747 q 747 503 725 617 l 555 493 q 514 583 547 549 q 422 616 481 616 q 275 370 275 616 q 425 117 275 117 q 515 151 479 117 q 561 253 552 185 l 752 244 q 698 110 742 169 q 583 19 654 51 q 423 -14 512 -14 m 318 803 l 318 824 l 489 989 l 664 989 l 664 960 l 433 803 l 318 803 z "},"Č":{"ha":833,"x_min":54,"x_max":795,"o":"m 258 462 q 305 227 258 309 q 447 144 353 144 q 610 309 557 144 l 795 274 q 445 -14 705 -14 q 154 107 254 -14 q 54 462 54 229 q 439 929 54 929 q 651 863 566 929 q 776 665 736 796 l 591 621 q 532 732 572 692 q 442 772 493 772 q 258 462 258 772 m 509 968 l 353 968 l 178 1137 l 178 1156 l 287 1156 l 430 1065 l 433 1065 l 570 1156 l 678 1156 l 678 1137 l 509 968 z "},"č":{"ha":833,"x_min":75,"x_max":752,"o":"m 423 -14 q 165 86 256 -14 q 75 363 75 185 q 166 646 75 545 q 426 747 258 747 q 640 682 555 747 q 747 503 725 617 l 555 493 q 514 583 547 549 q 422 616 481 616 q 275 370 275 616 q 425 117 275 117 q 515 151 479 117 q 561 253 552 185 l 752 244 q 698 110 742 169 q 583 19 654 51 q 423 -14 512 -14 m 494 802 l 339 802 l 164 971 l 164 991 l 273 991 l 416 900 l 418 900 l 556 991 l 664 991 l 664 971 l 494 802 z "},"đ":{"ha":833,"x_min":62,"x_max":820,"o":"m 820 800 l 730 800 l 730 160 q 735 0 730 92 l 551 0 q 544 51 548 10 q 541 119 541 92 l 538 119 q 449 17 502 47 q 323 -14 396 -14 q 132 84 201 -14 q 62 355 62 182 q 132 628 62 532 q 331 724 201 724 q 457 691 404 724 q 539 595 511 659 l 541 595 l 539 737 l 539 800 l 348 800 l 348 915 l 539 915 l 539 1006 l 730 1006 l 730 915 l 820 915 l 820 800 m 542 359 q 506 534 542 473 q 399 595 469 595 q 295 535 329 595 q 261 355 261 476 q 397 117 261 117 q 504 180 466 117 q 542 359 542 243 z "},"¯":{"ha":833,"x_min":-3,"x_max":836,"o":"m -3 985 l -3 1050 l 836 1050 l 836 985 l -3 985 z "},"·":{"ha":833,"x_min":319,"x_max":514,"o":"m 319 283 l 319 490 l 514 490 l 514 283 l 319 283 z "},"Ă":{"ha":833,"x_min":0,"x_max":833,"o":"m 833 0 l 634 0 l 572 224 l 262 224 l 200 0 l 0 0 l 300 915 l 534 915 l 833 0 m 417 791 q 397 706 412 763 q 304 374 382 650 l 530 374 q 436 709 450 654 q 417 791 422 764 m 415 968 q 245 1017 306 968 q 176 1156 184 1066 l 287 1156 q 416 1074 297 1074 q 506 1094 476 1074 q 545 1156 536 1114 l 656 1156 q 415 968 633 968 z "},"ă":{"ha":833,"x_min":72,"x_max":799,"o":"m 298 -14 q 132 44 191 -14 q 72 208 72 102 q 143 381 72 321 q 355 442 214 440 l 506 445 l 506 482 q 482 588 506 552 q 406 624 458 624 q 333 599 356 624 q 304 520 309 574 l 105 530 q 414 747 142 747 q 624 680 551 747 q 696 483 696 613 l 696 217 q 710 132 696 155 q 757 109 724 109 q 799 113 779 109 l 799 9 q 768 2 782 5 q 741 -3 755 -1 q 712 -7 728 -5 q 677 -8 697 -8 q 571 27 605 -8 q 530 131 536 62 l 526 131 q 428 20 483 54 q 298 -14 374 -14 m 506 340 l 415 338 q 327 326 354 337 q 285 290 299 315 q 271 222 271 265 q 352 119 271 119 q 462 171 418 119 q 506 302 506 223 l 506 340 m 402 802 q 232 851 293 802 q 163 991 171 901 l 274 991 q 404 909 284 909 q 493 928 463 909 q 532 991 523 948 l 644 991 q 402 802 621 802 z "},"Ą":{"ha":833,"x_min":0,"x_max":833,"o":"m 833 0 l 634 0 l 572 224 l 262 224 l 200 0 l 0 0 l 300 915 l 534 915 l 833 0 m 417 791 q 397 706 412 763 q 304 374 382 650 l 530 374 q 436 709 450 654 q 417 791 422 764 m 730 -281 q 612 -244 655 -281 q 570 -145 570 -208 q 599 -49 570 -94 q 677 22 629 -3 l 781 22 q 715 -46 738 -7 q 693 -121 693 -85 q 710 -166 693 -149 q 757 -184 726 -184 q 833 -165 793 -184 l 833 -258 q 730 -281 790 -281 z "},"ą":{"ha":833,"x_min":72,"x_max":799,"o":"m 298 -14 q 132 44 191 -14 q 72 208 72 102 q 143 381 72 321 q 355 442 214 440 l 506 445 l 506 482 q 482 588 506 552 q 406 624 458 624 q 333 599 356 624 q 304 520 309 574 l 105 530 q 414 747 142 747 q 624 680 551 747 q 696 483 696 613 l 696 217 q 710 132 696 155 q 757 109 724 109 q 799 113 779 109 l 799 9 q 768 2 782 5 q 741 -3 755 -1 q 712 -7 728 -5 q 677 -8 697 -8 q 571 27 605 -8 q 530 131 536 62 l 526 131 q 428 20 483 54 q 298 -14 374 -14 m 506 340 l 415 338 q 327 326 354 337 q 285 290 299 315 q 271 222 271 265 q 352 119 271 119 q 462 171 418 119 q 506 302 506 223 l 506 340 m 692 -288 q 574 -252 616 -288 q 531 -153 531 -215 q 561 -56 531 -102 q 638 14 590 -11 l 742 14 q 677 -53 699 -14 q 654 -128 654 -92 q 671 -174 654 -157 q 718 -191 688 -191 q 794 -173 755 -191 l 794 -266 q 692 -288 751 -288 z "},"Ď":{"ha":833,"x_min":92,"x_max":779,"o":"m 779 465 q 675 120 779 241 q 377 0 570 0 l 92 0 l 92 915 l 336 915 q 669 803 559 915 q 779 465 779 692 m 578 465 q 520 689 578 618 q 333 760 462 760 l 292 760 l 292 155 l 361 155 q 578 465 578 155 m 477 968 l 322 968 l 147 1137 l 147 1156 l 256 1156 l 399 1065 l 401 1065 l 539 1156 l 647 1156 l 647 1137 l 477 968 z "},"ď":{"ha":833,"x_min":19,"x_max":835,"o":"m 434 0 q 428 51 431 10 q 424 119 424 92 l 421 119 q 341 17 385 47 q 241 -14 298 -14 q 80 91 140 -14 q 19 366 19 195 q 80 644 19 541 q 248 746 142 746 q 422 616 364 746 l 424 616 l 422 737 l 422 1006 l 606 1006 l 606 160 q 612 0 606 92 l 434 0 m 425 370 q 411 505 425 450 q 372 588 397 559 q 316 616 347 616 q 240 551 267 616 q 212 366 212 485 q 239 184 212 251 q 315 117 267 117 q 371 148 345 117 q 411 235 396 179 q 425 370 425 291 m 659 766 l 659 788 l 678 1006 l 835 1006 l 835 981 l 753 766 l 659 766 z "},"Đ":{"ha":833,"x_min":9,"x_max":788,"o":"m 788 465 q 684 120 788 241 q 386 0 579 0 l 100 0 l 100 382 l 9 382 l 9 531 l 100 531 l 100 915 l 345 915 q 678 803 568 915 q 788 465 788 692 m 587 465 q 529 689 587 618 q 342 760 471 760 l 300 760 l 300 531 l 441 531 l 441 382 l 300 382 l 300 155 l 370 155 q 587 465 587 155 z "},"Ę":{"ha":833,"x_min":93,"x_max":777,"o":"m 93 0 l 93 915 l 749 915 l 749 760 l 293 760 l 293 541 l 708 541 l 708 386 l 293 386 l 293 155 l 777 155 l 777 0 l 93 0 m 670 -288 q 552 -252 595 -288 q 509 -153 509 -215 q 539 -56 509 -102 q 616 14 568 -11 l 720 14 q 655 -53 677 -14 q 633 -128 633 -92 q 649 -174 633 -157 q 696 -191 666 -191 q 772 -173 733 -191 l 772 -266 q 670 -288 730 -288 z "},"ę":{"ha":833,"x_min":68,"x_max":766,"o":"m 425 -14 q 161 87 254 -14 q 68 370 68 188 q 112 576 68 492 q 236 704 155 661 q 427 747 317 747 q 677 640 588 747 q 766 336 766 533 l 766 330 l 268 330 q 312 172 268 231 q 434 114 357 114 q 523 135 484 114 q 575 201 562 157 l 755 186 q 631 38 718 90 q 425 -14 544 -14 m 425 627 q 313 580 355 627 q 269 450 272 533 l 581 450 q 535 579 576 531 q 425 627 493 627 m 488 -288 q 370 -252 412 -288 q 327 -153 327 -215 q 356 -56 327 -102 q 434 14 386 -11 l 538 14 q 473 -53 495 -14 q 450 -128 450 -92 q 467 -174 450 -157 q 514 -191 484 -191 q 590 -173 551 -191 l 590 -266 q 488 -288 547 -288 z "},"Ě":{"ha":833,"x_min":93,"x_max":777,"o":"m 93 0 l 93 915 l 749 915 l 749 760 l 293 760 l 293 541 l 708 541 l 708 386 l 293 386 l 293 155 l 777 155 l 777 0 l 93 0 m 505 968 l 349 968 l 174 1137 l 174 1156 l 283 1156 l 426 1065 l 429 1065 l 566 1156 l 674 1156 l 674 1137 l 505 968 z "},"ě":{"ha":833,"x_min":68,"x_max":766,"o":"m 425 -14 q 161 87 254 -14 q 68 370 68 188 q 112 576 68 492 q 236 704 155 661 q 427 747 317 747 q 677 640 588 747 q 766 336 766 533 l 766 330 l 268 330 q 312 172 268 231 q 434 114 357 114 q 523 135 484 114 q 575 201 562 157 l 755 186 q 631 38 718 90 q 425 -14 544 -14 m 425 627 q 313 580 355 627 q 269 450 272 533 l 581 450 q 535 579 576 531 q 425 627 493 627 m 492 802 l 337 802 l 162 971 l 162 991 l 271 991 l 414 900 l 416 900 l 554 991 l 662 991 l 662 971 l 492 802 z "},"Ĺ":{"ha":833,"x_min":143,"x_max":761,"o":"m 143 0 l 143 915 l 343 915 l 343 155 l 761 155 l 761 0 l 143 0 m 182 969 l 182 990 l 353 1155 l 528 1155 l 528 1126 l 298 969 l 182 969 z "},"ĺ":{"ha":833,"x_min":80,"x_max":778,"o":"m 538 129 l 778 129 l 778 0 l 80 0 l 80 129 l 348 129 l 348 786 l 151 786 l 151 915 l 538 915 l 538 129 m 336 970 l 336 991 l 507 1156 l 682 1156 l 682 1127 l 452 970 l 336 970 z "},"Ľ":{"ha":833,"x_min":143,"x_max":761,"o":"m 143 0 l 143 915 l 343 915 l 343 155 l 761 155 l 761 0 l 143 0 m 512 674 l 512 696 l 572 915 l 747 915 l 747 890 l 624 674 l 512 674 z "},"ľ":{"ha":833,"x_min":47,"x_max":814,"o":"m 505 129 l 745 129 l 745 0 l 47 0 l 47 129 l 315 129 l 315 878 l 118 878 l 118 1006 l 505 1006 l 505 129 m 580 766 l 580 788 l 640 1006 l 814 1006 l 814 981 l 692 766 l 580 766 z "},"Ŀ":{"ha":833,"x_min":143,"x_max":761,"o":"m 143 0 l 143 915 l 343 915 l 343 155 l 761 155 l 761 0 l 143 0 m 448 395 l 448 536 l 638 536 l 638 395 l 448 395 z "},"ŀ":{"ha":833,"x_min":80,"x_max":794,"o":"m 538 129 l 778 129 l 778 0 l 80 0 l 80 129 l 348 129 l 348 878 l 151 878 l 151 1006 l 538 1006 l 538 129 m 604 395 l 604 536 l 794 536 l 794 395 l 604 395 z "},"Ń":{"ha":833,"x_min":92,"x_max":742,"o":"m 507 0 l 247 685 q 266 445 266 514 l 266 0 l 92 0 l 92 915 l 320 915 l 587 212 q 568 459 568 371 l 568 915 l 742 915 l 742 0 l 507 0 m 332 969 l 332 990 l 503 1155 l 677 1155 l 677 1126 l 447 969 l 332 969 z "},"ń":{"ha":833,"x_min":92,"x_max":749,"o":"m 559 0 l 559 420 q 533 560 559 515 q 443 605 507 605 q 330 545 372 605 q 288 393 288 485 l 288 0 l 97 0 l 97 570 q 95 666 97 629 q 92 734 94 704 l 273 734 q 279 665 275 721 q 282 588 282 609 l 285 588 q 382 710 323 672 q 521 748 440 748 q 749 466 749 748 l 749 0 l 559 0 m 342 803 l 342 824 l 513 989 l 688 989 l 688 960 l 457 803 l 342 803 z "},"Ň":{"ha":833,"x_min":92,"x_max":742,"o":"m 507 0 l 247 685 q 266 445 266 514 l 266 0 l 92 0 l 92 915 l 320 915 l 587 212 q 568 459 568 371 l 568 915 l 742 915 l 742 0 l 507 0 m 494 968 l 339 968 l 164 1137 l 164 1156 l 273 1156 l 416 1065 l 418 1065 l 556 1156 l 664 1156 l 664 1137 l 494 968 z "},"ň":{"ha":833,"x_min":92,"x_max":749,"o":"m 559 0 l 559 420 q 533 560 559 515 q 443 605 507 605 q 330 545 372 605 q 288 393 288 485 l 288 0 l 97 0 l 97 570 q 95 666 97 629 q 92 734 94 704 l 273 734 q 279 665 275 721 q 282 588 282 609 l 285 588 q 382 710 323 672 q 521 748 440 748 q 749 466 749 748 l 749 0 l 559 0 m 497 802 l 342 802 l 167 971 l 167 991 l 275 991 l 418 900 l 421 900 l 559 991 l 667 991 l 667 971 l 497 802 z "},"Ő":{"ha":833,"x_min":49,"x_max":791,"o":"m 785 460 q 690 106 785 227 q 417 -14 595 -14 q 144 106 239 -14 q 49 460 49 227 q 144 812 49 694 q 417 929 239 929 q 690 812 595 929 q 785 460 785 694 m 582 460 q 417 772 582 772 q 252 460 252 772 q 293 224 252 304 q 417 144 335 144 q 541 224 499 144 q 582 460 582 304 m 300 967 l 204 967 l 204 990 l 357 1156 l 516 1156 l 516 1127 l 300 967 m 576 967 l 479 967 l 479 990 l 632 1156 l 791 1156 l 791 1127 l 576 967 z "},"ő":{"ha":833,"x_min":62,"x_max":804,"o":"m 771 368 q 679 86 771 185 q 414 -14 587 -14 q 155 86 247 -14 q 62 368 62 185 q 154 648 62 549 q 418 747 245 747 q 771 368 771 747 m 572 368 q 537 557 572 498 q 420 616 503 616 q 299 557 336 616 q 262 368 262 497 q 300 177 262 237 q 412 117 338 117 q 534 176 496 117 q 572 368 572 235 m 313 802 l 217 802 l 217 825 l 370 991 l 529 991 l 529 962 l 313 802 m 589 802 l 492 802 l 492 825 l 645 991 l 804 991 l 804 962 l 589 802 z "},"Ŕ":{"ha":833,"x_min":93,"x_max":832,"o":"m 607 0 l 410 349 l 293 349 l 293 0 l 93 0 l 93 915 l 428 915 q 696 845 607 915 q 785 644 785 775 q 734 486 785 551 q 595 394 684 420 l 832 0 l 607 0 m 583 635 q 541 729 583 699 q 407 760 499 760 l 293 760 l 293 505 l 412 505 q 583 635 583 505 m 298 969 l 298 990 l 469 1155 l 644 1155 l 644 1126 l 413 969 l 298 969 z "},"ŕ":{"ha":833,"x_min":134,"x_max":733,"o":"m 733 575 q 589 588 657 588 q 421 508 484 588 q 359 297 359 428 l 359 0 l 170 0 l 170 475 q 160 597 170 527 q 134 734 151 667 l 318 734 q 349 579 342 646 l 352 579 q 444 709 386 671 q 593 747 501 747 q 733 736 664 747 l 733 575 m 309 803 l 309 824 l 480 989 l 655 989 l 655 960 l 425 803 l 309 803 z "},"Ř":{"ha":833,"x_min":93,"x_max":832,"o":"m 607 0 l 410 349 l 293 349 l 293 0 l 93 0 l 93 915 l 428 915 q 696 845 607 915 q 785 644 785 775 q 734 486 785 551 q 595 394 684 420 l 832 0 l 607 0 m 583 635 q 541 729 583 699 q 407 760 499 760 l 293 760 l 293 505 l 412 505 q 583 635 583 505 m 484 968 l 329 968 l 154 1137 l 154 1156 l 262 1156 l 406 1065 l 408 1065 l 546 1156 l 654 1156 l 654 1137 l 484 968 z "},"ř":{"ha":833,"x_min":134,"x_max":733,"o":"m 733 575 q 589 588 657 588 q 421 508 484 588 q 359 297 359 428 l 359 0 l 170 0 l 170 475 q 160 597 170 527 q 134 734 151 667 l 318 734 q 349 579 342 646 l 352 579 q 444 709 386 671 q 593 747 501 747 q 733 736 664 747 l 733 575 m 511 802 l 355 802 l 180 971 l 180 991 l 289 991 l 432 900 l 435 900 l 572 991 l 680 991 l 680 971 l 511 802 z "},"Ś":{"ha":833,"x_min":26,"x_max":790,"o":"m 790 265 q 691 61 790 135 q 414 -14 591 -14 q 155 54 255 -14 q 26 249 54 121 l 219 274 q 284 173 235 210 q 420 136 334 136 q 552 165 509 136 q 595 254 595 193 q 557 329 595 298 q 447 378 519 360 q 241 439 301 413 q 145 498 181 465 q 90 574 109 530 q 71 672 71 618 q 166 860 71 791 q 417 929 261 929 q 654 869 569 929 q 765 683 740 809 l 571 663 q 413 787 541 787 q 303 761 341 787 q 265 684 265 734 q 283 628 265 650 q 333 591 302 606 q 462 551 365 576 q 658 481 589 519 q 758 389 726 443 q 790 265 790 334 m 330 969 l 330 990 l 501 1155 l 676 1155 l 676 1126 l 446 969 l 330 969 z "},"ś":{"ha":833,"x_min":82,"x_max":749,"o":"m 749 214 q 662 47 749 108 q 420 -14 574 -14 q 189 34 269 -14 q 82 183 109 82 l 250 208 q 299 134 264 156 q 420 113 334 113 q 537 133 500 113 q 574 197 574 153 q 544 253 574 232 q 444 288 515 273 q 227 347 283 319 q 141 418 170 374 q 111 526 111 462 q 192 689 111 631 q 422 748 273 748 q 632 697 553 748 q 732 550 712 646 l 563 532 q 523 599 555 577 q 422 621 491 621 q 320 604 354 621 q 286 546 286 587 q 312 495 286 514 q 400 465 338 477 q 553 428 486 447 q 660 384 620 410 q 725 318 701 358 q 749 214 749 277 m 307 803 l 307 824 l 478 989 l 653 989 l 653 960 l 422 803 l 307 803 z "},"Ţ":{"ha":833,"x_min":41,"x_max":792,"o":"m 517 760 l 517 0 l 317 0 l 317 760 l 41 760 l 41 915 l 792 915 l 792 760 l 517 760 m 268 -307 l 268 -285 l 328 -66 l 503 -66 l 503 -92 l 380 -307 l 268 -307 z "},"ţ":{"ha":833,"x_min":109,"x_max":702,"o":"m 222 605 l 109 605 l 109 734 l 232 734 l 292 925 l 411 925 l 411 734 l 672 734 l 672 605 l 411 605 l 411 245 q 422 165 411 186 q 458 133 433 144 q 529 121 484 121 q 702 139 613 121 l 702 13 q 566 -6 606 -3 q 482 -9 526 -9 q 338 15 396 -9 q 251 88 280 38 q 221 228 221 138 l 222 605 m 298 -307 l 298 -285 l 359 -66 l 533 -66 l 533 -92 l 410 -307 l 298 -307 z "},"Ť":{"ha":833,"x_min":41,"x_max":792,"o":"m 517 760 l 517 0 l 317 0 l 317 760 l 41 760 l 41 915 l 792 915 l 792 760 l 517 760 m 497 968 l 342 968 l 167 1137 l 167 1156 l 275 1156 l 418 1065 l 421 1065 l 559 1156 l 667 1156 l 667 1137 l 497 968 z "},"ť":{"ha":833,"x_min":35,"x_max":835,"o":"m 149 605 l 35 605 l 35 734 l 158 734 l 218 925 l 337 925 l 337 734 l 598 734 l 598 605 l 337 605 l 337 245 q 348 165 337 186 q 385 133 359 144 q 455 121 410 121 q 628 139 539 121 l 628 13 q 492 -6 532 -3 q 408 -9 452 -9 q 264 15 322 -9 q 177 88 206 38 q 147 228 147 138 l 149 605 m 600 766 l 600 788 l 661 1006 l 835 1006 l 835 981 l 712 766 l 600 766 z "},"Ů":{"ha":833,"x_min":87,"x_max":746,"o":"m 406 -14 q 163 77 239 -14 q 87 358 87 168 l 87 915 l 288 915 l 288 360 q 315 192 288 241 q 412 143 342 143 q 514 195 482 143 q 546 367 546 248 l 546 915 l 746 915 l 746 368 q 662 80 746 174 q 406 -14 578 -14 m 581 1021 q 536 924 581 962 q 416 886 492 886 q 296 924 340 886 q 252 1021 252 962 q 297 1119 252 1082 q 416 1156 342 1156 q 536 1119 492 1156 q 581 1021 581 1081 m 486 1021 q 467 1056 486 1043 q 416 1069 448 1069 q 366 1057 385 1069 q 346 1021 346 1044 q 366 986 346 999 q 416 973 385 973 q 467 986 448 973 q 486 1021 486 1000 z "},"ů":{"ha":833,"x_min":92,"x_max":735,"o":"m 282 734 l 282 322 q 312 179 282 229 q 399 129 342 129 q 499 189 460 129 q 539 340 539 249 l 539 734 l 730 734 l 730 164 q 735 0 730 71 l 553 0 q 545 146 545 98 l 542 146 q 319 -14 469 -14 q 150 57 208 -14 q 92 268 92 128 l 92 734 l 282 734 m 581 914 q 536 817 581 855 q 416 779 492 779 q 296 817 340 779 q 252 914 252 855 q 297 1012 252 975 q 416 1049 342 1049 q 536 1011 492 1049 q 581 914 581 974 m 486 914 q 467 949 486 936 q 416 962 448 962 q 366 949 385 962 q 346 914 346 937 q 366 879 346 892 q 416 866 385 866 q 467 879 448 866 q 486 914 486 892 z "},"Ű":{"ha":833,"x_min":87,"x_max":766,"o":"m 406 -14 q 163 77 239 -14 q 87 358 87 168 l 87 915 l 288 915 l 288 360 q 315 192 288 241 q 412 143 342 143 q 514 195 482 143 q 546 367 546 248 l 546 915 l 746 915 l 746 368 q 662 80 746 174 q 406 -14 578 -14 m 275 967 l 179 967 l 179 990 l 332 1156 l 491 1156 l 491 1127 l 275 967 m 551 967 l 454 967 l 454 990 l 607 1156 l 766 1156 l 766 1127 l 551 967 z "},"ű":{"ha":833,"x_min":92,"x_max":764,"o":"m 282 734 l 282 322 q 312 179 282 229 q 399 129 342 129 q 499 189 460 129 q 539 340 539 249 l 539 734 l 730 734 l 730 164 q 735 0 730 71 l 553 0 q 545 146 545 98 l 542 146 q 319 -14 469 -14 q 150 57 208 -14 q 92 268 92 128 l 92 734 l 282 734 m 273 802 l 177 802 l 177 825 l 330 991 l 489 991 l 489 962 l 273 802 m 549 802 l 452 802 l 452 825 l 605 991 l 764 991 l 764 962 l 549 802 z "},"Ź":{"ha":833,"x_min":59,"x_max":772,"o":"m 772 0 l 59 0 l 59 142 l 514 758 l 111 758 l 111 915 l 744 915 l 744 776 l 289 157 l 772 157 l 772 0 m 318 969 l 318 990 l 489 1155 l 664 1155 l 664 1126 l 433 969 l 318 969 z "},"ź":{"ha":833,"x_min":94,"x_max":730,"o":"m 94 0 l 94 135 l 480 596 l 121 596 l 121 734 l 697 734 l 697 597 l 313 139 l 730 139 l 730 0 l 94 0 m 307 803 l 307 824 l 477 989 l 652 989 l 652 960 l 422 803 l 307 803 z "},"Ż":{"ha":833,"x_min":59,"x_max":772,"o":"m 772 0 l 59 0 l 59 142 l 514 758 l 111 758 l 111 915 l 744 915 l 744 776 l 289 157 l 772 157 l 772 0 m 330 964 l 330 1104 l 521 1104 l 521 964 l 330 964 z "},"ż":{"ha":833,"x_min":94,"x_max":730,"o":"m 94 0 l 94 135 l 480 596 l 121 596 l 121 734 l 697 734 l 697 597 l 313 139 l 730 139 l 730 0 l 94 0 m 319 859 l 319 1000 l 510 1000 l 510 859 l 319 859 z "},"Γ":{"ha":833,"x_min":120,"x_max":776,"o":"m 776 915 l 776 760 l 320 760 l 320 1 l 120 1 l 120 915 l 776 915 z "},"Θ":{"ha":833,"x_min":42,"x_max":791,"o":"m 537 534 l 537 389 l 296 389 l 296 534 l 537 534 m 791 460 q 694 108 791 230 q 417 -14 597 -14 q 139 109 236 -14 q 42 460 42 231 q 139 809 42 689 q 417 929 236 929 q 694 810 597 929 q 791 460 791 691 m 595 460 q 549 691 595 611 q 417 772 502 772 q 285 690 332 772 q 238 460 238 609 q 285 228 238 312 q 417 144 332 144 q 548 226 500 144 q 595 460 595 309 z "},"Φ":{"ha":833,"x_min":6,"x_max":828,"o":"m 654 475 q 615 619 654 565 q 511 673 576 673 l 498 673 l 498 269 l 515 269 q 615 327 577 269 q 654 475 654 384 m 336 -7 l 336 134 l 320 134 q 158 178 230 134 q 46 301 85 222 q 6 477 6 380 q 92 719 6 631 q 328 808 178 808 l 336 808 l 336 922 l 498 922 l 498 808 l 506 808 q 742 719 656 808 q 828 477 828 631 q 740 231 828 327 q 514 134 652 134 l 498 134 l 498 -7 l 336 -7 m 180 475 q 219 326 180 383 q 319 269 257 269 l 336 269 l 336 673 l 323 673 q 219 619 258 673 q 180 475 180 566 z "},"α":{"ha":833,"x_min":47,"x_max":833,"o":"m 576 161 q 476 28 534 69 q 333 -14 418 -14 q 118 80 189 -14 q 47 363 47 173 q 124 652 47 556 q 351 747 201 747 q 504 702 439 747 q 600 574 568 657 l 602 574 q 653 734 619 659 l 833 734 q 763 564 799 672 q 718 377 726 455 q 810 0 740 168 l 627 0 q 579 161 594 81 l 576 161 m 248 366 q 276 175 248 233 q 370 117 305 117 q 474 186 431 117 q 530 368 517 254 q 475 552 515 488 q 376 616 435 616 q 277 555 307 616 q 248 366 248 495 z "},"δ":{"ha":833,"x_min":52,"x_max":777,"o":"m 581 330 q 550 472 581 405 q 446 612 519 539 q 299 506 350 578 q 248 326 248 433 q 290 174 248 228 q 408 119 332 119 q 536 172 492 119 q 581 330 581 225 m 491 878 l 391 882 l 610 684 q 738 517 699 603 q 777 328 777 431 q 733 150 777 227 q 606 29 690 72 q 412 -14 523 -14 q 146 76 241 -14 q 52 326 52 166 q 367 694 52 585 l 155 907 l 155 1006 l 734 1006 l 734 878 l 491 878 z "},"ε":{"ha":833,"x_min":89,"x_max":768,"o":"m 427 114 q 658 220 555 114 l 768 125 q 611 21 701 56 q 421 -14 522 -14 q 177 43 265 -14 q 89 201 89 100 q 152 322 89 273 q 311 378 216 371 l 311 380 q 168 437 224 389 q 111 551 111 486 q 202 693 111 639 q 446 747 293 747 q 758 619 654 747 l 634 536 q 551 602 602 578 q 443 626 500 626 q 332 603 371 626 q 292 543 292 581 q 359 468 292 493 q 569 442 425 442 l 569 322 q 359 294 433 322 q 285 213 285 267 q 323 140 285 166 q 427 114 361 114 z "},"σ":{"ha":833,"x_min":54,"x_max":828,"o":"m 766 311 q 671 73 766 159 q 412 -14 576 -14 q 148 82 241 -14 q 54 355 54 178 q 162 635 54 537 q 474 734 269 734 l 828 734 l 828 605 l 736 605 l 652 609 l 652 606 q 739 457 712 530 q 766 311 766 385 m 567 334 q 498 605 567 480 l 461 605 q 354 575 401 605 q 280 488 307 545 q 254 355 254 431 q 295 177 254 237 q 408 117 336 117 q 526 175 485 117 q 567 334 567 233 z "},"τ":{"ha":833,"x_min":87,"x_max":726,"o":"m 258 605 q 152 597 202 605 q 87 580 102 589 l 87 714 q 139 728 103 722 q 211 734 176 734 l 726 734 l 726 605 l 492 605 l 492 212 q 511 141 492 163 q 576 120 530 120 q 646 125 603 120 l 646 1 q 582 -9 625 -5 q 513 -14 538 -14 q 353 31 402 -14 q 303 170 303 76 l 303 605 l 258 605 z "},"φ":{"ha":833,"x_min":28,"x_max":805,"o":"m 805 383 q 722 99 805 200 q 486 -12 639 -3 l 486 -288 l 338 -288 l 338 -14 q 108 92 188 -6 q 28 369 28 191 q 95 621 28 526 q 305 750 162 715 l 319 629 q 222 544 256 612 q 187 369 187 476 q 225 181 187 243 q 338 113 263 119 l 338 476 q 396 680 338 610 q 565 749 454 749 q 739 650 673 749 q 805 383 805 551 m 646 385 q 624 566 646 502 q 562 631 602 631 q 505 594 524 631 q 486 474 486 557 l 486 113 q 607 184 568 117 q 646 385 646 252 z "},"‗":{"ha":833,"x_min":-3,"x_max":836,"o":"m -3 -149 l -3 -84 l 836 -84 l 836 -149 l -3 -149 m -3 -288 l -3 -223 l 836 -223 l 836 -288 l -3 -288 z "},"‼":{"ha":833,"x_min":123,"x_max":709,"o":"m 301 289 l 145 289 l 123 915 l 323 915 l 301 289 m 123 0 l 123 183 l 319 183 l 319 0 l 123 0 m 688 289 l 532 289 l 510 915 l 709 915 l 688 289 m 510 0 l 510 183 l 705 183 l 705 0 l 510 0 z "},"ⁿ":{"ha":833,"x_min":222,"x_max":630,"o":"m 509 352 l 509 612 q 493 694 509 671 q 437 717 477 717 q 370 684 395 717 q 345 590 345 652 l 345 352 l 224 352 l 224 699 l 222 793 l 334 793 q 336 782 335 791 q 337 761 336 772 q 340 718 338 749 l 342 718 q 399 781 366 762 q 483 801 433 801 q 594 764 557 801 q 630 646 630 728 l 630 352 l 509 352 z "},"₧":{"ha":833,"x_min":31,"x_max":821,"o":"m 395 688 q 337 510 395 576 q 181 444 279 444 l 153 444 l 153 0 l 31 0 l 31 915 l 173 915 q 395 688 395 915 m 821 123 q 785 30 821 66 q 690 -7 750 -7 q 604 25 639 -7 q 562 111 570 58 l 642 122 q 692 62 654 62 q 718 76 709 62 q 726 102 726 89 q 710 148 726 127 q 663 191 695 169 q 591 259 612 226 q 569 332 569 293 q 605 418 569 387 q 696 450 640 450 q 774 418 741 450 q 812 336 807 386 l 732 328 q 718 367 728 353 q 694 382 707 382 q 672 371 680 382 q 664 343 664 361 q 682 299 664 318 q 734 256 700 279 q 821 123 821 197 m 271 686 q 247 781 271 751 q 164 811 223 811 l 153 811 l 153 546 l 170 546 q 271 686 271 546 m 302 368 l 302 441 l 357 441 l 397 537 l 458 537 l 458 441 l 547 441 l 547 368 l 458 368 l 458 121 q 498 68 458 68 q 547 73 528 68 l 547 1 q 477 -7 512 -7 q 388 21 420 -7 q 356 102 356 49 l 356 368 l 302 368 z "},"←":{"ha":833,"x_min":5,"x_max":827,"o":"m 157 201 q 237 68 195 156 l 189 68 q 5 218 102 169 l 5 243 q 189 393 102 292 l 237 393 q 157 260 195 305 l 827 260 l 827 201 l 157 201 z "},"↑":{"ha":833,"x_min":254,"x_max":579,"o":"m 387 629 q 254 549 342 591 l 254 597 q 404 781 355 684 l 429 781 q 579 597 478 684 l 579 549 q 446 629 491 591 l 446 -41 l 387 -41 l 387 629 z "},"→":{"ha":833,"x_min":5,"x_max":827,"o":"m 676 260 q 595 393 637 305 l 644 393 q 827 243 730 292 l 827 218 q 644 68 730 169 l 595 68 q 676 201 637 156 l 5 201 l 5 260 l 676 260 z "},"↓":{"ha":833,"x_min":254,"x_max":579,"o":"m 446 110 q 579 191 491 149 l 579 142 q 429 -41 478 56 l 404 -41 q 254 142 355 56 l 254 191 q 387 110 342 149 l 387 781 l 446 781 l 446 110 z "},"↔":{"ha":833,"x_min":5,"x_max":827,"o":"m 157 201 q 237 68 195 156 l 189 68 q 5 218 102 169 l 5 243 q 189 393 102 292 l 237 393 q 157 260 195 305 l 676 260 q 595 393 637 305 l 644 393 q 827 243 730 292 l 827 218 q 644 68 730 169 l 595 68 q 676 201 637 156 l 157 201 z "},"↕":{"ha":833,"x_min":254,"x_max":579,"o":"m 387 629 q 254 549 342 591 l 254 597 q 404 781 355 684 l 429 781 q 579 597 478 684 l 579 549 q 446 629 491 591 l 446 110 q 579 191 491 149 l 579 142 q 429 -41 478 56 l 404 -41 q 254 142 355 56 l 254 191 q 387 110 342 149 l 387 629 z "},"↨":{"ha":833,"x_min":254,"x_max":579,"o":"m 254 -71 l 579 -71 l 579 -125 l 254 -125 l 254 -71 m 387 629 q 254 549 342 591 l 254 597 q 404 781 355 684 l 429 781 q 579 597 478 684 l 579 549 q 446 629 491 591 l 446 110 q 579 191 491 149 l 579 142 q 429 -41 478 56 l 404 -41 q 254 142 355 56 l 254 191 q 387 110 342 149 l 387 629 z "},"∟":{"ha":833,"x_min":35,"x_max":798,"o":"m 35 829 l 99 829 l 99 64 l 798 64 l 798 0 l 35 0 l 35 829 z "},"∩":{"ha":833,"x_min":106,"x_max":727,"o":"m 106 -1 l 106 346 q 145 529 106 448 q 255 655 184 610 q 414 700 326 700 q 575 655 503 700 q 687 528 646 610 q 727 346 727 446 l 727 -1 l 657 -1 l 657 347 q 591 553 657 476 q 416 631 524 631 q 241 554 306 631 q 176 346 176 477 l 176 -1 l 106 -1 z "},"≡":{"ha":833,"x_min":79,"x_max":753,"o":"m 79 648 l 79 749 l 753 749 l 753 648 l 79 648 m 79 165 l 79 266 l 753 266 l 753 165 l 79 165 m 79 407 l 79 507 l 753 507 l 753 407 l 79 407 z "},"⌂":{"ha":833,"x_min":94,"x_max":739,"o":"m 94 0 l 94 431 l 416 734 l 739 431 l 739 0 l 94 0 m 150 58 l 683 58 l 683 405 l 416 656 l 150 405 l 150 58 z "},"⌐":{"ha":833,"x_min":78,"x_max":753,"o":"m 178 412 l 178 122 l 78 122 l 79 511 l 753 511 l 753 412 l 178 412 z "},"⌠":{"ha":833,"x_min":368,"x_max":696,"o":"m 466 -417 l 368 -417 l 368 819 q 423 1066 368 977 q 580 1156 479 1156 q 662 1132 627 1156 q 696 1069 696 1107 q 679 1026 696 1042 q 638 1009 662 1009 q 597 1021 612 1009 q 573 1048 583 1034 q 554 1075 563 1063 q 530 1087 545 1087 q 480 1036 495 1087 q 466 871 466 985 l 466 -417 z "},"⌡":{"ha":833,"x_min":138,"x_max":466,"o":"m 368 1156 l 466 1156 l 466 -79 q 410 -329 466 -240 q 254 -417 353 -417 q 172 -392 206 -417 q 138 -330 138 -368 q 155 -287 138 -303 q 195 -270 172 -270 q 236 -282 222 -270 q 261 -309 251 -294 q 280 -336 271 -323 q 304 -348 289 -348 q 353 -297 338 -348 q 368 -132 368 -245 l 368 1156 z "},"─":{"ha":833,"x_min":-7,"x_max":840,"o":"m -7 376 l -7 475 l 840 475 l 840 376 l -7 376 z "},"│":{"ha":833,"x_min":368,"x_max":466,"o":"m 368 1156 l 466 1156 l 466 -417 l 368 -417 l 368 1156 z "},"┌":{"ha":833,"x_min":368,"x_max":840,"o":"m 368 475 l 840 475 l 840 376 l 466 376 l 466 -417 l 368 -417 l 368 475 z "},"┐":{"ha":833,"x_min":-7,"x_max":466,"o":"m -7 376 l -7 475 l 466 475 l 466 -417 l 368 -417 l 368 376 l -7 376 z "},"└":{"ha":833,"x_min":368,"x_max":840,"o":"m 368 1156 l 466 1156 l 466 475 l 840 475 l 840 376 l 368 376 l 368 1156 z "},"┘":{"ha":833,"x_min":-7,"x_max":466,"o":"m -7 376 l -7 475 l 368 475 l 368 1156 l 466 1156 l 466 376 l -7 376 z "},"├":{"ha":833,"x_min":368,"x_max":840,"o":"m 368 1156 l 466 1156 l 466 475 l 840 475 l 840 376 l 466 376 l 466 -417 l 368 -417 l 368 1156 z "},"┤":{"ha":833,"x_min":-7,"x_max":466,"o":"m -7 376 l -7 475 l 368 475 l 368 1156 l 466 1156 l 466 -417 l 368 -417 l 368 376 l -7 376 z "},"┬":{"ha":833,"x_min":-7,"x_max":840,"o":"m -7 376 l -7 475 l 840 475 l 840 376 l 466 376 l 466 -417 l 368 -417 l 368 376 l -7 376 z "},"┴":{"ha":833,"x_min":-7,"x_max":840,"o":"m -7 376 l -7 475 l 368 475 l 368 1156 l 466 1156 l 466 475 l 840 475 l 840 376 l -7 376 z "},"┼":{"ha":833,"x_min":-7,"x_max":840,"o":"m -7 376 l -7 475 l 368 475 l 368 1156 l 466 1156 l 466 475 l 840 475 l 840 376 l 466 376 l 466 -417 l 368 -417 l 368 376 l -7 376 z "},"═":{"ha":833,"x_min":-7,"x_max":840,"o":"m -7 498 l -7 597 l 840 597 l 840 498 l -7 498 m -7 254 l -7 353 l 840 353 l 840 254 l -7 254 z "},"║":{"ha":833,"x_min":245,"x_max":588,"o":"m 245 1156 l 344 1156 l 344 -417 l 245 -417 l 245 1156 m 490 1156 l 588 1156 l 588 -417 l 490 -417 l 490 1156 z "},"╒":{"ha":833,"x_min":368,"x_max":840,"o":"m 368 597 l 840 597 l 840 498 l 466 498 l 466 353 l 840 353 l 840 254 l 466 254 l 466 -417 l 368 -417 l 368 597 z "},"╓":{"ha":833,"x_min":245,"x_max":840,"o":"m 840 475 l 840 376 l 588 376 l 588 -417 l 490 -417 l 490 376 l 344 376 l 344 -417 l 245 -417 l 245 475 l 840 475 z "},"╔":{"ha":833,"x_min":245,"x_max":840,"o":"m 245 597 l 840 597 l 840 498 l 344 498 l 344 -417 l 245 -417 l 245 597 m 490 353 l 840 353 l 840 254 l 588 254 l 588 -417 l 490 -417 l 490 353 z "},"╕":{"ha":833,"x_min":-7,"x_max":466,"o":"m -7 254 l -7 353 l 368 353 l 368 498 l -7 498 l -7 597 l 466 597 l 466 -417 l 368 -417 l 368 254 l -7 254 z "},"╖":{"ha":833,"x_min":-7,"x_max":588,"o":"m -7 376 l -7 475 l 588 475 l 588 -417 l 490 -417 l 490 376 l 344 376 l 344 -417 l 245 -417 l 245 376 l -7 376 z "},"╗":{"ha":833,"x_min":-7,"x_max":588,"o":"m 588 597 l 588 -417 l 490 -417 l 490 498 l -7 498 l -7 597 l 588 597 m 344 -417 l 245 -417 l 245 254 l -7 254 l -7 353 l 344 353 l 344 -417 z "},"╘":{"ha":833,"x_min":368,"x_max":840,"o":"m 368 1156 l 466 1156 l 466 597 l 840 597 l 840 498 l 466 498 l 466 353 l 840 353 l 840 254 l 368 254 l 368 1156 z "},"╙":{"ha":833,"x_min":245,"x_max":840,"o":"m 490 1156 l 588 1156 l 588 475 l 840 475 l 840 376 l 245 376 l 245 1156 l 344 1156 l 344 475 l 490 475 l 490 1156 z "},"╚":{"ha":833,"x_min":245,"x_max":840,"o":"m 245 1156 l 344 1156 l 344 353 l 840 353 l 840 254 l 245 254 l 245 1156 m 490 1156 l 588 1156 l 588 597 l 840 597 l 840 498 l 490 498 l 490 1156 z "},"╛":{"ha":833,"x_min":-7,"x_max":466,"o":"m -7 254 l -7 353 l 368 353 l 368 498 l -7 498 l -7 597 l 368 597 l 368 1156 l 466 1156 l 466 254 l -7 254 z "},"╜":{"ha":833,"x_min":-7,"x_max":588,"o":"m 588 376 l -7 376 l -7 475 l 245 475 l 245 1156 l 344 1156 l 344 475 l 490 475 l 490 1156 l 588 1156 l 588 376 z "},"╝":{"ha":833,"x_min":-7,"x_max":588,"o":"m 588 254 l -7 254 l -7 353 l 490 353 l 490 1156 l 588 1156 l 588 254 m 245 1156 l 344 1156 l 344 498 l -7 498 l -7 597 l 245 597 l 245 1156 z "},"╞":{"ha":833,"x_min":368,"x_max":840,"o":"m 368 1156 l 466 1156 l 466 597 l 840 597 l 840 498 l 466 498 l 466 353 l 840 353 l 840 254 l 466 254 l 466 -417 l 368 -417 l 368 1156 z "},"╟":{"ha":833,"x_min":245,"x_max":840,"o":"m 490 1156 l 588 1156 l 588 475 l 840 475 l 840 376 l 588 376 l 588 -417 l 490 -417 l 490 1156 m 245 1156 l 344 1156 l 344 -417 l 245 -417 l 245 1156 z "},"╠":{"ha":833,"x_min":245,"x_max":840,"o":"m 344 -417 l 245 -417 l 245 1156 l 344 1156 l 344 -417 m 490 353 l 840 353 l 840 254 l 588 254 l 588 -417 l 490 -417 l 490 353 m 490 1156 l 588 1156 l 588 597 l 840 597 l 840 498 l 490 498 l 490 1156 z "},"╡":{"ha":833,"x_min":-7,"x_max":466,"o":"m -7 254 l -7 353 l 368 353 l 368 498 l -7 498 l -7 597 l 368 597 l 368 1156 l 466 1156 l 466 -417 l 368 -417 l 368 254 l -7 254 z "},"╢":{"ha":833,"x_min":-7,"x_max":588,"o":"m -7 376 l -7 475 l 245 475 l 245 1156 l 344 1156 l 344 -417 l 245 -417 l 245 376 l -7 376 m 490 1156 l 588 1156 l 588 -417 l 490 -417 l 490 1156 z "},"╣":{"ha":833,"x_min":-7,"x_max":588,"o":"m 490 1156 l 588 1156 l 588 -417 l 490 -417 l 490 1156 m 245 1156 l 344 1156 l 344 498 l -7 498 l -7 597 l 245 597 l 245 1156 m 344 -417 l 245 -417 l 245 254 l -7 254 l -7 353 l 344 353 l 344 -417 z "},"╤":{"ha":833,"x_min":-7,"x_max":840,"o":"m -7 254 l -7 353 l 840 353 l 840 254 l 466 254 l 466 -417 l 368 -417 l 368 254 l -7 254 m -7 498 l -7 597 l 840 597 l 840 498 l -7 498 z "},"╥":{"ha":833,"x_min":-7,"x_max":840,"o":"m -7 376 l -7 475 l 840 475 l 840 376 l 588 376 l 588 -417 l 490 -417 l 490 376 l 344 376 l 344 -417 l 245 -417 l 245 376 l -7 376 z "},"╦":{"ha":833,"x_min":-7,"x_max":840,"o":"m 344 -417 l 245 -417 l 245 254 l -7 254 l -7 353 l 344 353 l 344 -417 m 490 353 l 840 353 l 840 254 l 588 254 l 588 -417 l 490 -417 l 490 353 m 840 597 l 840 498 l -7 498 l -7 597 l 840 597 z "},"╧":{"ha":833,"x_min":-7,"x_max":840,"o":"m -7 498 l -7 597 l 368 597 l 368 1156 l 466 1156 l 466 597 l 840 597 l 840 498 l -7 498 m -7 254 l -7 353 l 840 353 l 840 254 l -7 254 z "},"╨":{"ha":833,"x_min":-7,"x_max":840,"o":"m -7 376 l -7 475 l 245 475 l 245 1156 l 344 1156 l 344 475 l 490 475 l 490 1156 l 588 1156 l 588 475 l 840 475 l 840 376 l -7 376 z "},"╩":{"ha":833,"x_min":-7,"x_max":840,"o":"m 490 1156 l 588 1156 l 588 597 l 840 597 l 840 498 l 490 498 l 490 1156 m 245 1156 l 344 1156 l 344 498 l -7 498 l -7 597 l 245 597 l 245 1156 m -7 254 l -7 353 l 840 353 l 840 254 l -7 254 z "},"╪":{"ha":833,"x_min":-7,"x_max":840,"o":"m -7 254 l -7 353 l 368 353 l 368 498 l -7 498 l -7 597 l 368 597 l 368 1156 l 466 1156 l 466 597 l 840 597 l 840 498 l 466 498 l 466 353 l 840 353 l 840 254 l 466 254 l 466 -417 l 368 -417 l 368 254 l -7 254 z "},"╫":{"ha":833,"x_min":-7,"x_max":840,"o":"m 490 1156 l 588 1156 l 588 475 l 840 475 l 840 376 l 588 376 l 588 -417 l 490 -417 l 490 376 l 344 376 l 344 -417 l 245 -417 l 245 376 l -7 376 l -7 475 l 245 475 l 245 1156 l 344 1156 l 344 475 l 490 475 l 490 1156 z "},"╬":{"ha":833,"x_min":-7,"x_max":840,"o":"m 490 1156 l 588 1156 l 588 597 l 840 597 l 840 498 l 490 498 l 490 1156 m 344 -417 l 245 -417 l 245 254 l -7 254 l -7 353 l 344 353 l 344 -417 m 490 353 l 840 353 l 840 254 l 588 254 l 588 -417 l 490 -417 l 490 353 m 245 1156 l 344 1156 l 344 498 l -7 498 l -7 597 l 245 597 l 245 1156 z "},"▀":{"ha":833,"x_min":0,"x_max":833,"o":"m 833 425 l 0 425 l 0 1156 l 833 1156 l 833 425 z "},"▄":{"ha":833,"x_min":0,"x_max":833,"o":"m 833 -417 l 0 -417 l 0 425 l 833 425 l 833 -417 z "},"█":{"ha":833,"x_min":0,"x_max":833,"o":"m 833 -417 l 0 -417 l 0 1156 l 833 1156 l 833 -417 z "},"▌":{"ha":833,"x_min":0,"x_max":417,"o":"m 417 -417 l 0 -417 l 0 1156 l 417 1156 l 417 -417 z "},"▐":{"ha":833,"x_min":416,"x_max":833,"o":"m 833 -417 l 416 -417 l 416 1156 l 833 1156 l 833 -417 z "},"░":{"ha":833,"x_min":0,"x_max":764,"o":"m 0 895 l 70 895 l 70 829 l 0 829 l 0 895 m 278 895 l 348 895 l 348 829 l 278 829 l 278 895 m 556 895 l 626 895 l 626 829 l 556 829 l 556 895 m 139 763 l 208 763 l 208 698 l 139 698 l 139 763 m 417 763 l 486 763 l 486 698 l 417 698 l 417 763 m 695 763 l 764 763 l 764 698 l 695 698 l 695 763 m 0 633 l 70 633 l 70 568 l 0 568 l 0 633 m 278 633 l 348 633 l 348 568 l 278 568 l 278 633 m 556 633 l 626 633 l 626 568 l 556 568 l 556 633 m 139 500 l 208 500 l 208 435 l 139 435 l 139 500 m 417 500 l 486 500 l 486 435 l 417 435 l 417 500 m 695 500 l 764 500 l 764 435 l 695 435 l 695 500 m 0 370 l 70 370 l 70 305 l 0 305 l 0 370 m 278 370 l 348 370 l 348 305 l 278 305 l 278 370 m 556 370 l 626 370 l 626 305 l 556 305 l 556 370 m 417 238 l 486 238 l 486 173 l 417 173 l 417 238 m 695 238 l 764 238 l 764 173 l 695 173 l 695 238 m 139 238 l 208 238 l 208 173 l 139 173 l 139 238 m 556 108 l 626 108 l 626 42 l 556 42 l 556 108 m 278 108 l 348 108 l 348 42 l 278 42 l 278 108 m 0 108 l 70 108 l 70 42 l 0 42 l 0 108 m 139 -24 l 208 -24 l 208 -88 l 139 -88 l 139 -24 m 417 -24 l 486 -24 l 486 -88 l 417 -88 l 417 -24 m 695 -24 l 764 -24 l 764 -88 l 695 -88 l 695 -24 m 556 -155 l 626 -155 l 626 -220 l 556 -220 l 556 -155 m 278 -155 l 348 -155 l 348 -220 l 278 -220 l 278 -155 m 0 -155 l 70 -155 l 70 -220 l 0 -220 l 0 -155 m 139 -286 l 208 -286 l 208 -351 l 139 -351 l 139 -286 m 417 -286 l 486 -286 l 486 -351 l 417 -351 l 417 -286 m 695 -286 l 764 -286 l 764 -351 l 695 -351 l 695 -286 m 139 1025 l 208 1025 l 208 959 l 139 959 l 139 1025 m 417 1025 l 486 1025 l 486 959 l 417 959 l 417 1025 m 695 1025 l 764 1025 l 764 959 l 695 959 l 695 1025 m 0 1156 l 70 1156 l 70 1091 l 0 1091 l 0 1156 m 278 1156 l 348 1156 l 348 1091 l 278 1091 l 278 1156 m 556 1156 l 626 1156 l 626 1091 l 556 1091 l 556 1156 z "},"▒":{"ha":833,"x_min":0,"x_max":834,"o":"m 69 895 l 139 895 l 139 829 l 69 829 l 69 895 m 208 895 l 278 895 l 278 829 l 208 829 l 208 895 m 347 895 l 417 895 l 417 829 l 347 829 l 347 895 m 486 895 l 556 895 l 556 829 l 486 829 l 486 895 m 625 895 l 695 895 l 695 829 l 625 829 l 625 895 m 764 895 l 834 895 l 834 829 l 764 829 l 764 895 m 0 763 l 69 763 l 69 698 l 0 698 l 0 763 m 139 763 l 208 763 l 208 698 l 139 698 l 139 763 m 278 763 l 347 763 l 347 698 l 278 698 l 278 763 m 417 763 l 486 763 l 486 698 l 417 698 l 417 763 m 556 763 l 625 763 l 625 698 l 556 698 l 556 763 m 695 763 l 764 763 l 764 698 l 695 698 l 695 763 m 69 633 l 139 633 l 139 568 l 69 568 l 69 633 m 208 633 l 278 633 l 278 568 l 208 568 l 208 633 m 347 633 l 417 633 l 417 568 l 347 568 l 347 633 m 486 633 l 556 633 l 556 568 l 486 568 l 486 633 m 625 633 l 695 633 l 695 568 l 625 568 l 625 633 m 764 633 l 834 633 l 834 568 l 764 568 l 764 633 m 0 500 l 69 500 l 69 435 l 0 435 l 0 500 m 139 500 l 208 500 l 208 435 l 139 435 l 139 500 m 278 500 l 347 500 l 347 435 l 278 435 l 278 500 m 417 500 l 486 500 l 486 435 l 417 435 l 417 500 m 556 500 l 625 500 l 625 435 l 556 435 l 556 500 m 695 500 l 764 500 l 764 435 l 695 435 l 695 500 m 69 370 l 139 370 l 139 305 l 69 305 l 69 370 m 208 370 l 278 370 l 278 305 l 208 305 l 208 370 m 347 370 l 417 370 l 417 305 l 347 305 l 347 370 m 486 370 l 556 370 l 556 305 l 486 305 l 486 370 m 625 370 l 695 370 l 695 305 l 625 305 l 625 370 m 764 370 l 834 370 l 834 305 l 764 305 l 764 370 m 0 238 l 69 238 l 69 173 l 0 173 l 0 238 m 278 238 l 347 238 l 347 173 l 278 173 l 278 238 m 417 238 l 486 238 l 486 173 l 417 173 l 417 238 m 556 238 l 625 238 l 625 173 l 556 173 l 556 238 m 695 238 l 764 238 l 764 173 l 695 173 l 695 238 m 139 238 l 208 238 l 208 173 l 139 173 l 139 238 m 764 108 l 834 108 l 834 42 l 764 42 l 764 108 m 625 108 l 695 108 l 695 42 l 625 42 l 625 108 m 486 108 l 556 108 l 556 42 l 486 42 l 486 108 m 347 108 l 417 108 l 417 42 l 347 42 l 347 108 m 208 108 l 278 108 l 278 42 l 208 42 l 208 108 m 69 108 l 139 108 l 139 42 l 69 42 l 69 108 m 0 -24 l 69 -24 l 69 -88 l 0 -88 l 0 -24 m 139 -24 l 208 -24 l 208 -88 l 139 -88 l 139 -24 m 278 -24 l 347 -24 l 347 -88 l 278 -88 l 278 -24 m 417 -24 l 486 -24 l 486 -88 l 417 -88 l 417 -24 m 556 -24 l 625 -24 l 625 -88 l 556 -88 l 556 -24 m 695 -24 l 764 -24 l 764 -88 l 695 -88 l 695 -24 m 764 -155 l 834 -155 l 834 -220 l 764 -220 l 764 -155 m 625 -155 l 695 -155 l 695 -220 l 625 -220 l 625 -155 m 486 -155 l 556 -155 l 556 -220 l 486 -220 l 486 -155 m 347 -155 l 417 -155 l 417 -220 l 347 -220 l 347 -155 m 208 -155 l 278 -155 l 278 -220 l 208 -220 l 208 -155 m 69 -155 l 139 -155 l 139 -220 l 69 -220 l 69 -155 m 0 -286 l 69 -286 l 69 -351 l 0 -351 l 0 -286 m 139 -286 l 208 -286 l 208 -351 l 139 -351 l 139 -286 m 278 -286 l 347 -286 l 347 -351 l 278 -351 l 278 -286 m 417 -286 l 486 -286 l 486 -351 l 417 -351 l 417 -286 m 556 -286 l 625 -286 l 625 -351 l 556 -351 l 556 -286 m 695 -286 l 764 -286 l 764 -351 l 695 -351 l 695 -286 m 0 1025 l 69 1025 l 69 959 l 0 959 l 0 1025 m 139 1025 l 208 1025 l 208 959 l 139 959 l 139 1025 m 278 1025 l 347 1025 l 347 959 l 278 959 l 278 1025 m 417 1025 l 486 1025 l 486 959 l 417 959 l 417 1025 m 556 1025 l 625 1025 l 625 959 l 556 959 l 556 1025 m 695 1025 l 764 1025 l 764 959 l 695 959 l 695 1025 m 69 1156 l 139 1156 l 139 1091 l 69 1091 l 69 1156 m 208 1156 l 278 1156 l 278 1091 l 208 1091 l 208 1156 m 347 1156 l 417 1156 l 417 1091 l 347 1091 l 347 1156 m 486 1156 l 556 1156 l 556 1091 l 486 1091 l 486 1156 m 625 1156 l 695 1156 l 695 1091 l 625 1091 l 625 1156 m 764 1156 l 834 1156 l 834 1091 l 764 1091 l 764 1156 z "},"▓":{"ha":833,"x_min":0,"x_max":834,"o":"m 834 -417 l 0 -417 l 0 -220 l 69 -220 l 69 -155 l 0 -155 l 0 42 l 69 42 l 69 108 l 0 108 l 0 305 l 69 305 l 69 370 l 0 370 l 0 566 l 69 566 l 69 633 l 0 633 l 0 829 l 69 829 l 69 895 l 0 895 l 0 1091 l 69 1091 l 69 1156 l 139 1156 l 139 1091 l 208 1091 l 208 1156 l 278 1156 l 278 1091 l 347 1091 l 347 1156 l 417 1156 l 417 1091 l 486 1091 l 486 1156 l 556 1156 l 556 1091 l 625 1091 l 625 1156 l 695 1156 l 695 1091 l 764 1091 l 764 1156 l 834 1156 l 834 1025 l 764 1025 l 764 959 l 834 959 l 834 763 l 764 763 l 764 698 l 834 698 l 834 500 l 764 500 l 764 435 l 834 435 l 834 238 l 764 238 l 764 173 l 834 173 l 834 -24 l 764 -24 l 764 -88 l 834 -88 l 834 -286 l 764 -286 l 764 -351 l 834 -351 l 834 -417 m 69 763 l 69 698 l 139 698 l 139 763 l 69 763 m 208 763 l 208 698 l 278 698 l 278 763 l 208 763 m 347 763 l 347 698 l 417 698 l 417 763 l 347 763 m 486 763 l 486 698 l 556 698 l 556 763 l 486 763 m 625 633 l 556 633 l 556 566 l 625 566 l 625 633 m 486 633 l 417 633 l 417 566 l 486 566 l 486 633 m 347 633 l 278 633 l 278 566 l 347 566 l 347 633 m 208 633 l 139 633 l 139 566 l 208 566 l 208 633 m 69 500 l 69 435 l 139 435 l 139 500 l 69 500 m 208 500 l 208 435 l 278 435 l 278 500 l 208 500 m 347 500 l 347 435 l 417 435 l 417 500 l 347 500 m 486 500 l 486 435 l 556 435 l 556 500 l 486 500 m 208 370 l 139 370 l 139 305 l 208 305 l 208 370 m 278 370 l 278 305 l 347 305 l 347 370 l 278 370 m 417 370 l 417 305 l 486 305 l 486 370 l 417 370 m 556 370 l 556 305 l 625 305 l 625 370 l 556 370 m 69 238 l 69 173 l 139 173 l 139 238 l 69 238 m 347 238 l 347 173 l 417 173 l 417 238 l 347 238 m 278 173 l 278 238 l 208 238 l 208 173 l 278 173 m 486 238 l 486 173 l 556 173 l 556 238 l 486 238 m 625 42 l 625 108 l 556 108 l 556 42 l 625 42 m 486 42 l 486 108 l 417 108 l 417 42 l 486 42 m 347 42 l 347 108 l 278 108 l 278 42 l 347 42 m 208 42 l 208 108 l 139 108 l 139 42 l 208 42 m 69 -24 l 69 -88 l 139 -88 l 139 -24 l 69 -24 m 208 -24 l 208 -88 l 278 -88 l 278 -24 l 208 -24 m 347 -24 l 347 -88 l 417 -88 l 417 -24 l 347 -24 m 486 -24 l 486 -88 l 556 -88 l 556 -24 l 486 -24 m 625 -220 l 625 -155 l 556 -155 l 556 -220 l 625 -220 m 486 -220 l 486 -155 l 417 -155 l 417 -220 l 486 -220 m 347 -220 l 347 -155 l 278 -155 l 278 -220 l 347 -220 m 208 -220 l 208 -155 l 139 -155 l 139 -220 l 208 -220 m 69 -286 l 69 -351 l 139 -351 l 139 -286 l 69 -286 m 208 -286 l 208 -351 l 278 -351 l 278 -286 l 208 -286 m 347 -286 l 347 -351 l 417 -351 l 417 -286 l 347 -286 m 486 -286 l 486 -351 l 556 -351 l 556 -286 l 486 -286 m 625 895 l 556 895 l 556 829 l 625 829 l 625 895 m 486 895 l 417 895 l 417 829 l 486 829 l 486 895 m 347 895 l 278 895 l 278 829 l 347 829 l 347 895 m 208 895 l 139 895 l 139 829 l 208 829 l 208 895 m 556 1025 l 486 1025 l 486 959 l 556 959 l 556 1025 m 417 1025 l 347 1025 l 347 959 l 417 959 l 417 1025 m 278 1025 l 208 1025 l 208 959 l 278 959 l 278 1025 m 139 1025 l 69 1025 l 69 959 l 139 959 l 139 1025 m 625 763 l 625 698 l 695 698 l 695 763 l 625 763 m 764 633 l 695 633 l 695 566 l 764 566 l 764 633 m 625 500 l 625 435 l 695 435 l 695 500 l 625 500 m 695 370 l 695 305 l 764 305 l 764 370 l 695 370 m 625 238 l 625 173 l 695 173 l 695 238 l 625 238 m 764 42 l 764 108 l 695 108 l 695 42 l 764 42 m 625 -24 l 625 -88 l 695 -88 l 695 -24 l 625 -24 m 764 -220 l 764 -155 l 695 -155 l 695 -220 l 764 -220 m 625 -286 l 625 -351 l 695 -351 l 695 -286 l 625 -286 m 764 895 l 695 895 l 695 829 l 764 829 l 764 895 m 695 1025 l 625 1025 l 625 959 l 695 959 l 695 1025 z "},"■":{"ha":833,"x_min":81,"x_max":753,"o":"m 81 751 l 753 751 l 753 79 l 81 79 l 81 751 z "},"▬":{"ha":833,"x_min":5,"x_max":828,"o":"m 5 370 l 828 370 l 828 47 l 5 47 l 5 370 z "},"▲":{"ha":833,"x_min":10,"x_max":823,"o":"m 10 34 l 417 812 l 823 34 l 10 34 z "},"►":{"ha":833,"x_min":35,"x_max":832,"o":"m 35 811 l 832 397 l 35 -18 l 35 811 z "},"▼":{"ha":833,"x_min":10,"x_max":823,"o":"m 823 760 l 417 -18 l 10 760 l 823 760 z "},"◄":{"ha":833,"x_min":1,"x_max":798,"o":"m 798 811 l 798 -18 l 1 397 l 798 811 z "},"○":{"ha":833,"x_min":111,"x_max":723,"o":"m 111 415 q 151 569 111 498 q 263 681 192 640 q 416 722 334 722 q 570 681 498 722 q 682 569 641 640 q 723 415 723 497 q 682 262 723 333 q 570 151 641 191 q 416 110 499 110 q 262 151 333 110 q 151 262 192 191 q 111 415 111 332 m 169 415 q 202 291 169 349 q 292 201 235 234 q 416 168 349 168 q 539 201 482 168 q 631 291 597 233 q 665 415 665 349 q 631 539 665 481 q 540 631 598 597 q 416 664 482 664 q 293 631 350 664 q 202 540 235 597 q 169 415 169 483 z "},"◘":{"ha":833,"x_min":25,"x_max":808,"o":"m 25 0 l 25 783 l 808 783 l 808 0 l 25 0 m 117 391 q 157 242 117 311 q 266 133 197 173 q 415 93 334 93 q 565 133 495 93 q 674 242 634 173 q 714 391 714 312 q 674 541 714 471 q 565 650 634 610 q 415 690 496 690 q 266 650 335 690 q 156 541 196 610 q 117 391 117 471 z "},"◙":{"ha":833,"x_min":25,"x_max":808,"o":"m 25 0 l 25 783 l 808 783 l 808 0 l 25 0 m 169 391 q 202 515 169 457 q 293 606 235 572 q 416 639 351 639 q 540 606 482 639 q 631 515 597 572 q 664 391 664 457 q 631 268 664 326 q 540 177 597 210 q 416 144 482 144 q 293 177 351 144 q 202 268 235 210 q 169 391 169 326 m 117 391 q 157 242 117 311 q 266 133 197 173 q 415 93 334 93 q 565 133 495 93 q 674 242 634 173 q 714 391 714 312 q 674 541 714 471 q 565 650 634 610 q 415 690 496 690 q 266 650 335 690 q 156 541 196 610 q 117 391 117 471 z "},"☺":{"ha":833,"x_min":18,"x_max":814,"o":"m 18 399 q 72 599 18 507 q 217 744 125 691 q 416 798 309 798 q 615 744 524 798 q 761 599 707 691 q 814 399 814 507 q 761 200 814 292 q 616 55 708 108 q 416 1 524 1 q 217 55 309 1 q 72 200 125 108 q 18 399 18 292 m 61 399 q 109 222 61 304 q 238 92 156 140 q 416 44 321 44 q 594 92 511 44 q 724 222 676 140 q 771 399 771 305 q 724 576 771 494 q 594 706 676 659 q 416 754 512 754 q 239 707 321 754 q 109 576 157 659 q 61 399 61 494 m 221 503 q 235 536 221 522 q 269 551 249 551 q 302 536 288 551 q 317 503 317 522 q 302 469 317 483 q 269 455 288 455 q 235 469 249 455 q 221 503 221 483 m 516 503 q 530 536 516 522 q 564 551 544 551 q 597 536 583 551 q 612 503 612 522 q 597 469 612 483 q 564 455 583 455 q 530 469 544 455 q 516 503 516 483 m 239 300 q 321 227 279 247 q 416 208 363 208 q 513 228 471 208 q 593 300 555 248 l 633 267 q 416 146 557 146 q 329 160 368 146 q 261 197 290 174 q 200 267 231 220 l 239 300 z "},"☻":{"ha":833,"x_min":18,"x_max":814,"o":"m 18 399 q 72 599 18 507 q 217 744 125 691 q 416 798 309 798 q 615 744 524 798 q 761 599 707 691 q 814 399 814 507 q 761 200 814 292 q 616 55 708 108 q 416 1 524 1 q 217 55 309 1 q 72 200 125 108 q 18 399 18 292 m 221 503 q 235 469 221 483 q 269 455 249 455 q 302 469 288 455 q 317 503 317 483 q 302 536 317 522 q 269 551 288 551 q 235 536 249 551 q 221 503 221 522 m 516 503 q 530 469 516 483 q 564 455 544 455 q 597 469 583 455 q 612 503 612 483 q 597 536 612 522 q 564 551 583 551 q 530 536 544 551 q 516 503 516 522 m 200 267 q 260 197 231 220 q 328 160 290 174 q 416 146 367 146 q 633 267 557 146 l 593 300 q 512 227 554 247 q 416 208 469 208 q 320 228 363 208 q 239 300 278 248 l 200 267 z "},"☼":{"ha":833,"x_min":18,"x_max":815,"o":"m 152 615 l 263 503 q 392 557 322 550 l 392 715 l 441 715 l 441 557 q 569 503 510 551 l 681 615 l 715 581 l 604 469 q 657 340 651 410 l 815 340 l 815 292 l 657 292 q 604 163 650 222 l 715 52 l 681 17 l 569 128 q 441 75 510 81 l 441 -83 l 392 -83 l 392 75 q 263 128 322 81 l 152 17 l 117 52 l 229 163 q 175 292 182 222 l 18 292 l 18 340 l 175 340 q 229 469 181 410 l 117 581 l 152 615 m 223 316 q 279 179 223 236 q 416 123 335 123 q 554 179 498 123 q 610 316 610 236 q 553 453 610 396 q 416 509 496 509 q 280 453 336 509 q 223 316 223 396 z "},"♀":{"ha":833,"x_min":214,"x_max":618,"o":"m 233 255 l 392 255 l 392 392 q 264 459 315 401 q 214 593 214 517 q 274 735 214 676 q 416 795 333 795 q 559 735 500 795 q 618 593 618 676 q 568 460 618 517 q 441 392 518 402 l 441 255 l 600 255 l 600 206 l 441 206 l 441 47 l 392 47 l 392 206 l 233 206 l 233 255 m 263 593 q 308 484 263 529 q 416 439 353 439 q 525 485 481 439 q 570 593 570 530 q 525 701 570 656 q 416 746 480 746 q 309 702 355 746 q 263 593 263 658 z "},"♂":{"ha":833,"x_min":111,"x_max":697,"o":"m 111 279 q 171 422 111 363 q 313 481 230 481 q 437 438 382 481 l 612 612 l 458 626 l 457 663 l 682 663 l 697 648 l 697 423 l 660 425 l 646 578 l 472 404 q 515 279 515 349 q 456 137 515 196 q 313 77 397 77 q 171 137 230 77 q 111 279 111 196 m 160 279 q 205 171 160 216 q 313 126 250 126 q 422 172 378 126 q 467 279 467 217 q 422 388 467 342 q 313 433 377 433 q 206 389 252 433 q 160 279 160 345 z "},"♠":{"ha":833,"x_min":69,"x_max":764,"o":"m 434 810 q 482 680 434 752 q 604 549 530 608 q 728 429 692 480 q 764 324 764 378 q 718 207 764 251 q 604 163 671 163 q 519 182 564 163 q 449 231 474 201 q 508 89 449 140 q 666 38 568 38 l 666 0 l 167 0 l 167 38 q 325 89 265 38 q 384 231 384 140 q 313 182 358 201 q 229 163 269 163 q 115 207 161 163 q 69 324 69 251 q 103 426 69 376 q 229 549 136 475 q 351 680 302 607 q 399 810 399 753 l 434 810 z "},"♣":{"ha":833,"x_min":66,"x_max":767,"o":"m 416 810 q 516 790 474 810 q 581 732 558 769 q 604 652 604 695 q 582 561 604 606 q 524 492 559 516 l 562 494 q 710 447 653 494 q 767 324 767 401 q 721 207 767 251 q 608 163 675 163 q 520 183 566 163 q 449 231 474 203 q 508 89 449 140 q 666 38 568 38 l 666 0 l 167 0 l 167 38 q 325 89 265 38 q 384 231 384 140 q 314 183 359 203 q 225 163 268 163 q 112 207 157 163 q 66 324 66 251 q 123 448 66 401 q 271 494 180 494 l 309 492 q 251 561 274 516 q 229 652 229 606 q 252 732 229 695 q 317 790 275 769 q 416 810 359 810 z "},"♥":{"ha":833,"x_min":69,"x_max":764,"o":"m 399 -1 q 358 116 399 45 q 229 294 318 187 q 69 597 69 488 q 92 683 69 644 q 153 743 115 722 q 235 765 192 765 q 345 721 296 765 q 414 609 394 676 l 418 609 q 488 721 439 677 q 597 765 538 765 q 680 743 641 765 q 741 683 718 722 q 764 597 764 644 q 604 294 764 488 q 501 159 531 204 q 452 73 471 113 q 434 -1 434 33 l 399 -1 z "},"♦":{"ha":833,"x_min":90,"x_max":743,"o":"m 90 405 l 90 407 q 412 812 258 600 l 420 812 q 743 407 574 600 l 743 405 q 420 -1 574 212 l 412 -1 q 90 405 258 212 z "},"♪":{"ha":833,"x_min":191,"x_max":635,"o":"m 534 184 q 572 249 558 210 q 586 332 586 288 q 549 459 586 403 q 450 535 511 515 l 450 130 q 404 50 450 83 q 300 16 358 16 q 222 39 253 16 q 191 100 191 62 q 238 178 191 144 q 340 212 284 212 q 408 197 380 212 l 408 764 l 434 764 q 524 602 442 685 q 609 485 583 541 q 635 360 635 429 q 617 265 635 311 q 566 184 598 219 l 534 184 z "},"♫":{"ha":833,"x_min":76,"x_max":735,"o":"m 585 30 q 507 53 538 30 q 476 114 476 76 q 523 192 476 158 q 625 226 569 226 q 693 210 665 226 l 693 505 l 335 450 l 335 82 q 289 2 335 36 q 184 -31 243 -31 q 107 -8 138 -31 q 76 53 76 15 q 122 131 76 97 q 225 165 169 165 q 293 149 264 165 l 293 715 l 735 783 l 735 143 q 689 63 735 97 q 585 30 643 30 m 335 545 l 693 600 l 693 682 l 335 627 l 335 545 z "},"Ĳ":{"ha":833,"x_min":50,"x_max":786,"o":"m 50 915 l 242 915 l 242 0 l 50 0 l 50 915 m 532 -14 q 354 47 414 -14 q 283 244 294 107 l 462 270 q 485 172 469 201 q 536 143 501 143 q 580 175 568 143 q 592 281 592 207 l 592 758 l 420 758 l 420 915 l 786 915 l 786 302 q 532 -14 786 -14 z "},"ĳ":{"ha":833,"x_min":115,"x_max":714,"o":"m 306 0 l 115 0 l 115 734 l 306 734 l 306 0 m 115 866 l 115 1006 l 306 1006 l 306 866 l 115 866 m 714 -9 q 676 -159 714 -96 q 567 -255 637 -222 q 403 -288 496 -288 q 294 -279 349 -288 q 208 -259 238 -271 l 208 -117 q 386 -140 300 -140 q 492 -103 460 -140 q 523 7 523 -67 l 523 734 l 714 734 l 714 -9 m 524 866 l 524 1006 l 714 1006 l 714 866 l 524 866 z "},"ŉ":{"ha":833,"x_min":0,"x_max":804,"o":"m 614 0 l 614 420 q 589 561 614 516 q 511 605 565 605 q 410 544 450 605 q 370 393 370 484 l 370 0 l 179 0 l 179 570 q 177 666 179 629 q 174 734 176 704 l 355 734 q 361 665 357 721 q 364 588 364 609 l 367 588 q 589 748 441 748 q 749 676 694 748 q 804 466 804 604 l 804 0 l 614 0 m 0 675 l 0 697 l 60 916 l 235 916 l 235 890 l 112 675 l 0 675 z "},"′":{"ha":833,"x_min":324,"x_max":509,"o":"m 484 572 l 349 572 l 324 1007 l 509 1007 l 484 572 z "},"″":{"ha":833,"x_min":170,"x_max":665,"o":"m 639 572 l 504 572 l 479 1007 l 665 1007 l 639 572 m 330 572 l 195 572 l 170 1007 l 355 1007 l 330 572 z "},"℅":{"ha":833,"x_min":0,"x_max":833,"o":"m 833 274 q 785 65 833 138 q 650 -8 737 -8 q 517 65 564 -8 q 471 274 471 138 q 516 488 471 417 q 653 559 561 559 q 833 274 833 559 m 720 274 q 653 471 720 471 q 584 274 584 471 q 602 130 584 179 q 652 80 620 80 q 702 131 684 80 q 720 274 720 182 m 113 641 q 132 494 113 544 q 184 445 151 445 q 222 473 210 445 q 241 559 235 501 l 351 553 q 297 409 341 465 q 187 354 253 354 q 48 430 96 354 q 0 639 0 505 q 47 849 0 776 q 186 922 95 922 q 292 873 251 922 q 347 733 334 823 l 237 726 q 223 798 229 780 q 208 824 217 815 q 184 832 198 832 q 113 641 113 832 m 225 0 l 132 0 l 608 915 l 700 915 l 225 0 z "},"ℓ":{"ha":833,"x_min":106,"x_max":707,"o":"m 473 132 q 556 168 527 132 q 600 277 585 204 l 699 277 q 418 -14 642 -14 q 249 43 303 -14 q 195 210 195 100 l 195 323 l 106 290 l 106 422 l 195 455 l 195 720 q 267 905 195 842 q 467 969 338 969 q 644 917 581 969 q 707 768 707 864 q 623 541 707 637 q 385 392 538 445 l 385 256 q 473 132 385 132 m 545 751 q 527 826 545 798 q 470 854 509 854 q 391 754 391 854 l 391 526 q 504 616 463 555 q 545 751 545 677 z "},"□":{"ha":833,"x_min":1,"x_max":832,"o":"m 1 831 l 832 831 l 832 0 l 1 0 l 1 831 m 53 779 l 53 52 l 781 52 l 781 779 l 53 779 z "},"▪":{"ha":833,"x_min":244,"x_max":589,"o":"m 589 260 l 244 260 l 244 604 l 589 604 l 589 260 z "},"▫":{"ha":833,"x_min":244,"x_max":589,"o":"m 589 260 l 244 260 l 244 604 l 589 604 l 589 260 m 537 311 l 537 551 l 296 551 l 296 311 l 537 311 z "},"●":{"ha":833,"x_min":118,"x_max":715,"o":"m 416 690 q 565 651 491 690 q 677 538 638 612 q 715 392 715 464 q 628 180 715 268 q 416 93 541 93 q 205 181 293 93 q 118 392 118 269 q 156 537 118 465 q 266 650 193 610 q 416 690 339 690 z "},"◦":{"ha":833,"x_min":248,"x_max":585,"o":"m 585 432 q 533 312 585 359 q 416 264 482 264 q 332 286 370 264 q 271 347 294 308 q 248 432 248 385 q 298 551 248 502 q 416 600 348 600 q 534 550 486 600 q 585 432 585 502 m 533 432 q 498 514 533 479 q 416 549 464 549 q 334 514 369 549 q 300 432 300 479 q 333 350 300 384 q 416 315 366 315 q 501 351 469 315 q 533 432 533 387 z "},"Ā":{"ha":833,"x_min":0,"x_max":833,"o":"m 833 0 l 634 0 l 572 224 l 262 224 l 200 0 l 0 0 l 300 915 l 534 915 l 833 0 m 417 791 q 397 706 412 763 q 304 374 382 650 l 530 374 q 436 709 450 654 q 417 791 422 764 m 210 1111 l 625 1111 l 625 997 l 210 997 l 210 1111 z "},"ā":{"ha":833,"x_min":72,"x_max":799,"o":"m 298 -14 q 132 44 191 -14 q 72 208 72 102 q 143 381 72 321 q 355 442 214 440 l 506 445 l 506 482 q 482 588 506 552 q 406 624 458 624 q 333 599 356 624 q 304 520 309 574 l 105 530 q 414 747 142 747 q 624 680 551 747 q 696 483 696 613 l 696 217 q 710 132 696 155 q 757 109 724 109 q 799 113 779 109 l 799 9 q 768 2 782 5 q 741 -3 755 -1 q 712 -7 728 -5 q 677 -8 697 -8 q 571 27 605 -8 q 530 131 536 62 l 526 131 q 428 20 483 54 q 298 -14 374 -14 m 506 340 l 415 338 q 327 326 354 337 q 285 290 299 315 q 271 222 271 265 q 352 119 271 119 q 462 171 418 119 q 506 302 506 223 l 506 340 m 204 930 l 619 930 l 619 816 l 204 816 l 204 930 z "},"Ĉ":{"ha":833,"x_min":54,"x_max":795,"o":"m 258 462 q 305 227 258 309 q 447 144 353 144 q 610 309 557 144 l 795 274 q 445 -14 705 -14 q 154 107 254 -14 q 54 462 54 229 q 439 929 54 929 q 651 863 566 929 q 776 665 736 796 l 591 621 q 532 732 572 692 q 442 772 493 772 q 258 462 258 772 m 680 987 l 680 968 l 572 968 l 435 1059 l 432 1059 l 289 968 l 180 968 l 180 987 l 355 1156 l 511 1156 l 680 987 z "},"ĉ":{"ha":833,"x_min":75,"x_max":752,"o":"m 423 -14 q 165 86 256 -14 q 75 363 75 185 q 166 646 75 545 q 426 747 258 747 q 640 682 555 747 q 747 503 725 617 l 555 493 q 514 583 547 549 q 422 616 481 616 q 275 370 275 616 q 425 117 275 117 q 515 151 479 117 q 561 253 552 185 l 752 244 q 698 110 742 169 q 583 19 654 51 q 423 -14 512 -14 m 667 821 l 667 802 l 559 802 l 421 893 l 418 893 l 275 802 l 167 802 l 167 821 l 342 991 l 497 991 l 667 821 z "},"Ċ":{"ha":833,"x_min":54,"x_max":795,"o":"m 258 462 q 305 227 258 309 q 447 144 353 144 q 610 309 557 144 l 795 274 q 445 -14 705 -14 q 154 107 254 -14 q 54 462 54 229 q 439 929 54 929 q 651 863 566 929 q 776 665 736 796 l 591 621 q 532 732 572 692 q 442 772 493 772 q 258 462 258 772 m 342 964 l 342 1104 l 532 1104 l 532 964 l 342 964 z "},"ċ":{"ha":833,"x_min":75,"x_max":752,"o":"m 423 -14 q 165 86 256 -14 q 75 363 75 185 q 166 646 75 545 q 426 747 258 747 q 640 682 555 747 q 747 503 725 617 l 555 493 q 514 583 547 549 q 422 616 481 616 q 275 370 275 616 q 425 117 275 117 q 515 151 479 117 q 561 253 552 185 l 752 244 q 698 110 742 169 q 583 19 654 51 q 423 -14 512 -14 m 335 859 l 335 1000 l 526 1000 l 526 859 l 335 859 z "},"Ē":{"ha":833,"x_min":93,"x_max":777,"o":"m 93 0 l 93 915 l 749 915 l 749 760 l 293 760 l 293 541 l 708 541 l 708 386 l 293 386 l 293 155 l 777 155 l 777 0 l 93 0 m 221 1111 l 636 1111 l 636 997 l 221 997 l 221 1111 z "},"ē":{"ha":833,"x_min":68,"x_max":766,"o":"m 425 -14 q 161 87 254 -14 q 68 370 68 188 q 112 576 68 492 q 236 704 155 661 q 427 747 317 747 q 677 640 588 747 q 766 336 766 533 l 766 330 l 268 330 q 312 172 268 231 q 434 114 357 114 q 523 135 484 114 q 575 201 562 157 l 755 186 q 631 38 718 90 q 425 -14 544 -14 m 425 627 q 313 580 355 627 q 269 450 272 533 l 581 450 q 535 579 576 531 q 425 627 493 627 m 210 930 l 625 930 l 625 816 l 210 816 l 210 930 z "},"Ĕ":{"ha":833,"x_min":93,"x_max":777,"o":"m 93 0 l 93 915 l 749 915 l 749 760 l 293 760 l 293 541 l 708 541 l 708 386 l 293 386 l 293 155 l 777 155 l 777 0 l 93 0 m 415 968 q 245 1017 306 968 q 176 1156 184 1066 l 287 1156 q 416 1074 297 1074 q 506 1094 476 1074 q 545 1156 536 1114 l 656 1156 q 415 968 633 968 z "},"ĕ":{"ha":833,"x_min":68,"x_max":766,"o":"m 425 -14 q 161 87 254 -14 q 68 370 68 188 q 112 576 68 492 q 236 704 155 661 q 427 747 317 747 q 677 640 588 747 q 766 336 766 533 l 766 330 l 268 330 q 312 172 268 231 q 434 114 357 114 q 523 135 484 114 q 575 201 562 157 l 755 186 q 631 38 718 90 q 425 -14 544 -14 m 425 627 q 313 580 355 627 q 269 450 272 533 l 581 450 q 535 579 576 531 q 425 627 493 627 m 418 802 q 248 851 309 802 q 179 991 186 901 l 290 991 q 419 909 300 909 q 509 928 479 909 q 548 991 538 948 l 659 991 q 418 802 636 802 z "},"Ė":{"ha":833,"x_min":93,"x_max":777,"o":"m 93 0 l 93 915 l 749 915 l 749 760 l 293 760 l 293 541 l 708 541 l 708 386 l 293 386 l 293 155 l 777 155 l 777 0 l 93 0 m 321 964 l 321 1104 l 512 1104 l 512 964 l 321 964 z "},"ė":{"ha":833,"x_min":68,"x_max":766,"o":"m 425 -14 q 161 87 254 -14 q 68 370 68 188 q 112 576 68 492 q 236 704 155 661 q 427 747 317 747 q 677 640 588 747 q 766 336 766 533 l 766 330 l 268 330 q 312 172 268 231 q 434 114 357 114 q 523 135 484 114 q 575 201 562 157 l 755 186 q 631 38 718 90 q 425 -14 544 -14 m 425 627 q 313 580 355 627 q 269 450 272 533 l 581 450 q 535 579 576 531 q 425 627 493 627 m 323 863 l 323 1004 l 513 1004 l 513 863 l 323 863 z "},"Ĝ":{"ha":833,"x_min":54,"x_max":765,"o":"m 765 125 q 431 -14 600 -14 q 154 111 254 -14 q 54 462 54 235 q 433 929 54 929 q 632 866 555 929 q 746 675 709 803 l 560 638 q 435 772 524 772 q 300 699 343 772 q 257 462 257 625 q 302 229 257 311 q 441 146 348 146 q 515 160 477 146 q 582 197 553 174 l 582 356 l 396 356 l 396 504 l 765 504 l 765 125 m 667 987 l 667 968 l 559 968 l 421 1059 l 418 1059 l 275 968 l 167 968 l 167 987 l 342 1156 l 497 1156 l 667 987 z "},"ĝ":{"ha":833,"x_min":84,"x_max":755,"o":"m 418 -294 q 212 -242 292 -294 q 115 -97 133 -190 l 305 -75 q 347 -144 315 -119 q 423 -170 379 -170 q 527 -121 492 -170 q 562 25 562 -72 l 562 65 l 564 143 l 562 143 q 340 8 499 8 q 151 103 218 8 q 84 373 84 197 q 154 648 84 551 q 354 745 224 745 q 479 712 425 745 q 562 616 532 680 l 566 616 q 569 680 566 640 q 575 734 572 721 l 755 734 q 751 564 751 661 l 751 22 q 665 -213 751 -132 q 418 -294 578 -294 m 564 377 q 526 551 564 488 q 422 614 488 614 q 318 553 354 614 q 283 373 283 492 q 319 198 283 255 q 420 140 356 140 q 527 204 490 140 q 564 377 564 268 m 661 821 l 661 802 l 553 802 l 415 893 l 412 893 l 269 802 l 161 802 l 161 821 l 336 991 l 491 991 l 661 821 z "},"Ġ":{"ha":833,"x_min":54,"x_max":765,"o":"m 765 125 q 431 -14 600 -14 q 154 111 254 -14 q 54 462 54 235 q 433 929 54 929 q 632 866 555 929 q 746 675 709 803 l 560 638 q 435 772 524 772 q 300 699 343 772 q 257 462 257 625 q 302 229 257 311 q 441 146 348 146 q 515 160 477 146 q 582 197 553 174 l 582 356 l 396 356 l 396 504 l 765 504 l 765 125 m 328 964 l 328 1104 l 519 1104 l 519 964 l 328 964 z "},"ġ":{"ha":833,"x_min":84,"x_max":755,"o":"m 418 -294 q 212 -242 292 -294 q 115 -97 133 -190 l 305 -75 q 347 -144 315 -119 q 423 -170 379 -170 q 527 -121 492 -170 q 562 25 562 -72 l 562 65 l 564 143 l 562 143 q 340 8 499 8 q 151 103 218 8 q 84 373 84 197 q 154 648 84 551 q 354 745 224 745 q 479 712 425 745 q 562 616 532 680 l 566 616 q 569 680 566 640 q 575 734 572 721 l 755 734 q 751 564 751 661 l 751 22 q 665 -213 751 -132 q 418 -294 578 -294 m 564 377 q 526 551 564 488 q 422 614 488 614 q 318 553 354 614 q 283 373 283 492 q 319 198 283 255 q 420 140 356 140 q 527 204 490 140 q 564 377 564 268 m 315 859 l 315 1000 l 506 1000 l 506 859 l 315 859 z "},"Ģ":{"ha":833,"x_min":54,"x_max":765,"o":"m 765 125 q 431 -14 600 -14 q 154 111 254 -14 q 54 462 54 235 q 433 929 54 929 q 632 866 555 929 q 746 675 709 803 l 560 638 q 435 772 524 772 q 300 699 343 772 q 257 462 257 625 q 302 229 257 311 q 441 146 348 146 q 515 160 477 146 q 582 197 553 174 l 582 356 l 396 356 l 396 504 l 765 504 l 765 125 m 295 -307 l 295 -285 l 355 -66 l 530 -66 l 530 -92 l 407 -307 l 295 -307 z "},"ģ":{"ha":833,"x_min":84,"x_max":755,"o":"m 418 -294 q 212 -242 292 -294 q 115 -97 133 -190 l 305 -75 q 347 -144 315 -119 q 423 -170 379 -170 q 527 -121 492 -170 q 562 25 562 -72 l 562 65 l 564 143 l 562 143 q 340 8 499 8 q 151 103 218 8 q 84 373 84 197 q 154 648 84 551 q 354 745 224 745 q 479 712 425 745 q 562 616 532 680 l 566 616 q 569 680 566 640 q 575 734 572 721 l 755 734 q 751 564 751 661 l 751 22 q 665 -213 751 -132 q 418 -294 578 -294 m 564 377 q 526 551 564 488 q 422 614 488 614 q 318 553 354 614 q 283 373 283 492 q 319 198 283 255 q 420 140 356 140 q 527 204 490 140 q 564 377 564 268 m 536 1062 l 536 1040 l 475 821 l 301 821 l 301 846 l 424 1062 l 536 1062 z "},"Ĥ":{"ha":833,"x_min":94,"x_max":740,"o":"m 540 0 l 540 389 l 294 389 l 294 0 l 94 0 l 94 915 l 294 915 l 294 555 l 540 555 l 540 915 l 740 915 l 740 0 l 540 0 m 667 987 l 667 968 l 559 968 l 421 1059 l 418 1059 l 275 968 l 167 968 l 167 987 l 342 1156 l 497 1156 l 667 987 z "},"ĥ":{"ha":833,"x_min":97,"x_max":749,"o":"m 285 587 q 382 709 323 671 q 521 747 440 747 q 692 678 635 747 q 749 465 749 609 l 749 0 l 559 0 l 559 421 q 531 564 559 524 q 441 604 504 604 q 330 545 372 604 q 288 393 288 486 l 288 0 l 97 0 l 97 915 l 288 915 l 288 732 q 282 587 288 658 l 285 587 m 667 987 l 667 968 l 559 968 l 421 1059 l 418 1059 l 275 968 l 167 968 l 167 987 l 342 1156 l 497 1156 l 667 987 z "},"Ħ":{"ha":833,"x_min":1,"x_max":831,"o":"m 540 0 l 540 389 l 294 389 l 294 0 l 94 0 l 94 681 l 1 681 l 1 795 l 94 795 l 94 915 l 294 915 l 294 795 l 540 795 l 540 915 l 740 915 l 740 795 l 831 795 l 831 681 l 740 681 l 740 0 l 540 0 m 540 555 l 540 681 l 294 681 l 294 555 l 540 555 z "},"ħ":{"ha":833,"x_min":6,"x_max":749,"o":"m 285 560 q 382 682 323 644 q 521 720 440 720 q 692 651 635 720 q 749 438 749 582 l 749 0 l 559 0 l 559 394 q 531 537 559 496 q 441 577 504 577 q 330 518 372 577 q 288 366 288 458 l 288 0 l 97 0 l 97 800 l 6 800 l 6 915 l 97 915 l 97 1006 l 288 1006 l 288 915 l 491 915 l 491 800 l 288 800 l 288 705 q 282 560 288 631 l 285 560 z "},"Ĩ":{"ha":833,"x_min":106,"x_max":728,"o":"m 106 915 l 728 915 l 728 760 l 517 760 l 517 155 l 728 155 l 728 0 l 106 0 l 106 155 l 317 155 l 317 760 l 106 760 l 106 915 m 530 964 q 470 976 500 964 q 411 1003 439 988 q 357 1029 382 1017 q 311 1041 332 1041 q 266 1025 281 1041 q 245 964 251 1009 l 152 964 q 198 1113 160 1070 q 304 1156 235 1156 q 366 1144 335 1156 q 425 1118 396 1133 q 478 1092 453 1103 q 522 1080 503 1080 q 569 1098 554 1080 q 589 1156 584 1116 l 681 1156 q 658 1042 675 1081 q 608 984 640 1004 q 530 964 576 964 z "},"ĩ":{"ha":833,"x_min":80,"x_max":778,"o":"m 538 129 l 778 129 l 778 0 l 80 0 l 80 129 l 348 129 l 348 605 l 151 605 l 151 734 l 538 734 l 538 129 m 530 802 q 470 814 500 802 q 412 841 440 826 q 358 867 383 855 q 312 879 332 879 q 267 863 281 879 q 245 802 252 847 l 153 802 q 198 951 161 908 q 305 994 236 994 q 366 982 336 994 q 425 956 397 970 q 478 929 454 941 q 523 918 503 918 q 570 936 555 918 q 590 994 585 954 l 682 994 q 659 880 676 919 q 609 822 641 842 q 530 802 576 802 z "},"Ī":{"ha":833,"x_min":106,"x_max":728,"o":"m 106 915 l 728 915 l 728 760 l 517 760 l 517 155 l 728 155 l 728 0 l 106 0 l 106 155 l 317 155 l 317 760 l 106 760 l 106 915 m 210 1111 l 625 1111 l 625 997 l 210 997 l 210 1111 z "},"ī":{"ha":833,"x_min":80,"x_max":778,"o":"m 538 129 l 778 129 l 778 0 l 80 0 l 80 129 l 348 129 l 348 605 l 151 605 l 151 734 l 538 734 l 538 129 m 214 930 l 629 930 l 629 816 l 214 816 l 214 930 z "},"Ĭ":{"ha":833,"x_min":106,"x_max":728,"o":"m 106 915 l 728 915 l 728 760 l 517 760 l 517 155 l 728 155 l 728 0 l 106 0 l 106 155 l 317 155 l 317 760 l 106 760 l 106 915 m 415 968 q 245 1017 306 968 q 176 1156 184 1066 l 287 1156 q 416 1074 297 1074 q 506 1094 476 1074 q 545 1156 536 1114 l 656 1156 q 415 968 633 968 z "},"ĭ":{"ha":833,"x_min":80,"x_max":778,"o":"m 538 129 l 778 129 l 778 0 l 80 0 l 80 129 l 348 129 l 348 605 l 151 605 l 151 734 l 538 734 l 538 129 m 429 802 q 258 851 319 802 q 190 991 197 901 l 300 991 q 430 909 311 909 q 519 928 490 909 q 559 991 549 948 l 670 991 q 429 802 647 802 z "},"Į":{"ha":833,"x_min":106,"x_max":728,"o":"m 106 915 l 728 915 l 728 760 l 517 760 l 517 155 l 728 155 l 728 0 l 106 0 l 106 155 l 317 155 l 317 760 l 106 760 l 106 915 m 454 -288 q 336 -252 379 -288 q 294 -153 294 -215 q 323 -56 294 -102 q 401 14 353 -11 l 505 14 q 439 -53 462 -14 q 417 -128 417 -92 q 434 -174 417 -157 q 481 -191 450 -191 q 557 -173 517 -191 l 557 -266 q 454 -288 514 -288 z "},"į":{"ha":833,"x_min":80,"x_max":778,"o":"m 538 129 l 778 129 l 778 0 l 80 0 l 80 129 l 348 129 l 348 605 l 151 605 l 151 734 l 538 734 l 538 129 m 348 866 l 348 1006 l 538 1006 l 538 866 l 348 866 m 484 -288 q 366 -252 408 -288 q 323 -153 323 -215 q 352 -56 323 -102 q 430 14 382 -11 l 534 14 q 469 -53 491 -14 q 446 -128 446 -92 q 463 -174 446 -157 q 510 -191 479 -191 q 586 -173 547 -191 l 586 -266 q 484 -288 543 -288 z "},"Ĵ":{"ha":833,"x_min":69,"x_max":748,"o":"m 382 -14 q 170 60 250 -14 q 69 273 90 134 l 267 302 q 311 182 280 222 q 384 143 341 143 q 463 183 433 143 q 492 298 492 223 l 492 758 l 288 758 l 288 915 l 691 915 l 691 302 q 609 71 691 155 q 382 -14 527 -14 m 748 987 l 748 968 l 640 968 l 503 1059 l 500 1059 l 357 968 l 248 968 l 248 987 l 423 1156 l 578 1156 l 748 987 z "},"ĵ":{"ha":833,"x_min":121,"x_max":736,"o":"m 628 -9 q 590 -159 628 -96 q 480 -255 551 -222 q 317 -288 410 -288 q 208 -279 263 -288 q 121 -259 152 -271 l 121 -117 q 300 -140 214 -140 q 406 -103 374 -140 q 437 7 437 -67 l 437 605 l 197 605 l 197 734 l 628 734 l 628 -9 m 736 821 l 736 802 l 629 802 l 491 893 l 488 893 l 345 802 l 237 802 l 237 821 l 412 991 l 567 991 l 736 821 z "},"Ķ":{"ha":833,"x_min":92,"x_max":833,"o":"m 597 0 l 378 378 l 292 281 l 292 0 l 92 0 l 92 915 l 292 915 l 292 509 l 588 915 l 821 915 l 509 522 l 833 0 l 597 0 m 295 -307 l 295 -285 l 355 -66 l 530 -66 l 530 -92 l 407 -307 l 295 -307 z "},"ķ":{"ha":833,"x_min":117,"x_max":794,"o":"m 586 0 l 390 332 l 308 275 l 308 0 l 117 0 l 117 1006 l 308 1006 l 308 430 l 570 734 l 774 734 l 517 448 l 794 0 l 586 0 m 295 -307 l 295 -285 l 355 -66 l 530 -66 l 530 -92 l 407 -307 l 295 -307 z "},"ĸ":{"ha":833,"x_min":117,"x_max":794,"o":"m 586 0 l 390 319 l 308 262 l 308 0 l 117 0 l 117 734 l 308 734 l 308 416 l 570 734 l 774 734 l 517 434 l 794 0 l 586 0 z "},"Ļ":{"ha":833,"x_min":143,"x_max":761,"o":"m 143 0 l 143 915 l 343 915 l 343 155 l 761 155 l 761 0 l 143 0 m 302 -307 l 302 -285 l 362 -66 l 536 -66 l 536 -92 l 414 -307 l 302 -307 z "},"ļ":{"ha":833,"x_min":80,"x_max":778,"o":"m 538 129 l 778 129 l 778 0 l 80 0 l 80 129 l 348 129 l 348 878 l 151 878 l 151 1006 l 538 1006 l 538 129 m 295 -307 l 295 -285 l 355 -66 l 530 -66 l 530 -92 l 407 -307 l 295 -307 z "},"Ņ":{"ha":833,"x_min":92,"x_max":742,"o":"m 507 0 l 247 685 q 266 445 266 514 l 266 0 l 92 0 l 92 915 l 320 915 l 587 212 q 568 459 568 371 l 568 915 l 742 915 l 742 0 l 507 0 m 274 -307 l 274 -285 l 334 -66 l 509 -66 l 509 -92 l 386 -307 l 274 -307 z "},"ņ":{"ha":833,"x_min":92,"x_max":749,"o":"m 559 0 l 559 420 q 533 560 559 515 q 443 605 507 605 q 330 545 372 605 q 288 393 288 485 l 288 0 l 97 0 l 97 570 q 95 666 97 629 q 92 734 94 704 l 273 734 q 279 665 275 721 q 282 588 282 609 l 285 588 q 382 710 323 672 q 521 748 440 748 q 749 466 749 748 l 749 0 l 559 0 m 277 -307 l 277 -285 l 337 -66 l 511 -66 l 511 -92 l 389 -307 l 277 -307 z "},"Ŋ":{"ha":833,"x_min":77,"x_max":770,"o":"m 525 -14 q 391 27 442 -14 q 313 159 339 67 l 454 205 q 478 151 465 165 q 515 137 492 137 q 560 178 547 137 q 573 322 573 219 l 573 575 q 549 731 573 689 q 463 773 526 773 q 376 731 420 773 q 306 622 332 689 q 279 481 279 555 l 279 0 l 79 0 l 79 700 l 77 915 l 272 915 q 279 745 279 833 l 282 745 q 387 878 317 827 q 532 928 456 928 q 711 846 653 928 q 770 589 770 764 l 770 340 q 710 74 770 161 q 525 -14 650 -14 z "},"ŋ":{"ha":833,"x_min":92,"x_max":749,"o":"m 559 420 q 533 560 559 515 q 443 605 507 605 q 330 545 372 605 q 288 393 288 485 l 288 0 l 97 0 l 97 570 q 95 666 97 629 q 92 734 94 704 l 273 734 q 279 665 275 721 q 282 588 282 609 l 285 588 q 382 710 323 672 q 521 748 440 748 q 749 466 749 748 l 749 -87 q 700 -236 749 -184 q 554 -288 650 -288 q 439 -282 486 -288 l 439 -148 l 473 -151 q 541 -129 524 -151 q 559 -41 559 -106 l 559 420 z "},"Ō":{"ha":833,"x_min":49,"x_max":785,"o":"m 785 460 q 690 106 785 227 q 417 -14 595 -14 q 144 106 239 -14 q 49 460 49 227 q 144 812 49 694 q 417 929 239 929 q 690 812 595 929 q 785 460 785 694 m 582 460 q 417 772 582 772 q 252 460 252 772 q 293 224 252 304 q 417 144 335 144 q 541 224 499 144 q 582 460 582 304 m 210 1111 l 625 1111 l 625 997 l 210 997 l 210 1111 z "},"ō":{"ha":833,"x_min":62,"x_max":771,"o":"m 771 368 q 679 86 771 185 q 414 -14 587 -14 q 155 86 247 -14 q 62 368 62 185 q 154 648 62 549 q 418 747 245 747 q 771 368 771 747 m 572 368 q 537 557 572 498 q 420 616 503 616 q 299 557 336 616 q 262 368 262 497 q 300 177 262 237 q 412 117 338 117 q 534 176 496 117 q 572 368 572 235 m 210 930 l 625 930 l 625 816 l 210 816 l 210 930 z "},"Ŏ":{"ha":833,"x_min":49,"x_max":785,"o":"m 785 460 q 690 106 785 227 q 417 -14 595 -14 q 144 106 239 -14 q 49 460 49 227 q 144 812 49 694 q 417 929 239 929 q 690 812 595 929 q 785 460 785 694 m 582 460 q 417 772 582 772 q 252 460 252 772 q 293 224 252 304 q 417 144 335 144 q 541 224 499 144 q 582 460 582 304 m 415 968 q 245 1017 306 968 q 176 1156 184 1066 l 287 1156 q 416 1074 297 1074 q 506 1094 476 1074 q 545 1156 536 1114 l 656 1156 q 415 968 633 968 z "},"ŏ":{"ha":833,"x_min":62,"x_max":771,"o":"m 771 368 q 679 86 771 185 q 414 -14 587 -14 q 155 86 247 -14 q 62 368 62 185 q 154 648 62 549 q 418 747 245 747 q 771 368 771 747 m 572 368 q 537 557 572 498 q 420 616 503 616 q 299 557 336 616 q 262 368 262 497 q 300 177 262 237 q 412 117 338 117 q 534 176 496 117 q 572 368 572 235 m 415 802 q 245 851 306 802 q 176 991 184 901 l 287 991 q 416 909 297 909 q 506 928 476 909 q 545 991 536 948 l 656 991 q 415 802 633 802 z "},"Ŗ":{"ha":833,"x_min":93,"x_max":832,"o":"m 607 0 l 410 349 l 293 349 l 293 0 l 93 0 l 93 915 l 428 915 q 696 845 607 915 q 785 644 785 775 q 734 486 785 551 q 595 394 684 420 l 832 0 l 607 0 m 583 635 q 541 729 583 699 q 407 760 499 760 l 293 760 l 293 505 l 412 505 q 583 635 583 505 m 293 -307 l 293 -285 l 353 -66 l 528 -66 l 528 -92 l 405 -307 l 293 -307 z "},"ŗ":{"ha":833,"x_min":111,"x_max":733,"o":"m 733 575 q 589 588 657 588 q 421 508 484 588 q 359 297 359 428 l 359 0 l 170 0 l 170 475 q 160 597 170 527 q 134 734 151 667 l 318 734 q 349 579 342 646 l 352 579 q 444 709 386 671 q 593 747 501 747 q 733 736 664 747 l 733 575 m 111 -307 l 111 -285 l 171 -66 l 345 -66 l 345 -92 l 222 -307 l 111 -307 z "},"Ŝ":{"ha":833,"x_min":26,"x_max":790,"o":"m 790 265 q 691 61 790 135 q 414 -14 591 -14 q 155 54 255 -14 q 26 249 54 121 l 219 274 q 284 173 235 210 q 420 136 334 136 q 552 165 509 136 q 595 254 595 193 q 557 329 595 298 q 447 378 519 360 q 241 439 301 413 q 145 498 181 465 q 90 574 109 530 q 71 672 71 618 q 166 860 71 791 q 417 929 261 929 q 654 869 569 929 q 765 683 740 809 l 571 663 q 413 787 541 787 q 303 761 341 787 q 265 684 265 734 q 283 628 265 650 q 333 591 302 606 q 462 551 365 576 q 658 481 589 519 q 758 389 726 443 q 790 265 790 334 m 669 987 l 669 968 l 562 968 l 424 1059 l 421 1059 l 278 968 l 170 968 l 170 987 l 345 1156 l 500 1156 l 669 987 z "},"ŝ":{"ha":833,"x_min":82,"x_max":749,"o":"m 749 214 q 662 47 749 108 q 420 -14 574 -14 q 189 34 269 -14 q 82 183 109 82 l 250 208 q 299 134 264 156 q 420 113 334 113 q 537 133 500 113 q 574 197 574 153 q 544 253 574 232 q 444 288 515 273 q 227 347 283 319 q 141 418 170 374 q 111 526 111 462 q 192 689 111 631 q 422 748 273 748 q 632 697 553 748 q 732 550 712 646 l 563 532 q 523 599 555 577 q 422 621 491 621 q 320 604 354 621 q 286 546 286 587 q 312 495 286 514 q 400 465 338 477 q 553 428 486 447 q 660 384 620 410 q 725 318 701 358 q 749 214 749 277 m 677 821 l 677 802 l 569 802 l 431 893 l 429 893 l 286 802 l 177 802 l 177 821 l 352 991 l 507 991 l 677 821 z "},"Ŧ":{"ha":833,"x_min":42,"x_max":792,"o":"m 517 760 l 517 526 l 671 526 l 671 397 l 517 397 l 517 0 l 317 0 l 317 397 l 163 397 l 163 526 l 317 526 l 317 760 l 42 760 l 42 915 l 792 915 l 792 760 l 517 760 z "},"ŧ":{"ha":833,"x_min":119,"x_max":711,"o":"m 231 334 l 119 334 l 119 463 l 231 463 l 231 605 l 119 605 l 119 734 l 241 734 l 301 925 l 420 925 l 420 734 l 682 734 l 682 605 l 420 605 l 420 463 l 682 463 l 682 334 l 420 334 l 420 245 q 432 165 420 186 q 468 133 443 144 q 538 121 493 121 q 711 139 623 121 l 711 13 q 575 -6 615 -3 q 492 -9 535 -9 q 348 15 406 -9 q 260 88 290 38 q 231 228 231 138 l 231 334 z "},"Ũ":{"ha":833,"x_min":87,"x_max":746,"o":"m 406 -14 q 163 77 239 -14 q 87 358 87 168 l 87 915 l 288 915 l 288 360 q 315 192 288 241 q 412 143 342 143 q 514 195 482 143 q 546 367 546 248 l 546 915 l 746 915 l 746 368 q 662 80 746 174 q 406 -14 578 -14 m 530 964 q 470 976 500 964 q 411 1003 439 988 q 357 1029 382 1017 q 311 1041 332 1041 q 266 1025 281 1041 q 245 964 251 1009 l 152 964 q 198 1113 160 1070 q 304 1156 235 1156 q 366 1144 335 1156 q 425 1118 396 1133 q 478 1092 453 1103 q 522 1080 503 1080 q 569 1098 554 1080 q 589 1156 584 1116 l 681 1156 q 658 1042 675 1081 q 608 984 640 1004 q 530 964 576 964 z "},"ũ":{"ha":833,"x_min":92,"x_max":735,"o":"m 282 734 l 282 322 q 312 179 282 229 q 399 129 342 129 q 499 189 460 129 q 539 340 539 249 l 539 734 l 730 734 l 730 164 q 735 0 730 71 l 553 0 q 545 146 545 98 l 542 146 q 319 -14 469 -14 q 150 57 208 -14 q 92 268 92 128 l 92 734 l 282 734 m 530 802 q 470 814 500 802 q 412 841 440 826 q 358 867 383 855 q 312 879 332 879 q 267 863 281 879 q 245 802 252 847 l 153 802 q 198 951 161 908 q 305 994 236 994 q 366 982 336 994 q 425 956 397 970 q 478 929 454 941 q 523 918 503 918 q 570 936 555 918 q 590 994 585 954 l 682 994 q 659 880 676 919 q 609 822 641 842 q 530 802 576 802 z "},"Ū":{"ha":833,"x_min":87,"x_max":746,"o":"m 406 -14 q 163 77 239 -14 q 87 358 87 168 l 87 915 l 288 915 l 288 360 q 315 192 288 241 q 412 143 342 143 q 514 195 482 143 q 546 367 546 248 l 546 915 l 746 915 l 746 368 q 662 80 746 174 q 406 -14 578 -14 m 210 1111 l 625 1111 l 625 997 l 210 997 l 210 1111 z "},"ū":{"ha":833,"x_min":92,"x_max":735,"o":"m 282 734 l 282 322 q 312 179 282 229 q 399 129 342 129 q 499 189 460 129 q 539 340 539 249 l 539 734 l 730 734 l 730 164 q 735 0 730 71 l 553 0 q 545 146 545 98 l 542 146 q 319 -14 469 -14 q 150 57 208 -14 q 92 268 92 128 l 92 734 l 282 734 m 210 930 l 625 930 l 625 816 l 210 816 l 210 930 z "},"Ŭ":{"ha":833,"x_min":87,"x_max":746,"o":"m 406 -14 q 163 77 239 -14 q 87 358 87 168 l 87 915 l 288 915 l 288 360 q 315 192 288 241 q 412 143 342 143 q 514 195 482 143 q 546 367 546 248 l 546 915 l 746 915 l 746 368 q 662 80 746 174 q 406 -14 578 -14 m 415 968 q 245 1017 306 968 q 176 1156 184 1066 l 287 1156 q 416 1074 297 1074 q 506 1094 476 1074 q 545 1156 536 1114 l 656 1156 q 415 968 633 968 z "},"ŭ":{"ha":833,"x_min":92,"x_max":735,"o":"m 282 734 l 282 322 q 312 179 282 229 q 399 129 342 129 q 499 189 460 129 q 539 340 539 249 l 539 734 l 730 734 l 730 164 q 735 0 730 71 l 553 0 q 545 146 545 98 l 542 146 q 319 -14 469 -14 q 150 57 208 -14 q 92 268 92 128 l 92 734 l 282 734 m 415 802 q 245 851 306 802 q 176 991 184 901 l 287 991 q 416 909 297 909 q 506 928 476 909 q 545 991 536 948 l 656 991 q 415 802 633 802 z "},"Ų":{"ha":833,"x_min":87,"x_max":746,"o":"m 406 -14 q 163 77 239 -14 q 87 358 87 168 l 87 915 l 288 915 l 288 360 q 315 192 288 241 q 412 143 342 143 q 514 195 482 143 q 546 367 546 248 l 546 915 l 746 915 l 746 368 q 662 80 746 174 q 406 -14 578 -14 m 486 -288 q 368 -252 410 -288 q 325 -153 325 -215 q 354 -56 325 -102 q 432 14 384 -11 l 536 14 q 471 -53 493 -14 q 448 -128 448 -92 q 465 -174 448 -157 q 512 -191 481 -191 q 588 -173 549 -191 l 588 -266 q 486 -288 545 -288 z "},"ų":{"ha":833,"x_min":92,"x_max":744,"o":"m 282 734 l 282 322 q 312 179 282 229 q 399 129 342 129 q 499 189 460 129 q 539 340 539 249 l 539 734 l 730 734 l 730 164 q 735 0 730 71 l 553 0 q 545 146 545 98 l 542 146 q 319 -14 469 -14 q 150 57 208 -14 q 92 268 92 128 l 92 734 l 282 734 m 642 -288 q 524 -252 566 -288 q 481 -153 481 -215 q 510 -56 481 -102 q 588 14 540 -11 l 692 14 q 627 -53 649 -14 q 604 -128 604 -92 q 621 -174 604 -157 q 668 -191 637 -191 q 744 -173 705 -191 l 744 -266 q 642 -288 701 -288 z "},"Ŵ":{"ha":833,"x_min":0,"x_max":833,"o":"m 690 0 l 522 0 l 479 181 q 418 431 445 309 l 394 332 l 364 212 l 311 0 l 143 0 l 0 915 l 176 915 l 236 444 q 247 263 244 378 l 257 315 l 284 429 l 351 659 l 484 659 l 551 429 q 566 369 559 398 q 588 263 572 339 l 589 281 q 600 444 593 391 l 657 915 l 833 915 l 690 0 m 667 987 l 667 968 l 559 968 l 421 1059 l 418 1059 l 275 968 l 167 968 l 167 987 l 342 1156 l 497 1156 l 667 987 z "},"ŵ":{"ha":833,"x_min":7,"x_max":826,"o":"m 697 0 l 532 0 l 435 319 q 416 389 418 374 q 409 357 416 382 q 296 0 402 332 l 132 0 l 7 734 l 162 734 l 218 322 q 231 169 231 219 l 245 219 l 351 554 l 482 554 l 577 245 q 597 169 587 212 q 604 266 597 211 q 673 734 610 321 l 826 734 l 697 0 m 667 821 l 667 802 l 559 802 l 421 893 l 418 893 l 275 802 l 167 802 l 167 821 l 342 991 l 497 991 l 667 821 z "},"Ŷ":{"ha":833,"x_min":2,"x_max":831,"o":"m 516 377 l 516 0 l 317 0 l 317 377 l 2 915 l 212 915 l 415 531 l 621 915 l 831 915 l 516 377 m 667 987 l 667 968 l 559 968 l 421 1059 l 418 1059 l 275 968 l 167 968 l 167 987 l 342 1156 l 497 1156 l 667 987 z "},"ŷ":{"ha":833,"x_min":26,"x_max":807,"o":"m 220 -288 q 97 -279 149 -288 l 97 -144 l 132 -147 l 166 -149 q 234 -136 207 -149 q 282 -94 260 -123 q 330 7 303 -64 l 26 734 l 227 734 l 356 376 q 425 150 383 302 l 431 175 l 486 374 l 608 734 l 807 734 l 503 -39 q 385 -233 449 -178 q 220 -288 320 -288 m 667 821 l 667 802 l 559 802 l 421 893 l 418 893 l 275 802 l 167 802 l 167 821 l 342 991 l 497 991 l 667 821 z "},"ſ":{"ha":833,"x_min":253,"x_max":761,"o":"m 253 790 q 327 967 253 908 q 539 1027 401 1027 q 761 1008 647 1027 l 761 883 q 572 896 659 896 q 474 868 506 896 q 443 772 443 841 l 443 0 l 253 0 l 253 790 z "},"Ǻ":{"ha":833,"x_min":0,"x_max":833,"o":"m 581 826 q 548 740 581 777 l 833 0 l 634 0 l 574 178 l 258 178 l 200 0 l 0 0 l 286 739 q 252 826 252 774 q 297 924 252 886 q 416 961 342 961 q 536 923 492 961 q 581 826 581 886 m 417 673 l 412 652 l 378 537 l 308 329 l 526 329 l 456 537 q 417 673 427 629 m 346 989 l 346 1010 l 503 1156 l 678 1156 l 678 1127 l 448 989 l 346 989 m 486 826 q 467 861 486 848 q 416 874 448 874 q 366 861 385 874 q 346 826 346 848 q 366 791 346 804 q 416 778 385 778 q 467 791 448 778 q 486 826 486 804 z "},"ǻ":{"ha":833,"x_min":72,"x_max":799,"o":"m 298 -14 q 132 44 191 -14 q 72 208 72 102 q 143 381 72 321 q 355 442 214 440 l 506 445 l 506 482 q 482 588 506 552 q 406 624 458 624 q 333 599 356 624 q 304 520 309 574 l 105 530 q 414 747 142 747 q 624 680 551 747 q 696 483 696 613 l 696 217 q 710 132 696 155 q 757 109 724 109 q 799 113 779 109 l 799 9 q 768 2 782 5 q 741 -3 755 -1 q 712 -7 728 -5 q 677 -8 697 -8 q 571 27 605 -8 q 530 131 536 62 l 526 131 q 428 20 483 54 q 298 -14 374 -14 m 506 340 l 415 338 q 327 326 354 337 q 285 290 299 315 q 271 222 271 265 q 352 119 271 119 q 462 171 418 119 q 506 302 506 223 l 506 340 m 574 814 q 530 717 574 755 q 410 679 486 679 q 290 717 334 679 q 246 814 246 755 q 291 912 246 875 q 410 949 336 949 q 530 912 486 949 q 574 814 574 874 m 480 814 q 461 849 480 836 q 410 863 442 863 q 359 850 379 863 q 340 814 340 837 q 359 779 340 792 q 410 766 379 766 q 461 780 441 766 q 480 814 480 793 m 328 970 l 328 991 l 498 1156 l 673 1156 l 673 1127 l 443 970 l 328 970 z "},"Ǽ":{"ha":833,"x_min":0,"x_max":824,"o":"m 418 262 l 246 262 l 177 0 l 0 0 l 252 915 l 798 915 l 798 778 l 588 778 l 588 537 l 789 537 l 789 401 l 588 401 l 588 137 l 824 137 l 824 0 l 418 0 l 418 262 m 418 781 l 378 781 l 347 646 l 281 397 l 418 397 l 418 781 m 415 969 l 415 990 l 586 1155 l 761 1155 l 761 1126 l 530 969 l 415 969 z "},"ǽ":{"ha":833,"x_min":14,"x_max":819,"o":"m 474 328 l 474 327 q 504 167 474 226 q 586 109 534 109 q 648 134 627 109 q 681 204 670 160 l 802 174 q 722 33 777 79 q 589 -14 667 -14 q 466 24 511 -14 q 397 144 420 61 q 310 25 363 64 q 189 -14 256 -14 q 59 45 105 -14 q 14 205 14 104 q 69 384 14 321 q 237 448 125 446 l 337 450 l 337 488 q 317 587 337 551 q 258 624 296 624 q 208 599 225 624 q 185 524 191 574 l 44 536 q 258 747 71 747 q 425 653 377 747 q 592 747 483 747 q 762 651 705 747 q 819 357 819 555 l 819 328 l 474 328 m 155 203 q 169 135 155 159 q 209 110 183 110 q 299 168 262 110 q 337 302 337 227 l 337 338 l 268 336 q 180 303 205 334 q 155 203 155 271 m 583 627 q 531 605 555 627 q 492 543 507 583 q 475 448 477 503 l 680 448 q 651 582 674 538 q 583 627 627 627 m 323 803 l 323 824 l 494 989 l 669 989 l 669 960 l 439 803 l 323 803 z "},"Ǿ":{"ha":833,"x_min":31,"x_max":800,"o":"m 785 460 q 690 106 785 227 q 417 -14 595 -14 q 180 67 271 -14 l 109 -29 l 31 22 l 120 141 q 49 460 49 260 q 144 812 49 694 q 417 929 239 929 q 651 851 561 929 l 723 947 l 800 897 l 712 779 q 785 460 785 661 m 582 460 q 572 591 582 534 l 296 221 q 417 144 338 144 q 541 224 499 144 q 582 460 582 304 m 252 460 q 261 330 252 380 l 537 699 q 417 772 496 772 q 252 460 252 772 m 317 969 l 317 990 l 488 1155 l 663 1155 l 663 1126 l 432 969 l 317 969 z "},"ǿ":{"ha":833,"x_min":62,"x_max":771,"o":"m 771 368 q 679 86 771 185 q 414 -14 587 -14 q 191 52 278 -14 l 134 -14 l 68 39 l 133 112 q 62 368 62 209 q 154 648 62 549 q 418 747 245 747 q 641 688 557 747 l 694 749 l 761 696 l 702 629 q 771 368 771 534 m 572 368 q 564 473 572 424 l 300 176 q 412 117 338 117 q 534 176 496 117 q 572 368 572 235 m 262 368 q 269 267 262 311 l 532 564 q 420 616 496 616 q 299 557 336 616 q 262 368 262 497 m 317 803 l 317 824 l 488 989 l 663 989 l 663 960 l 432 803 l 317 803 z "},"·":{"ha":833,"x_min":319,"x_max":514,"o":"m 319 283 l 319 490 l 514 490 l 514 283 l 319 283 z "},"Ẁ":{"ha":833,"x_min":0,"x_max":833,"o":"m 690 0 l 522 0 l 479 181 q 418 431 445 309 l 394 332 l 364 212 l 311 0 l 143 0 l 0 915 l 176 915 l 236 444 q 247 263 244 378 l 257 315 l 284 429 l 351 659 l 484 659 l 551 429 q 566 369 559 398 q 588 263 572 339 l 589 281 q 600 444 593 391 l 657 915 l 833 915 l 690 0 m 412 969 l 182 1126 l 182 1155 l 357 1155 l 528 990 l 528 969 l 412 969 z "},"ẁ":{"ha":833,"x_min":7,"x_max":826,"o":"m 697 0 l 532 0 l 435 319 q 416 389 418 374 q 409 357 416 382 q 296 0 402 332 l 132 0 l 7 734 l 162 734 l 218 322 q 231 169 231 219 l 245 219 l 351 554 l 482 554 l 577 245 q 597 169 587 212 q 604 266 597 211 q 673 734 610 321 l 826 734 l 697 0 m 385 803 l 154 960 l 154 989 l 329 989 l 500 824 l 500 803 l 385 803 z "},"Ẃ":{"ha":833,"x_min":0,"x_max":833,"o":"m 690 0 l 522 0 l 479 181 q 418 431 445 309 l 394 332 l 364 212 l 311 0 l 143 0 l 0 915 l 176 915 l 236 444 q 247 263 244 378 l 257 315 l 284 429 l 351 659 l 484 659 l 551 429 q 566 369 559 398 q 588 263 572 339 l 589 281 q 600 444 593 391 l 657 915 l 833 915 l 690 0 m 319 970 l 319 991 l 490 1156 l 665 1156 l 665 1127 l 434 970 l 319 970 z "},"ẃ":{"ha":833,"x_min":7,"x_max":826,"o":"m 697 0 l 532 0 l 435 319 q 416 389 418 374 q 409 357 416 382 q 296 0 402 332 l 132 0 l 7 734 l 162 734 l 218 322 q 231 169 231 219 l 245 219 l 351 554 l 482 554 l 577 245 q 597 169 587 212 q 604 266 597 211 q 673 734 610 321 l 826 734 l 697 0 m 313 803 l 313 824 l 484 989 l 659 989 l 659 960 l 428 803 l 313 803 z "},"Ẅ":{"ha":833,"x_min":0,"x_max":833,"o":"m 690 0 l 522 0 l 479 181 q 418 431 445 309 l 394 332 l 364 212 l 311 0 l 143 0 l 0 915 l 176 915 l 236 444 q 247 263 244 378 l 257 315 l 284 429 l 351 659 l 484 659 l 551 429 q 566 369 559 398 q 588 263 572 339 l 589 281 q 600 444 593 391 l 657 915 l 833 915 l 690 0 m 484 981 l 484 1129 l 638 1129 l 638 981 l 484 981 m 197 981 l 197 1129 l 349 1129 l 349 981 l 197 981 z "},"ẅ":{"ha":833,"x_min":7,"x_max":826,"o":"m 697 0 l 532 0 l 435 319 q 416 389 418 374 q 409 357 416 382 q 296 0 402 332 l 132 0 l 7 734 l 162 734 l 218 322 q 231 169 231 219 l 245 219 l 351 554 l 482 554 l 577 245 q 597 169 587 212 q 604 266 597 211 q 673 734 610 321 l 826 734 l 697 0 m 484 827 l 484 975 l 638 975 l 638 827 l 484 827 m 197 827 l 197 975 l 349 975 l 349 827 l 197 827 z "},"Ỳ":{"ha":833,"x_min":2,"x_max":831,"o":"m 516 377 l 516 0 l 317 0 l 317 377 l 2 915 l 212 915 l 415 531 l 621 915 l 831 915 l 516 377 m 412 970 l 181 1127 l 181 1156 l 356 1156 l 527 991 l 527 970 l 412 970 z "},"ỳ":{"ha":833,"x_min":26,"x_max":807,"o":"m 220 -288 q 97 -279 149 -288 l 97 -144 l 132 -147 l 166 -149 q 234 -136 207 -149 q 282 -94 260 -123 q 330 7 303 -64 l 26 734 l 227 734 l 356 376 q 425 150 383 302 l 431 175 l 486 374 l 608 734 l 807 734 l 503 -39 q 385 -233 449 -178 q 220 -288 320 -288 m 426 803 l 195 960 l 195 989 l 370 989 l 541 824 l 541 803 l 426 803 z "},"‛":{"ha":833,"x_min":250,"x_max":585,"o":"m 460 585 l 250 1006 l 470 1006 l 585 585 l 460 585 z "},"‾":{"ha":833,"x_min":-3,"x_max":836,"o":"m -3 985 l -3 1050 l 836 1050 l 836 985 l -3 985 z "},"₤":{"ha":833,"x_min":62,"x_max":806,"o":"m 806 246 q 713 65 785 130 q 540 0 642 0 l 69 0 l 69 139 q 149 195 130 173 q 179 248 168 217 q 189 327 189 279 l 189 331 l 62 331 l 62 432 l 182 432 l 182 508 l 62 508 l 62 609 l 182 609 l 182 652 q 255 859 182 789 q 471 929 328 929 q 652 882 586 929 q 747 732 718 836 l 589 700 q 547 776 575 752 q 475 800 519 800 q 386 761 413 800 q 359 637 359 722 l 359 609 l 553 609 l 553 508 l 359 508 l 359 432 l 553 432 l 553 331 l 359 331 l 359 328 q 348 251 359 283 q 314 196 336 219 q 235 142 291 172 l 493 142 q 600 175 564 142 q 648 273 636 209 l 806 246 z "},"℮":{"ha":833,"x_min":64,"x_max":783,"o":"m 425 -22 q 235 27 317 -22 q 109 165 153 77 q 64 360 64 253 q 109 558 64 472 q 238 694 153 644 q 425 743 322 743 q 610 694 528 743 q 738 554 692 644 q 783 347 783 463 l 263 347 l 263 115 q 335 76 293 92 q 425 60 378 60 q 567 96 507 60 q 678 217 626 133 l 748 176 q 654 59 699 99 q 553 -1 610 20 q 425 -22 496 -22 m 423 661 q 263 610 330 661 l 263 429 l 587 429 l 587 608 q 423 661 516 661 z "},"⅛":{"ha":833,"x_min":1,"x_max":827,"o":"m 137 786 q 82 742 124 760 q 1 724 39 724 l 1 836 q 83 859 40 836 q 144 915 127 881 l 267 915 l 267 399 l 137 399 l 137 786 m 174 0 l 64 0 l 564 915 l 673 915 l 174 0 m 674 376 q 665 420 674 403 q 629 438 656 438 q 584 376 584 438 q 596 330 584 346 q 629 314 608 314 q 663 329 652 314 q 674 376 674 343 m 688 163 q 673 219 688 202 q 629 235 659 235 q 586 219 600 235 q 571 162 571 202 q 585 99 571 116 q 631 82 600 82 q 675 98 661 82 q 688 163 688 113 m 827 152 q 777 34 827 74 q 630 -6 726 -6 q 483 34 533 -6 q 432 151 432 75 q 529 273 432 249 l 529 275 q 466 324 486 296 q 446 393 446 353 q 494 490 446 454 q 628 526 543 526 q 764 491 716 526 q 812 393 812 455 q 792 323 812 352 q 728 275 772 295 l 728 273 q 805 232 783 261 q 827 152 827 203 z "},"⅜":{"ha":833,"x_min":-27,"x_max":854,"o":"m 366 538 q 315 426 366 467 q 172 386 263 386 q 38 422 86 386 q -27 543 -11 458 l 112 561 q 132 500 117 522 q 175 479 146 479 q 231 549 231 479 q 209 600 231 584 q 138 616 186 616 l 110 616 l 110 705 l 135 705 q 199 722 181 705 q 218 776 218 738 q 208 821 218 806 q 174 835 197 835 q 132 816 144 835 q 117 760 121 797 l -14 768 q 43 884 -3 846 q 177 923 89 923 q 307 886 261 923 q 352 785 352 849 q 329 713 352 741 q 260 667 307 685 l 260 663 q 341 617 315 651 q 366 538 366 584 m 220 0 l 111 0 l 611 915 l 720 915 l 220 0 m 701 376 q 692 420 701 403 q 656 438 683 438 q 611 376 611 438 q 623 330 611 346 q 656 314 635 314 q 690 329 680 314 q 701 376 701 343 m 715 163 q 701 219 715 202 q 656 235 686 235 q 613 219 627 235 q 598 162 598 202 q 612 99 598 116 q 658 82 627 82 q 702 98 688 82 q 715 163 715 113 m 854 152 q 804 34 854 74 q 657 -6 753 -6 q 510 34 560 -6 q 459 151 459 75 q 556 273 459 249 l 556 275 q 493 324 513 296 q 473 393 473 353 q 521 490 473 454 q 655 526 570 526 q 791 491 743 526 q 840 393 840 455 q 820 323 840 352 q 755 275 800 295 l 755 273 q 832 232 810 261 q 854 152 854 203 z "},"⅝":{"ha":833,"x_min":-13,"x_max":854,"o":"m 366 566 q 316 437 366 484 q 178 391 267 391 q 48 427 96 391 q -13 534 0 464 l 122 544 q 140 494 127 508 q 175 480 153 480 q 215 502 203 480 q 228 566 228 523 q 215 626 228 608 q 171 645 203 645 q 117 618 134 645 l -8 618 l 22 915 l 336 915 l 336 811 l 132 811 l 121 701 q 215 732 151 732 q 325 690 285 732 q 366 566 366 647 m 220 0 l 111 0 l 611 915 l 720 915 l 220 0 m 701 376 q 692 420 701 403 q 656 438 683 438 q 611 376 611 438 q 623 330 611 346 q 656 314 635 314 q 690 329 680 314 q 701 376 701 343 m 715 163 q 701 219 715 202 q 656 235 686 235 q 613 219 627 235 q 598 162 598 202 q 612 99 598 116 q 658 82 627 82 q 702 98 688 82 q 715 163 715 113 m 854 152 q 804 34 854 74 q 657 -6 753 -6 q 510 34 560 -6 q 459 151 459 75 q 556 273 459 249 l 556 275 q 493 324 513 296 q 473 393 473 353 q 521 490 473 454 q 655 526 570 526 q 791 491 743 526 q 840 393 840 455 q 820 323 840 352 q 755 275 800 295 l 755 273 q 832 232 810 261 q 854 152 854 203 z "},"⅞":{"ha":833,"x_min":5,"x_max":827,"o":"m 404 819 q 286 648 316 704 q 241 534 255 591 q 228 399 228 477 l 90 399 q 106 533 90 473 q 155 653 121 593 q 269 811 189 712 l 5 811 l 5 915 l 404 915 l 404 819 m 157 0 l 47 0 l 547 915 l 656 915 l 157 0 m 674 376 q 665 420 674 403 q 629 438 656 438 q 584 376 584 438 q 596 330 584 346 q 629 314 608 314 q 663 329 652 314 q 674 376 674 343 m 688 163 q 673 219 688 202 q 629 235 659 235 q 586 219 600 235 q 571 162 571 202 q 585 99 571 116 q 631 82 600 82 q 675 98 661 82 q 688 163 688 113 m 827 152 q 777 34 827 74 q 630 -6 726 -6 q 483 34 533 -6 q 432 151 432 75 q 529 273 432 249 l 529 275 q 466 324 486 296 q 446 393 446 353 q 494 490 446 454 q 628 526 543 526 q 764 491 716 526 q 812 393 812 455 q 792 323 812 352 q 728 275 772 295 l 728 273 q 805 232 783 261 q 827 152 827 203 z "},"΄":{"ha":833,"x_min":322,"x_max":533,"o":"m 322 814 l 322 837 l 359 1055 l 533 1055 l 533 1030 l 393 814 l 322 814 z "},"΅":{"ha":833,"x_min":169,"x_max":665,"o":"m 350 814 l 350 837 l 390 1107 l 551 1107 l 551 1082 l 428 814 l 350 814 m 169 835 l 169 985 l 304 985 l 304 835 l 169 835 m 530 835 l 530 985 l 665 985 l 665 835 l 530 835 z "},"Ά":{"ha":833,"x_min":0,"x_max":833,"o":"m 833 0 l 634 0 l 572 224 l 262 224 l 200 0 l 0 0 l 300 915 l 534 915 l 833 0 m 417 791 q 397 706 412 763 q 304 374 382 650 l 530 374 q 436 709 450 654 q 417 791 422 764 m 2 675 l 2 697 l 39 916 l 213 916 l 213 890 l 73 675 l 2 675 z "},"Έ":{"ha":833,"x_min":-37,"x_max":798,"o":"m 222 0 l 222 915 l 770 915 l 770 760 l 422 760 l 422 541 l 728 541 l 728 386 l 422 386 l 422 155 l 798 155 l 798 0 l 222 0 m -37 674 l -37 696 l -1 915 l 174 915 l 174 890 l 34 674 l -37 674 z "},"Ή":{"ha":833,"x_min":-37,"x_max":793,"o":"m 604 0 l 604 389 l 412 389 l 412 0 l 222 0 l 222 915 l 412 915 l 412 555 l 604 555 l 604 915 l 793 915 l 793 0 l 604 0 m -37 674 l -37 696 l -1 915 l 174 915 l 174 890 l 34 674 l -37 674 z "},"Ί":{"ha":833,"x_min":-37,"x_max":812,"o":"m 191 915 l 812 915 l 812 760 l 602 760 l 602 155 l 812 155 l 812 0 l 191 0 l 191 155 l 402 155 l 402 760 l 191 760 l 191 915 m -37 675 l -37 697 l 0 916 l 174 916 l 174 890 l 35 675 l -37 675 z "},"Ό":{"ha":833,"x_min":-37,"x_max":814,"o":"m 814 460 q 727 108 814 230 q 474 -14 639 -14 q 221 108 309 -14 q 133 460 133 230 q 221 810 133 691 q 474 929 309 929 q 726 810 638 929 q 814 460 814 692 m 612 460 q 474 772 612 772 q 372 694 408 772 q 336 460 336 616 q 372 224 336 304 q 474 144 408 144 q 576 224 541 144 q 612 460 612 304 m -37 674 l -37 696 l -1 915 l 174 915 l 174 890 l 34 674 l -37 674 z "},"Ύ":{"ha":833,"x_min":-37,"x_max":833,"o":"m 608 302 l 608 0 l 414 0 l 414 302 l 188 915 l 382 915 l 509 507 l 639 915 l 833 915 l 608 302 m -37 674 l -37 696 l -1 915 l 174 915 l 174 890 l 34 674 l -37 674 z "},"Ώ":{"ha":833,"x_min":-37,"x_max":833,"o":"m 477 775 q 360 706 404 775 q 317 511 317 636 q 345 340 317 413 q 437 199 372 267 l 437 0 l 122 0 l 122 155 l 194 155 q 307 147 237 155 q 177 318 222 222 q 131 541 131 414 q 175 745 131 656 q 299 881 220 833 q 477 929 379 929 q 654 881 574 929 q 779 745 734 833 q 824 541 824 657 q 779 318 824 414 q 648 147 733 222 q 764 155 720 155 l 833 155 l 833 0 l 517 0 l 517 199 q 610 340 583 267 q 638 511 638 412 q 595 705 638 635 q 477 775 551 775 m -37 674 l -37 696 l -1 915 l 174 915 l 174 890 l 34 674 l -37 674 z "},"ΐ":{"ha":833,"x_min":81,"x_max":783,"o":"m 544 -14 q 342 51 411 -14 q 273 250 273 115 l 273 605 l 81 605 l 81 734 l 463 734 l 463 243 q 552 127 463 127 q 675 200 626 127 l 783 114 q 544 -14 701 -14 m 341 814 l 341 837 l 381 1107 l 542 1107 l 542 1082 l 419 814 l 341 814 m 160 835 l 160 985 l 296 985 l 296 835 l 160 835 m 521 835 l 521 985 l 656 985 l 656 835 l 521 835 z "},"Α":{"ha":833,"x_min":0,"x_max":833,"o":"m 833 0 l 634 0 l 572 224 l 262 224 l 200 0 l 0 0 l 300 915 l 534 915 l 833 0 m 417 791 q 397 706 412 763 q 304 374 382 650 l 530 374 q 436 709 450 654 q 417 791 422 764 z "},"Β":{"ha":833,"x_min":93,"x_max":804,"o":"m 804 261 q 720 69 804 138 q 488 0 636 0 l 93 0 l 93 915 l 449 915 q 673 856 597 915 q 749 685 749 796 q 705 554 749 607 q 567 481 660 500 q 744 412 683 469 q 804 261 804 355 m 548 658 q 435 766 548 766 l 293 766 l 293 550 l 436 550 q 548 658 548 550 m 603 278 q 567 370 603 338 q 463 402 531 402 l 293 402 l 293 149 l 467 149 q 603 278 603 149 z "},"Δ":{"ha":833,"x_min":12,"x_max":822,"o":"m 12 153 l 302 915 l 536 915 l 822 153 l 822 0 l 12 0 l 12 153 m 623 165 l 471 585 q 424 760 441 678 l 418 786 q 398 706 417 779 q 364 583 380 633 l 215 165 l 623 165 z "},"Ε":{"ha":833,"x_min":93,"x_max":777,"o":"m 93 0 l 93 915 l 749 915 l 749 760 l 293 760 l 293 541 l 708 541 l 708 386 l 293 386 l 293 155 l 777 155 l 777 0 l 93 0 z "},"Ζ":{"ha":833,"x_min":59,"x_max":772,"o":"m 772 0 l 59 0 l 59 142 l 514 758 l 111 758 l 111 915 l 744 915 l 744 776 l 289 157 l 772 157 l 772 0 z "},"Η":{"ha":833,"x_min":94,"x_max":740,"o":"m 540 0 l 540 389 l 294 389 l 294 0 l 94 0 l 94 915 l 294 915 l 294 555 l 540 555 l 540 915 l 740 915 l 740 0 l 540 0 z "},"Ι":{"ha":833,"x_min":106,"x_max":728,"o":"m 106 915 l 728 915 l 728 760 l 517 760 l 517 155 l 728 155 l 728 0 l 106 0 l 106 155 l 317 155 l 317 760 l 106 760 l 106 915 z "},"Κ":{"ha":833,"x_min":92,"x_max":833,"o":"m 597 0 l 378 378 l 292 281 l 292 0 l 92 0 l 92 915 l 292 915 l 292 509 l 588 915 l 821 915 l 509 522 l 833 0 l 597 0 z "},"Λ":{"ha":833,"x_min":14,"x_max":820,"o":"m 14 0 l 314 915 l 520 915 l 820 0 l 614 0 l 446 587 q 417 715 422 671 q 389 587 406 650 l 220 0 l 14 0 z "},"Μ":{"ha":833,"x_min":67,"x_max":766,"o":"m 616 0 l 616 589 q 627 793 616 660 q 576 562 587 596 l 492 244 l 344 244 l 258 562 q 207 793 239 635 l 212 725 q 216 589 216 654 l 216 0 l 67 0 l 67 915 l 302 915 l 394 576 q 420 420 404 545 q 447 576 433 525 l 539 915 l 766 915 l 766 0 l 616 0 z "},"Ν":{"ha":833,"x_min":92,"x_max":742,"o":"m 507 0 l 247 685 q 266 445 266 514 l 266 0 l 92 0 l 92 915 l 320 915 l 587 212 q 568 459 568 371 l 568 915 l 742 915 l 742 0 l 507 0 z "},"Ξ":{"ha":833,"x_min":78,"x_max":755,"o":"m 92 749 l 92 915 l 742 915 l 742 749 l 92 749 m 78 0 l 78 165 l 755 165 l 755 0 l 78 0 m 657 548 l 657 393 l 176 393 l 176 548 l 657 548 z "},"Ο":{"ha":833,"x_min":49,"x_max":785,"o":"m 785 460 q 690 106 785 227 q 417 -14 595 -14 q 144 106 239 -14 q 49 460 49 227 q 144 812 49 694 q 417 929 239 929 q 690 812 595 929 q 785 460 785 694 m 582 460 q 417 772 582 772 q 252 460 252 772 q 293 224 252 304 q 417 144 335 144 q 541 224 499 144 q 582 460 582 304 z "},"Π":{"ha":833,"x_min":94,"x_max":740,"o":"m 540 0 l 540 749 l 294 749 l 294 0 l 94 0 l 94 915 l 740 915 l 740 0 l 540 0 z "},"Ρ":{"ha":833,"x_min":92,"x_max":774,"o":"m 774 626 q 733 466 774 535 q 613 360 692 397 q 426 323 535 323 l 292 323 l 292 0 l 92 0 l 92 915 l 418 915 q 683 841 592 915 q 774 626 774 768 m 573 623 q 529 728 573 696 q 395 760 484 760 l 292 760 l 292 477 l 401 477 q 532 514 490 477 q 573 623 573 551 z "},"Σ":{"ha":833,"x_min":68,"x_max":785,"o":"m 68 0 l 68 159 l 378 482 l 79 757 l 79 915 l 743 915 l 743 749 l 308 749 l 553 528 l 553 437 l 286 165 l 785 165 l 785 0 l 68 0 z "},"Τ":{"ha":833,"x_min":41,"x_max":792,"o":"m 517 760 l 517 0 l 317 0 l 317 760 l 41 760 l 41 915 l 792 915 l 792 760 l 517 760 z "},"Υ":{"ha":833,"x_min":2,"x_max":831,"o":"m 516 377 l 516 0 l 317 0 l 317 377 l 2 915 l 212 915 l 415 531 l 621 915 l 831 915 l 516 377 z "},"Χ":{"ha":833,"x_min":0,"x_max":833,"o":"m 623 0 l 418 334 l 212 0 l 0 0 l 311 482 l 28 915 l 239 915 l 418 623 l 595 915 l 806 915 l 515 482 l 833 0 l 623 0 z "},"Ψ":{"ha":833,"x_min":31,"x_max":802,"o":"m 498 269 l 498 0 l 336 0 l 336 269 l 329 269 q 105 359 179 269 q 31 621 31 450 l 31 915 l 193 915 l 193 618 q 224 466 193 513 q 330 419 256 419 l 336 419 l 336 915 l 498 915 l 498 419 l 504 419 q 609 466 578 419 q 640 618 640 513 l 640 915 l 802 915 l 802 621 q 728 359 802 450 q 505 269 654 269 l 498 269 z "},"Ω":{"ha":833,"x_min":34,"x_max":799,"o":"m 416 775 q 287 705 335 775 q 239 511 239 635 q 268 351 239 420 q 370 206 298 281 l 370 0 l 34 0 l 34 155 l 113 155 q 231 147 156 155 q 46 541 46 294 q 94 744 46 656 q 228 881 142 833 q 416 929 313 929 q 605 881 519 929 q 739 744 690 833 q 787 541 787 655 q 602 147 787 294 q 723 155 680 155 l 799 155 l 799 0 l 463 0 l 463 206 q 565 350 535 281 q 594 511 594 419 q 546 705 594 635 q 416 775 498 775 z "},"Ϊ":{"ha":833,"x_min":106,"x_max":728,"o":"m 106 915 l 728 915 l 728 760 l 517 760 l 517 155 l 728 155 l 728 0 l 106 0 l 106 155 l 317 155 l 317 760 l 106 760 l 106 915 m 484 1008 l 484 1156 l 637 1156 l 637 1008 l 484 1008 m 196 1008 l 196 1156 l 348 1156 l 348 1008 l 196 1008 z "},"Ϋ":{"ha":833,"x_min":2,"x_max":831,"o":"m 516 377 l 516 0 l 317 0 l 317 377 l 2 915 l 212 915 l 415 531 l 621 915 l 831 915 l 516 377 m 484 1008 l 484 1156 l 637 1156 l 637 1008 l 484 1008 m 196 1008 l 196 1156 l 348 1156 l 348 1008 l 196 1008 z "},"ά":{"ha":833,"x_min":47,"x_max":833,"o":"m 576 161 q 476 28 534 69 q 333 -14 418 -14 q 118 80 189 -14 q 47 363 47 173 q 124 652 47 556 q 351 747 201 747 q 504 702 439 747 q 600 574 568 657 l 602 574 q 653 734 619 659 l 833 734 q 763 564 799 672 q 718 377 726 455 q 810 0 740 168 l 627 0 q 579 161 594 81 l 576 161 m 248 366 q 276 175 248 233 q 370 117 305 117 q 474 186 431 117 q 530 368 517 254 q 475 552 515 488 q 376 616 435 616 q 277 555 307 616 q 248 366 248 495 m 363 814 l 363 837 l 399 1055 l 574 1055 l 574 1030 l 434 814 l 363 814 z "},"έ":{"ha":833,"x_min":89,"x_max":768,"o":"m 427 114 q 658 220 555 114 l 768 125 q 611 21 701 56 q 421 -14 522 -14 q 177 43 265 -14 q 89 201 89 100 q 152 322 89 273 q 311 378 216 371 l 311 380 q 168 437 224 389 q 111 551 111 486 q 202 693 111 639 q 446 747 293 747 q 758 619 654 747 l 634 536 q 551 602 602 578 q 443 626 500 626 q 332 603 371 626 q 292 543 292 581 q 359 468 292 493 q 569 442 425 442 l 569 322 q 359 294 433 322 q 285 213 285 267 q 323 140 285 166 q 427 114 361 114 m 376 814 l 376 837 l 413 1055 l 587 1055 l 587 1030 l 448 814 l 376 814 z "},"ή":{"ha":833,"x_min":75,"x_max":751,"o":"m 562 -288 l 562 427 q 537 566 562 526 q 450 605 512 605 q 333 548 374 605 q 291 394 291 492 l 291 0 l 100 0 l 100 577 q 75 734 100 661 l 258 734 q 276 672 269 707 q 283 608 283 636 l 286 608 q 386 716 329 684 q 526 747 443 747 q 697 686 642 747 q 751 489 751 625 l 751 -288 l 562 -288 m 376 814 l 376 837 l 413 1055 l 587 1055 l 587 1030 l 448 814 l 376 814 z "},"ί":{"ha":833,"x_min":81,"x_max":783,"o":"m 544 -14 q 342 51 411 -14 q 273 250 273 115 l 273 605 l 81 605 l 81 734 l 463 734 l 463 243 q 552 127 463 127 q 675 200 626 127 l 783 114 q 544 -14 701 -14 m 342 814 l 342 837 l 379 1055 l 553 1055 l 553 1030 l 414 814 l 342 814 z "},"ΰ":{"ha":833,"x_min":96,"x_max":762,"o":"m 762 387 q 674 88 762 189 q 413 -14 586 -14 q 173 61 250 -14 q 96 294 96 136 l 96 734 l 287 734 l 287 312 q 319 173 287 220 q 425 127 351 127 q 537 191 503 127 q 571 409 571 256 q 546 580 571 485 q 487 734 520 675 l 681 734 q 739 568 716 663 q 762 387 762 473 m 340 814 l 340 837 l 380 1107 l 541 1107 l 541 1082 l 418 814 l 340 814 m 159 835 l 159 985 l 294 985 l 294 835 l 159 835 m 519 835 l 519 985 l 655 985 l 655 835 l 519 835 z "},"β":{"ha":833,"x_min":96,"x_max":794,"o":"m 794 275 q 716 62 794 137 q 494 -14 638 -14 q 288 50 378 -14 l 282 50 q 288 -87 288 -12 l 288 -288 l 96 -288 l 96 696 q 181 932 96 857 q 433 1006 265 1006 q 651 946 576 1006 q 727 770 727 885 q 583 539 727 601 q 693 491 645 526 q 768 401 741 455 q 794 275 794 347 m 608 284 q 552 414 608 369 q 391 458 495 458 l 391 593 q 509 646 472 608 q 547 752 547 684 q 517 839 547 808 q 432 869 488 869 q 321 822 355 869 q 288 672 288 775 l 288 173 q 366 133 319 149 q 456 117 412 117 q 570 160 531 117 q 608 284 608 204 z "},"γ":{"ha":833,"x_min":24,"x_max":806,"o":"m 417 127 q 434 213 421 159 q 460 303 448 267 l 606 734 l 806 734 l 528 37 q 445 -288 467 -117 l 248 -288 q 317 7 271 -138 l 24 734 l 227 734 l 380 300 q 403 213 390 271 q 417 127 416 155 z "},"ζ":{"ha":833,"x_min":114,"x_max":767,"o":"m 315 286 q 329 220 315 244 q 377 179 344 195 q 520 138 411 162 q 711 61 655 109 q 767 -69 767 12 q 747 -174 767 -115 q 703 -272 727 -234 l 579 -222 q 616 -117 616 -159 q 601 -75 616 -90 q 549 -47 585 -60 q 419 -13 513 -34 q 234 48 294 16 q 144 131 174 81 q 114 252 114 180 q 139 384 114 317 q 212 523 163 452 q 338 676 260 594 q 561 878 416 758 l 561 882 l 414 878 l 180 878 l 180 1006 l 743 1006 l 743 878 q 422 546 530 696 q 315 286 315 396 z "},"η":{"ha":833,"x_min":75,"x_max":751,"o":"m 562 -288 l 562 427 q 537 566 562 526 q 450 605 512 605 q 333 548 374 605 q 291 394 291 492 l 291 0 l 100 0 l 100 577 q 75 734 100 661 l 258 734 q 276 672 269 707 q 283 608 283 636 l 286 608 q 386 716 329 684 q 526 747 443 747 q 697 686 642 747 q 751 489 751 625 l 751 -288 l 562 -288 z "},"θ":{"ha":833,"x_min":88,"x_max":744,"o":"m 744 497 q 660 118 744 250 q 413 -14 575 -14 q 173 118 258 -14 q 88 497 88 249 q 172 875 88 745 q 417 1006 256 1006 q 744 497 744 1006 m 414 110 q 519 195 481 110 q 558 437 556 280 l 275 437 q 295 258 277 332 q 343 148 313 185 q 414 110 374 110 m 418 882 q 314 799 351 882 q 275 566 277 715 l 558 566 q 520 798 556 715 q 418 882 484 882 z "},"ι":{"ha":833,"x_min":81,"x_max":783,"o":"m 544 -14 q 342 51 411 -14 q 273 250 273 115 l 273 605 l 81 605 l 81 734 l 463 734 l 463 243 q 552 127 463 127 q 675 200 626 127 l 783 114 q 544 -14 701 -14 z "},"κ":{"ha":833,"x_min":117,"x_max":794,"o":"m 586 0 l 390 319 l 308 262 l 308 0 l 117 0 l 117 734 l 308 734 l 308 416 l 570 734 l 774 734 l 517 434 l 794 0 l 586 0 z "},"λ":{"ha":833,"x_min":45,"x_max":791,"o":"m 791 0 l 591 0 l 496 313 q 465 428 479 371 q 446 515 451 486 q 411 402 436 475 q 370 291 387 329 l 247 0 l 45 0 l 367 682 l 359 698 q 292 836 317 805 q 229 867 267 867 q 165 854 196 867 l 133 986 q 260 1006 191 1006 q 375 983 329 1006 q 454 907 420 959 q 524 754 488 856 l 791 0 z "},"μ":{"ha":833,"x_min":91,"x_max":751,"o":"m 569 0 q 567 23 568 8 q 564 56 565 38 q 561 92 562 74 q 560 125 560 111 l 558 125 q 391 -14 505 -14 q 327 3 356 -14 q 281 47 297 19 l 279 47 q 281 -31 281 18 l 281 -288 l 91 -288 l 91 734 l 281 734 l 281 323 q 406 131 281 131 q 513 188 472 131 q 555 342 555 244 l 555 734 l 745 734 l 745 164 q 751 0 745 76 l 569 0 z "},"ν":{"ha":833,"x_min":27,"x_max":746,"o":"m 746 574 q 673 298 746 452 q 481 0 601 143 l 300 0 l 27 734 l 229 734 l 414 162 q 523 365 490 269 q 555 568 555 460 q 522 734 555 659 l 712 734 q 746 574 746 667 z "},"ξ":{"ha":833,"x_min":106,"x_max":767,"o":"m 305 287 q 323 218 305 245 q 377 174 340 191 q 502 142 414 157 q 703 69 639 121 q 767 -69 767 18 q 747 -174 767 -115 q 703 -272 727 -234 l 579 -222 q 616 -117 616 -159 q 601 -75 616 -92 q 550 -45 585 -58 q 395 -7 515 -32 q 222 45 279 15 q 136 124 165 76 q 106 243 106 172 q 196 439 106 359 q 448 542 286 519 l 448 547 q 259 601 330 555 q 187 713 187 646 q 246 813 187 770 q 410 877 304 857 l 410 882 l 218 878 l 153 878 l 153 1006 l 693 1006 l 693 881 q 453 834 528 869 q 378 737 378 800 q 440 653 378 682 q 664 615 502 624 l 664 486 q 446 440 516 465 q 340 378 376 416 q 305 287 305 341 z "},"ο":{"ha":833,"x_min":62,"x_max":771,"o":"m 771 368 q 679 86 771 185 q 414 -14 587 -14 q 155 86 247 -14 q 62 368 62 185 q 154 648 62 549 q 418 747 245 747 q 771 368 771 747 m 572 368 q 537 557 572 498 q 420 616 503 616 q 299 557 336 616 q 262 368 262 497 q 300 177 262 237 q 412 117 338 117 q 534 176 496 117 q 572 368 572 235 z "},"ρ":{"ha":833,"x_min":87,"x_max":766,"o":"m 766 350 q 685 87 766 189 q 477 -14 604 -14 q 287 79 363 -14 l 279 79 l 287 -40 l 287 -288 l 87 -288 l 87 394 q 178 653 87 559 q 428 748 270 748 q 604 700 527 748 q 723 561 681 652 q 766 350 766 470 m 566 357 q 429 616 566 616 q 287 388 287 616 l 287 203 q 361 141 320 163 q 444 118 403 118 q 532 183 498 118 q 566 357 566 248 z "},"ς":{"ha":833,"x_min":108,"x_max":753,"o":"m 285 322 q 326 213 285 252 q 480 147 368 174 q 655 92 607 117 q 729 26 704 66 q 753 -75 753 -13 q 732 -169 753 -114 q 677 -272 710 -224 l 556 -222 q 597 -117 597 -157 q 579 -73 597 -91 q 524 -41 561 -54 q 374 -5 488 -27 q 219 52 275 13 q 135 151 162 91 q 108 297 108 212 q 157 528 108 418 q 287 692 205 637 q 475 747 369 747 q 741 631 634 747 l 642 526 q 467 614 557 614 q 375 578 416 614 q 309 472 334 542 q 285 322 285 402 z "},"υ":{"ha":833,"x_min":96,"x_max":762,"o":"m 762 387 q 674 88 762 189 q 413 -14 586 -14 q 173 61 250 -14 q 96 294 96 136 l 96 734 l 287 734 l 287 312 q 319 173 287 220 q 425 127 351 127 q 537 191 503 127 q 571 409 571 256 q 546 580 571 485 q 487 734 520 675 l 681 734 q 739 568 716 663 q 762 387 762 473 z "},"χ":{"ha":833,"x_min":28,"x_max":812,"o":"m 177 749 q 287 712 247 749 q 379 562 327 675 q 439 419 431 449 q 479 513 457 469 l 585 734 l 786 734 l 532 266 l 812 -288 l 608 -288 l 476 5 q 449 72 467 24 q 427 134 431 120 q 404 72 421 115 q 376 9 386 28 l 231 -288 l 28 -288 l 334 275 l 254 439 q 196 547 218 513 q 156 596 174 582 q 113 610 138 610 q 58 599 85 610 l 31 728 q 177 749 88 749 z "},"ψ":{"ha":833,"x_min":50,"x_max":784,"o":"m 492 119 q 570 141 543 120 q 609 205 597 161 q 621 321 621 249 l 621 734 l 784 734 l 784 311 q 713 65 784 142 q 494 -14 643 -12 l 494 -288 l 342 -288 l 342 -14 q 121 67 193 -12 q 50 311 50 145 l 50 734 l 213 734 l 213 322 q 241 172 213 220 q 342 120 270 123 l 342 909 l 492 909 l 492 119 z "},"ω":{"ha":833,"x_min":32,"x_max":803,"o":"m 593 -14 q 480 33 524 -14 q 419 161 436 79 l 416 161 q 355 33 399 79 q 242 -14 311 -14 q 89 84 146 -14 q 32 351 32 181 q 97 620 32 514 q 273 748 161 726 l 294 630 q 194 347 194 601 q 215 176 194 234 q 271 117 235 117 q 322 179 303 117 q 342 345 342 241 l 342 496 l 493 496 l 493 345 q 512 179 493 241 q 564 117 532 117 q 620 176 600 117 q 641 347 641 234 q 541 630 641 601 l 562 748 q 738 620 673 726 q 803 351 803 515 q 746 84 803 181 q 593 -14 689 -14 z "},"ϊ":{"ha":833,"x_min":81,"x_max":783,"o":"m 544 -14 q 342 51 411 -14 q 273 250 273 115 l 273 605 l 81 605 l 81 734 l 463 734 l 463 243 q 552 127 463 127 q 675 200 626 127 l 783 114 q 544 -14 701 -14 m 465 827 l 465 975 l 618 975 l 618 827 l 465 827 m 177 827 l 177 975 l 329 975 l 329 827 l 177 827 z "},"ϋ":{"ha":833,"x_min":96,"x_max":762,"o":"m 762 387 q 674 88 762 189 q 413 -14 586 -14 q 173 61 250 -14 q 96 294 96 136 l 96 734 l 287 734 l 287 312 q 319 173 287 220 q 425 127 351 127 q 537 191 503 127 q 571 409 571 256 q 546 580 571 485 q 487 734 520 675 l 681 734 q 739 568 716 663 q 762 387 762 473 m 465 827 l 465 975 l 618 975 l 618 827 l 465 827 m 177 827 l 177 975 l 329 975 l 329 827 l 177 827 z "},"ό":{"ha":833,"x_min":62,"x_max":771,"o":"m 771 368 q 679 86 771 185 q 414 -14 587 -14 q 155 86 247 -14 q 62 368 62 185 q 154 648 62 549 q 418 747 245 747 q 771 368 771 747 m 572 368 q 537 557 572 498 q 420 616 503 616 q 299 557 336 616 q 262 368 262 497 q 300 177 262 237 q 412 117 338 117 q 534 176 496 117 q 572 368 572 235 m 363 814 l 363 837 l 399 1055 l 574 1055 l 574 1030 l 434 814 l 363 814 z "},"ύ":{"ha":833,"x_min":96,"x_max":762,"o":"m 762 387 q 674 88 762 189 q 413 -14 586 -14 q 173 61 250 -14 q 96 294 96 136 l 96 734 l 287 734 l 287 312 q 319 173 287 220 q 425 127 351 127 q 537 191 503 127 q 571 409 571 256 q 546 580 571 485 q 487 734 520 675 l 681 734 q 739 568 716 663 q 762 387 762 473 m 342 814 l 342 837 l 379 1055 l 553 1055 l 553 1030 l 414 814 l 342 814 z "},"ώ":{"ha":833,"x_min":32,"x_max":803,"o":"m 593 -14 q 480 33 524 -14 q 419 161 436 79 l 416 161 q 355 33 399 79 q 242 -14 311 -14 q 89 84 146 -14 q 32 351 32 181 q 97 620 32 514 q 273 748 161 726 l 294 630 q 194 347 194 601 q 215 176 194 234 q 271 117 235 117 q 322 179 303 117 q 342 345 342 241 l 342 496 l 493 496 l 493 345 q 512 179 493 241 q 564 117 532 117 q 620 176 600 117 q 641 347 641 234 q 541 630 641 601 l 562 748 q 738 620 673 726 q 803 351 803 515 q 746 84 803 181 q 593 -14 689 -14 m 359 814 l 359 837 l 396 1055 l 570 1055 l 570 1030 l 431 814 l 359 814 z "},"Ё":{"ha":833,"x_min":93,"x_max":777,"o":"m 93 0 l 93 915 l 749 915 l 749 760 l 293 760 l 293 541 l 708 541 l 708 386 l 293 386 l 293 155 l 777 155 l 777 0 l 93 0 m 484 980 l 484 1128 l 637 1128 l 637 980 l 484 980 m 196 980 l 196 1128 l 348 1128 l 348 980 l 196 980 z "},"Ђ":{"ha":833,"x_min":0,"x_max":804,"o":"m 604 -14 q 470 27 522 -14 q 392 159 418 67 l 534 205 q 557 151 545 165 q 591 137 570 137 q 624 174 616 137 q 631 292 631 210 l 631 317 q 612 446 631 414 q 541 478 593 478 q 366 435 464 478 l 366 0 l 186 0 l 186 760 l 0 760 l 0 915 l 574 915 l 574 760 l 366 760 l 366 559 q 478 608 416 589 q 592 628 540 628 q 754 559 704 628 q 804 339 804 490 l 804 289 q 604 -14 804 -14 z "},"Ѓ":{"ha":833,"x_min":120,"x_max":776,"o":"m 776 915 l 776 760 l 320 760 l 320 1 l 120 1 l 120 915 l 776 915 m 344 969 l 344 990 l 515 1155 l 690 1155 l 690 1126 l 459 969 l 344 969 z "},"Є":{"ha":833,"x_min":54,"x_max":795,"o":"m 258 385 q 317 206 269 268 q 447 144 365 144 q 610 309 557 144 l 795 274 q 445 -14 705 -14 q 154 107 254 -14 q 54 462 54 229 q 439 929 54 929 q 651 863 566 929 q 776 665 736 796 l 591 621 q 532 732 572 692 q 442 772 493 772 q 258 540 281 772 l 524 540 l 524 385 l 258 385 z "},"Ѕ":{"ha":833,"x_min":26,"x_max":790,"o":"m 790 265 q 691 61 790 135 q 414 -14 591 -14 q 155 54 255 -14 q 26 249 54 121 l 219 274 q 284 173 235 210 q 420 136 334 136 q 552 165 509 136 q 595 254 595 193 q 557 329 595 298 q 447 378 519 360 q 241 439 301 413 q 145 498 181 465 q 90 574 109 530 q 71 672 71 618 q 166 860 71 791 q 417 929 261 929 q 654 869 569 929 q 765 683 740 809 l 571 663 q 413 787 541 787 q 303 761 341 787 q 265 684 265 734 q 283 628 265 650 q 333 591 302 606 q 462 551 365 576 q 658 481 589 519 q 758 389 726 443 q 790 265 790 334 z "},"І":{"ha":833,"x_min":106,"x_max":728,"o":"m 106 915 l 728 915 l 728 760 l 517 760 l 517 155 l 728 155 l 728 0 l 106 0 l 106 155 l 317 155 l 317 760 l 106 760 l 106 915 z "},"Ї":{"ha":833,"x_min":106,"x_max":728,"o":"m 106 915 l 728 915 l 728 760 l 517 760 l 517 155 l 728 155 l 728 0 l 106 0 l 106 155 l 317 155 l 317 760 l 106 760 l 106 915 m 484 980 l 484 1128 l 637 1128 l 637 980 l 484 980 m 196 980 l 196 1128 l 348 1128 l 348 980 l 196 980 z "},"Ј":{"ha":833,"x_min":69,"x_max":691,"o":"m 382 -14 q 170 60 250 -14 q 69 273 90 134 l 267 302 q 311 182 280 222 q 384 143 341 143 q 463 183 433 143 q 492 298 492 223 l 492 758 l 288 758 l 288 915 l 691 915 l 691 302 q 609 71 691 155 q 382 -14 527 -14 z "},"Љ":{"ha":833,"x_min":3,"x_max":824,"o":"m 824 282 q 745 78 824 157 q 534 0 667 0 l 386 0 l 386 770 l 294 770 l 267 290 q 208 58 258 126 q 64 -11 159 -11 q 3 1 24 -11 l 3 155 q 39 150 13 150 q 94 192 75 150 q 118 323 113 233 l 153 915 l 536 915 l 536 555 l 545 555 q 747 481 670 555 q 824 282 824 407 m 671 279 q 638 386 671 347 q 548 425 604 425 l 536 425 l 536 132 l 552 132 q 639 169 606 132 q 671 279 671 205 z "},"Њ":{"ha":833,"x_min":52,"x_max":819,"o":"m 819 282 q 736 76 819 151 q 506 0 653 0 l 362 0 l 362 420 l 208 420 l 208 0 l 52 0 l 52 915 l 208 915 l 208 555 l 362 555 l 362 915 l 518 915 l 518 555 l 528 555 q 742 481 665 555 q 819 282 819 408 m 667 279 q 629 383 667 345 q 527 421 591 421 l 518 421 l 518 142 l 531 142 q 667 279 667 142 z "},"Ћ":{"ha":833,"x_min":0,"x_max":804,"o":"m 366 760 l 366 561 q 478 610 416 590 q 592 629 540 629 q 754 560 704 629 q 804 339 804 491 l 804 0 l 631 0 l 631 319 q 612 448 631 416 q 541 479 593 479 q 366 429 456 479 l 366 0 l 186 0 l 186 760 l 0 760 l 0 915 l 574 915 l 574 760 l 366 760 z "},"Ќ":{"ha":833,"x_min":94,"x_max":830,"o":"m 94 915 l 293 915 l 293 543 q 481 715 378 543 l 600 915 l 807 915 l 648 661 q 580 569 619 616 q 522 509 541 523 l 830 0 l 606 0 l 373 409 q 335 394 361 401 q 293 387 310 387 l 293 0 l 94 0 l 94 915 m 335 969 l 335 990 l 506 1155 l 681 1155 l 681 1126 l 450 969 l 335 969 z "},"Ў":{"ha":833,"x_min":4,"x_max":826,"o":"m 214 -14 q 118 -2 165 -14 q 42 27 71 10 l 98 194 q 206 165 158 165 q 284 195 254 165 q 354 310 314 225 l 4 915 l 212 915 l 446 476 l 623 915 l 826 915 l 503 216 q 420 74 458 119 q 332 7 381 28 q 214 -14 282 -14 m 424 959 q 268 980 328 959 q 179 1040 208 1000 q 147 1156 151 1080 l 299 1156 q 313 1096 301 1118 q 348 1064 325 1074 q 424 1055 371 1055 q 499 1064 476 1055 q 534 1096 522 1074 q 547 1156 545 1118 l 699 1156 q 668 1041 696 1081 q 581 980 640 1000 q 424 959 522 959 z "},"Џ":{"ha":833,"x_min":94,"x_max":740,"o":"m 332 -288 l 332 0 l 94 0 l 94 915 l 294 915 l 294 165 l 540 165 l 540 915 l 740 915 l 740 0 l 502 0 l 502 -288 l 332 -288 z "},"А":{"ha":833,"x_min":0,"x_max":833,"o":"m 833 0 l 634 0 l 572 224 l 262 224 l 200 0 l 0 0 l 300 915 l 534 915 l 833 0 m 417 791 q 397 706 412 763 q 304 374 382 650 l 530 374 q 436 709 450 654 q 417 791 422 764 z "},"Б":{"ha":833,"x_min":94,"x_max":800,"o":"m 800 282 q 706 75 800 151 q 446 0 612 0 l 94 0 l 94 915 l 735 915 l 735 761 l 294 761 l 294 555 l 468 555 q 715 484 631 555 q 800 282 800 414 m 597 279 q 550 372 597 342 q 410 401 503 401 l 294 401 l 294 156 l 414 156 q 553 185 509 156 q 597 279 597 214 z "},"В":{"ha":833,"x_min":93,"x_max":804,"o":"m 804 261 q 720 69 804 138 q 488 0 636 0 l 93 0 l 93 915 l 449 915 q 673 856 597 915 q 749 685 749 796 q 705 554 749 607 q 567 481 660 500 q 744 412 683 469 q 804 261 804 355 m 548 658 q 435 766 548 766 l 293 766 l 293 550 l 436 550 q 548 658 548 550 m 603 278 q 567 370 603 338 q 463 402 531 402 l 293 402 l 293 149 l 467 149 q 603 278 603 149 z "},"Г":{"ha":833,"x_min":120,"x_max":776,"o":"m 776 915 l 776 760 l 320 760 l 320 1 l 120 1 l 120 915 l 776 915 z "},"Д":{"ha":833,"x_min":11,"x_max":814,"o":"m 695 152 l 814 152 l 814 -277 l 651 -277 l 651 0 l 174 0 l 174 -277 l 11 -277 l 11 152 l 97 152 q 179 328 151 231 q 221 559 207 425 l 259 915 l 695 915 l 695 152 m 529 152 l 529 763 l 399 763 l 378 536 q 346 325 368 420 q 279 152 323 229 l 529 152 z "},"Е":{"ha":833,"x_min":93,"x_max":777,"o":"m 93 0 l 93 915 l 749 915 l 749 760 l 293 760 l 293 541 l 708 541 l 708 386 l 293 386 l 293 155 l 777 155 l 777 0 l 93 0 z "},"Ж":{"ha":833,"x_min":3,"x_max":830,"o":"m 341 0 l 341 392 q 320 398 338 392 q 298 408 302 404 l 177 0 l 3 0 l 175 484 q 124 558 149 512 q 84 659 100 605 l 9 915 l 172 915 l 231 702 q 280 577 256 616 q 341 528 304 538 l 341 915 l 492 915 l 492 528 q 553 576 529 538 q 602 702 578 614 l 662 915 l 825 915 l 749 659 q 709 558 734 604 q 659 484 684 512 l 830 0 l 656 0 l 535 408 q 492 392 503 392 l 492 0 l 341 0 z "}}}
